<svg xmlns="http://www.w3.org/2000/svg" width="158.67" height="137.41" viewBox="0 0 158.67 137.41">
  <defs>
    <style>
      .cls-1 {
        fill: #ff26be;
      }

      .cls-2 {
        fill: #2e001f;
      }

      .cls-3 {
        fill: #ffd9f2;
      }
    </style>
  </defs>
  <g id="Calque_2" data-name="Calque 2">
    <g id="profil_icons">
      <g id="adobe_xD" data-name="adobe xD">
        <path class="cls-1" d="M119,0S103.24,5,79.33,5C54.44,5,39.67,0,39.67,0S36.42,15.62,24.13,36.83C11.74,58.2,0,68.7,0,68.7s11.27,9.24,24.13,31.88C36.27,122,39.67,137.41,39.67,137.41s13.37-5,39.66-5c25.17,0,39.67,5,39.67,5s2.68-14.54,15.54-36.83C147.68,77.8,158.67,68.7,158.67,68.7a154.1,154.1,0,0,1-24.13-31.87C122.28,15.26,119,0,119,0Z"/>
        <path class="cls-2" d="M113.72,9.15s-13.67,4.3-34.39,4.3C57.76,13.45,45,9.15,45,9.15S42.14,22.69,31.48,41.08,10.57,68.7,10.57,68.7s9.77,8,20.91,27.63C42,114.86,45,128.26,45,128.26S56.54,124,79.33,124c21.82,0,34.39,4.3,34.39,4.3s2.32-12.61,13.46-31.93C138.57,76.59,148.1,68.7,148.1,68.7a133.63,133.63,0,0,1-20.92-27.62C116.56,22.37,113.72,9.15,113.72,9.15Z"/>
        <g>
          <path class="cls-3" d="M49.18,36l-1.12,3.39H46.62l3.67-10.79H52l3.68,10.79H54.16L53,36ZM52.72,35l-1.06-3.11c-.24-.7-.4-1.34-.56-2h0c-.16.64-.33,1.3-.54,2L49.47,35Z"/>
          <path class="cls-3" d="M63.84,28.06v9.37c0,.69,0,1.47.06,2H62.64l-.06-1.35h0a2.85,2.85,0,0,1-2.64,1.53c-1.87,0-3.31-1.59-3.31-3.94,0-2.58,1.58-4.16,3.47-4.16a2.59,2.59,0,0,1,2.34,1.18h0V28.06Zm-1.41,6.78a2.45,2.45,0,0,0-.06-.6,2.08,2.08,0,0,0-2-1.63c-1.45,0-2.32,1.28-2.32,3s.77,2.87,2.29,2.87a2.13,2.13,0,0,0,2.07-1.68,2.38,2.38,0,0,0,.06-.61Z"/>
          <path class="cls-3" d="M73.35,35.49a3.79,3.79,0,0,1-3.86,4.12,3.68,3.68,0,0,1-3.71-4,3.78,3.78,0,0,1,3.84-4.11A3.67,3.67,0,0,1,73.35,35.49Zm-6.15.08c0,1.7,1,3,2.35,3s2.36-1.27,2.36-3c0-1.31-.66-3-2.33-3S67.2,34.1,67.2,35.57Z"/>
          <path class="cls-3" d="M75.21,39.43c0-.53.07-1.31.07-2V28.06h1.39v4.87h0a2.9,2.9,0,0,1,2.64-1.42c1.93,0,3.29,1.6,3.27,3.95,0,2.77-1.74,4.15-3.47,4.15a2.79,2.79,0,0,1-2.6-1.46h0l-.07,1.28Zm1.46-3.11a2.19,2.19,0,0,0,2.18,2.16c1.47,0,2.35-1.2,2.35-3,0-1.56-.8-2.88-2.3-2.88a2.25,2.25,0,0,0-2.15,1.72,3,3,0,0,0-.08.58Z"/>
          <path class="cls-3" d="M85.33,35.81A2.47,2.47,0,0,0,88,38.5a5.19,5.19,0,0,0,2.15-.4l.24,1a6.39,6.39,0,0,1-2.58.48A3.6,3.6,0,0,1,84,35.68c0-2.33,1.38-4.17,3.64-4.17,2.52,0,3.2,2.22,3.2,3.64,0,.29,0,.52,0,.66Zm4.13-1a2,2,0,0,0-2-2.29,2.34,2.34,0,0,0-2.16,2.29Z"/>
          <path class="cls-3" d="M102.22,39.43,100.85,37c-.56-.91-.91-1.5-1.25-2.12h0c-.31.62-.61,1.2-1.17,2.14l-1.3,2.37H95.5L98.8,34l-3.17-5.33h1.62l1.42,2.53c.4.7.71,1.25,1,1.82h0c.31-.64.58-1.13,1-1.82l1.47-2.53h1.6l-3.28,5.25,3.36,5.54Z"/>
          <path class="cls-3" d="M105.61,28.78a21.2,21.2,0,0,1,3-.22,6.16,6.16,0,0,1,4.37,1.34,5,5,0,0,1,1.52,3.88A5.69,5.69,0,0,1,112.91,38a6.64,6.64,0,0,1-4.77,1.56,22.56,22.56,0,0,1-2.53-.13Zm1.4,9.54a8.06,8.06,0,0,0,1.4.08c3,0,4.6-1.66,4.6-4.57,0-2.55-1.43-4.17-4.37-4.17a7.75,7.75,0,0,0-1.63.15Z"/>
        </g>
        <polygon class="cls-3" points="82.71 106.02 69.64 82.51 82.66 59.09 73.57 59.09 65.12 74.39 56.65 59.14 47.74 59.14 60.64 82.51 47.69 105.97 56.6 105.97 65.12 90.64 73.61 106.02 82.71 106.02"/>
        <path class="cls-3" d="M103.71,59.09v12a27.13,27.13,0,0,0-6.13.19C92.34,72.1,84,76,84,89.24c0,13.59,10.64,16.88,16.79,16.88,6.72,0,10.41-2.45,10.41-2.45V59.06Zm.09,39.63a6.87,6.87,0,0,1-2.17.25c-3.79,0-10.06-1.57-10.06-10.14,0-8.32,4.79-10.5,8-11a16.64,16.64,0,0,1,4.21,0Z"/>
      </g>
    </g>
  </g>
</svg>
