<svg xmlns="http://www.w3.org/2000/svg" width="78.789" height="95.806" viewBox="0 0 78.789 95.806"><defs><style>.a{fill:#daedf2;}</style></defs><g transform="translate(0.002 -0.001)"><path class="a" d="M36.441,95.806c-2.452,0-4.916-.1-7.365-.3a2.08,2.08,0,0,1-1.824-1.481L.087,2.675a2.081,2.081,0,0,1,3.99-1.187L30.833,91.46a85.608,85.608,0,0,0,12.6-.1c12.208-.406,30.457-8.89,31.163-25.838.37-8.846-3.23-14.532-6.311-17.747-4.253-4.432-8.994-5.926-10.5-5.926a2.081,2.081,0,1,1,0-4.161c3.279,0,8.968,2.475,13.51,7.206,3.641,3.8,7.9,10.491,7.464,20.8-.825,19.8-21.01,29.354-35.085,29.82-2.379.2-4.8.294-7.232.294" transform="translate(-0.002 0.001)"/><path class="a" d="M23.15,60.806a2.084,2.084,0,0,1-2-1.491L4.5,2.775A2.084,2.084,0,0,1,6.452.105c.06,0,6.066-.125,12.974,0l1.869.018C29.323.16,46.031.243,51.632,12.35A17.433,17.433,0,0,1,51.721,27.3C47.484,36.85,36.353,43.073,33.742,43.887A2.082,2.082,0,0,1,32.5,39.913c1.858-.58,11.8-6.16,15.412-14.3A13.408,13.408,0,0,0,47.851,14.1c-4.487-9.7-18.858-9.775-26.577-9.814L19.35,4.269c-4.008-.073-7.7-.062-10.082-.036L25.149,58.139a2.084,2.084,0,0,1-1.408,2.584,2.117,2.117,0,0,1-.591.083" transform="translate(7.072 0.08)"/><path class="a" d="M16.056,69.195a2.085,2.085,0,0,1-2-1.509L.173,19.169a2.083,2.083,0,0,1,4.005-1.145L18.06,66.54a2.085,2.085,0,0,1-1.429,2.577,2.2,2.2,0,0,1-.575.078" transform="translate(0.146 26.467)"/><path class="a" d="M4.1,43.651a2.086,2.086,0,0,1-2-1.507L.09,35.117a2.082,2.082,0,0,1,4-1.15l2.014,7.027a2.083,2.083,0,0,1-2,2.657" transform="translate(0.012 52.013)"/></g></svg>