<svg xmlns="http://www.w3.org/2000/svg" width="100" height="100" viewBox="0 0 100 100">
  <defs>
    <style>
      .cls-1 {
        fill: #e6eff2;
      }

      .cls-2 {
        fill: none;
      }
    </style>
  </defs>
  <g id="Calque_2" data-name="Calque 2">
    <g id="infos_icons" data-name="infos icons">
      <g id="phone">
        <g id="Calque_2-2" data-name="Calque 2">
          <g id="calling_tel" data-name="calling tel">
            <path id="Tracé_894" data-name="Tracé 894" class="cls-1" d="M48.73,19.38l-2.21-1.74-.42-.32-.34.4-6.47,7.47-.38.43.45.36,2.58,2.1.43.35.35-.44,6.1-7.83.34-.43Z"/>
            <path id="Tracé_895" data-name="Tracé 895" class="cls-1" d="M36,15.28l-2.21-.76-.54-.19-.17.55-2,6.76-.15.52.51.16L33.5,23l.53.16.16-.52L36.36,16l.17-.52Z"/>
            <path id="Tracé_896" data-name="Tracé 896" class="cls-1" d="M54.87,32.71l-.59-1.94-.16-.52-.53.15-6.27,1.8-.54.16.17.54L47.64,35l.17.52.53-.17,6.16-2,.52-.17Z"/>
            <path id="Tracé_897" data-name="Tracé 897" class="cls-1" d="M82.21,73.61a78.45,78.45,0,0,1-7.29-5.14c-3.08-2.52-7.6-6.82-7.65-6.86l-.36-.35-.38.33A40.76,40.76,0,0,0,61.22,67c-1,1.37-2,3-2.83,4.32-.52.86-1,1.68-1.35,2.12-1.7-.43-7-2.49-14.67-8a34.13,34.13,0,0,1-6.09-6.33,41.76,41.76,0,0,1-3.4-4.92,21.1,21.1,0,0,1,1.54-1.59c.72-.72,1.54-1.51,2.21-2.29.36-.43.75-.87,1.12-1.3l-8.46-6.85,2.64-3.24,8.48,6.85a12.41,12.41,0,0,0,.7-1c.48-.8,1.33-2.81,1.37-2.88l.19-.43-.4-.25c-.05,0-4.18-2.6-7.93-5.53A83.2,83.2,0,0,1,27,29l-.38-.4-.4.38c-.11.11-2.73,2.65-3.15,3.11a21.27,21.27,0,0,0-3.65,5.44,18.91,18.91,0,0,0-1.54,5.22,14.43,14.43,0,0,0,.72,7.56A62.14,62.14,0,0,0,28.75,65,72.36,72.36,0,0,0,42.4,76.73,71.63,71.63,0,0,0,62.8,86a11.52,11.52,0,0,0,4.26.26,16.18,16.18,0,0,0,6.69-2.1,16.81,16.81,0,0,0,3.76-3l-8.29-6.71,2.64-3.26,8.26,6.69.18-.27c.21-.31,2-3.13,2.09-3.24l.3-.47ZM27.54,40.74l-2.88-2.33,2.63-3.24,2.89,2.33ZM67.46,73l-2.88-2.33,2.64-3.25,2.88,2.33Z"/>
          </g>
        </g>
        <rect class="cls-2" width="100" height="100"/>
      </g>
    </g>
  </g>
</svg>
