<svg xmlns="http://www.w3.org/2000/svg" width="100" height="100" viewBox="0 0 100 100">
  <defs>
    <style>
      .cls-1 {
        fill: none;
      }

      .cls-2 {
        fill: #101437;
      }

      .cls-3 {
        fill: #ffc400;
      }
    </style>
  </defs>
  <g id="Calque_2" data-name="Calque 2">
    <g id="infos_icons" data-name="infos icons">
      <g id="cvIcon">
        <rect class="cls-1" width="100" height="100"/>
        <g id="Groupe_520" data-name="Groupe 520">
          <path id="Tracé_953" data-name="Tracé 953" class="cls-2" d="M26.1,17.75l39.28-4.83a5.62,5.62,0,0,1,6.29,4.86h0L78.83,76a5.63,5.63,0,0,1-4.93,6.23L34.62,87.08a5.62,5.62,0,0,1-6.29-4.86L21.17,24A5.63,5.63,0,0,1,26.1,17.75Z"/>
          <path id="Rectangle_1652" data-name="Rectangle 1652" class="cls-3" d="M34.5,49.81,65.37,46a2.6,2.6,0,0,1,2.89,2.26h0A2.59,2.59,0,0,1,66,51.16L35.14,55a2.58,2.58,0,0,1-2.89-2.25h0A2.58,2.58,0,0,1,34.5,49.81Z"/>
          <path id="Tracé_952" data-name="Tracé 952" class="cls-3" d="M52.73,25.23l7.72-.95a2.59,2.59,0,1,1,.63,5.14l-7.71.95a2.59,2.59,0,1,1-.64-5.14Z"/>
          <path id="Tracé_951" data-name="Tracé 951" class="cls-3" d="M54,36.09l7.71-1a2.59,2.59,0,0,1,.63,5.15l-7.71.94A2.59,2.59,0,1,1,54,36.09Z"/>
          <path id="Tracé_950" data-name="Tracé 950" class="cls-3" d="M36.29,60.33l15.43-1.89a2.59,2.59,0,1,1,.63,5.14L36.92,65.47a2.59,2.59,0,1,1-.63-5.14Z"/>
          <rect id="Rectangle_1654" data-name="Rectangle 1654" class="cls-3" x="32.83" y="25.95" width="12.96" height="15.55" rx="5.18" transform="translate(-3.82 5.04) rotate(-7)"/>
          <path id="Rectangle_1653" data-name="Rectangle 1653" class="cls-3" d="M37.1,70.54,68,66.75A2.6,2.6,0,0,1,70.85,69h0a2.6,2.6,0,0,1-2.26,2.89L37.73,75.69a2.6,2.6,0,0,1-2.89-2.26h0A2.6,2.6,0,0,1,37.1,70.54Z"/>
        </g>
      </g>
    </g>
  </g>
</svg>
