<svg xmlns="http://www.w3.org/2000/svg" width="100" height="100" viewBox="0 0 100 100">
  <defs>
    <style>
      .cls-1 {
        fill: #ffc400;
      }

      .cls-2 {
        fill: none;
      }
    </style>
  </defs>
  <g id="Calque_2" data-name="Calque 2">
    <g id="infos_icons" data-name="infos icons">
      <g id="dices">
        <g id="Calque_2-2" data-name="Calque 2">
          <g id="profil_icons" data-name="profil icons">
            <path id="dices-2" data-name="dices" class="cls-1" d="M81.56,42.55H67.78a9.57,9.57,0,0,1-2.11,10.38L50,68.68v5.37a5.54,5.54,0,0,0,5.45,5.63H81.56a5.54,5.54,0,0,0,5.54-5.54h0v-26a5.54,5.54,0,0,0-5.47-5.59h-.07ZM68.36,63.88a2.73,2.73,0,1,1,.18,0ZM63.17,42.31,42.88,22a5.69,5.69,0,0,0-8,0L14.55,42.31a5.67,5.67,0,0,0,0,8h0L34.88,70.57a5.67,5.67,0,0,0,8,0h0L63.21,50.31a5.66,5.66,0,0,0,0-8h0ZM24,49.06a2.82,2.82,0,1,1,2.76-2.88h0v.12A2.76,2.76,0,0,1,24,49.08h0ZM38.88,63.88a2.77,2.77,0,1,1,2.77-2.77h0A2.81,2.81,0,0,1,38.88,63.88Zm0-14.82a2.82,2.82,0,1,1,2.77-2.87h0v.12A2.82,2.82,0,0,1,38.88,49.06Zm0-14.86a2.77,2.77,0,1,1,2.77-2.77h0A2.82,2.82,0,0,1,38.88,34.2ZM53.7,49.06a2.82,2.82,0,1,1,2.78-2.86v.11A2.77,2.77,0,0,1,53.7,49.06Z"/>
          </g>
        </g>
        <rect class="cls-2" width="100" height="100"/>
      </g>
    </g>
  </g>
</svg>
