<svg xmlns="http://www.w3.org/2000/svg" width="100" height="100" viewBox="0 0 100 100">
  <defs>
    <style>
      .cls-1 {
        fill: #ffc400;
      }

      .cls-2 {
        fill: none;
      }
    </style>
  </defs>
  <g id="Calque_2" data-name="Calque 2">
    <g id="infos_icons" data-name="infos icons">
      <g id="earth">
        <g id="Calque_2-2" data-name="Calque 2">
          <g id="profil_icons" data-name="profil icons">
            <path id="earth-2" data-name="earth" class="cls-1" d="M50,23.83A26.17,26.17,0,1,0,76.17,50,26.17,26.17,0,0,0,50,23.83Zm8.51,37.74-1.24,1.19a3.18,3.18,0,0,0-.64,1.15,5.57,5.57,0,0,1-.51,1.79l-1.62,4.94a22.73,22.73,0,0,1-4.5.51v-2.9a7.88,7.88,0,0,0-2.39-5.42,3.23,3.23,0,0,1-1-2.38V57.06A3.3,3.3,0,0,0,45,54.13c-1.53-.86-3.65-2.05-5.14-2.77a18.08,18.08,0,0,1-3.37-2.3h0a12.91,12.91,0,0,1-1.87-2.17l-4-5.49a21.31,21.31,0,0,1,11-10.77l2.51,1.28a1.69,1.69,0,0,0,2.27-.74h0a1.76,1.76,0,0,0,.19-.78V29.19a12.82,12.82,0,0,0,2.55-.25l3,3a1.71,1.71,0,0,1,0,2.39l-.51.51-1.11,1.1a.91.91,0,0,0,0,1.2l.51.46a.8.8,0,0,1,.06,1.13H51l-.85.86a.89.89,0,0,1-.6.26h-.94a.84.84,0,0,0-.6.25l-1.07,1a.91.91,0,0,0,0,1l1.67,3.27a.87.87,0,0,1-.37,1.15.89.89,0,0,1-.39.09h-.77a1,1,0,0,1-.55-.22l-1-.85A1.71,1.71,0,0,0,44,45.08l-3.12,1.26A1.28,1.28,0,0,0,40.16,48h0a1.33,1.33,0,0,0,.66.66l.9.68a7.49,7.49,0,0,0,3.36.64c1.11,0,2.38,2.89,3.41,3.4h6.85a3.28,3.28,0,0,1,2.51,1l1.42,1.43a3.1,3.1,0,0,1,1,2.25,5,5,0,0,1-1.57,3.49ZM67.62,52a2.61,2.61,0,0,1-1.28-1.06L64.43,48a2.58,2.58,0,0,1,0-2.8l1.91-3.11a1.94,1.94,0,0,1,.94-.85l1.4-.68A21.32,21.32,0,0,1,70.93,50a17.64,17.64,0,0,1,0,2.72Z"/>
          </g>
        </g>
        <rect class="cls-2" width="100" height="100"/>
      </g>
    </g>
  </g>
</svg>
