<svg xmlns="http://www.w3.org/2000/svg" width="100" height="100" viewBox="0 0 100 100">
  <defs>
    <style>
      .cls-1 {
        fill: #e6eff2;
        fill-rule: evenodd;
      }

      .cls-2 {
        fill: none;
      }
    </style>
  </defs>
  <g id="Calque_2" data-name="Calque 2">
    <g id="infos_icons" data-name="infos icons">
      <g id="github">
        <path id="github-2" data-name="github" class="cls-1" d="M50,20.7a30,30,0,0,0-9.5,58.54c1.5.26,2.06-.64,2.06-1.43s0-3.08,0-5.59C35,73.61,33,70.38,32.42,68.69c-.33-.86-1.8-3.53-3.07-4.24-1.06-.57-2.56-2,0-2,2.36,0,4.05,2.17,4.62,3.08,2.7,4.54,7,3.26,8.74,2.47a6.29,6.29,0,0,1,1.92-4c-6.68-.76-13.67-3.35-13.67-14.84A11.7,11.7,0,0,1,34,41.09a10.79,10.79,0,0,1,.3-8s2.52-.79,8.26,3.08a28.36,28.36,0,0,1,15,0c5.75-3.9,8.26-3.08,8.26-3.08a10.79,10.79,0,0,1,.3,8,11.61,11.61,0,0,1,3.08,8.07c0,11.53-7,14.08-13.7,14.84,1.09.93,2,2.74,2,5.55,0,4,0,7.25,0,8.26,0,.79.56,1.73,2.06,1.43A30.06,30.06,0,0,0,50,20.7Z"/>
        <rect class="cls-2" width="100" height="100"/>
      </g>
    </g>
  </g>
</svg>
