<svg xmlns="http://www.w3.org/2000/svg" width="100" height="100" viewBox="0 0 100 100">
  <defs>
    <style>
      .cls-1 {
        fill: #daedf2;
        stroke: #daedf2;
        stroke-width: 0.7px;
      }

      .cls-2 {
        fill: none;
      }
    </style>
  </defs>
  <g id="Calque_2" data-name="Calque 2">
    <g id="infos_icons" data-name="infos icons">
      <g id="burgerMenu">
        <g>
          <path class="cls-1" d="M50.13,75.43c-1.3,0-2.6-.05-3.9-.16a1.12,1.12,0,0,1-1-.78L30.87,26.09A1.1,1.1,0,0,1,33,25.46L47.16,73.13a45.14,45.14,0,0,0,6.68-.06c6.47-.21,16.13-4.71,16.5-13.69.2-4.68-1.18-7-2.8-8.68a9.59,9.59,0,0,0-5.15-3,1.11,1.11,0,1,1,0-2.21,10.59,10.59,0,0,1,6.75,3.71c1.93,2,3.65,4.84,3.42,10.3C72.11,70,61.42,75,54,75.27c-1.26.1-2.54.15-3.83.15"/>
          <path class="cls-1" d="M48.26,56.93a1.1,1.1,0,0,1-1.06-.79L38.38,26.19a1.1,1.1,0,0,1,.74-1.37,1.47,1.47,0,0,1,.29-.05s3.21-.06,6.87,0h1c4.26,0,12.9-.4,15.87,6a8.68,8.68,0,0,1-.76,7.8A20.19,20.19,0,0,1,53.27,47a1.1,1.1,0,1,1-.65-2.11,16.37,16.37,0,0,0,8-6.88,7.1,7.1,0,0,0,.55-6.28C58.76,26.57,51.35,27,47.26,27h-1c-2.13,0-4.08,0-5.35,0l8.42,28.56a1.1,1.1,0,0,1-.75,1.37,1.06,1.06,0,0,1-.31,0"/>
          <path class="cls-1" d="M38.88,75.41a1.12,1.12,0,0,1-1.07-.8L30.45,48.9a1.11,1.11,0,0,1,2.13-.61L39.94,74a1.11,1.11,0,0,1-.76,1.36,1.06,1.06,0,0,1-.31,0"/>
          <path class="cls-1" d="M31.49,75.52a1.11,1.11,0,0,1-1.06-.8L29.37,71a1.1,1.1,0,1,1,2.12-.62l1.07,3.73a1.09,1.09,0,0,1-.75,1.36,1.13,1.13,0,0,1-.32,0"/>
        </g>
        <rect class="cls-2" width="100" height="100"/>
      </g>
    </g>
  </g>
</svg>
