<svg xmlns="http://www.w3.org/2000/svg" width="158.67" height="137.41" viewBox="0 0 158.67 137.41">
  <defs>
    <style>
      .cls-1 {
        fill: #edb346;
      }

      .cls-2 {
        fill: #542a00;
      }
    </style>
  </defs>
  <g id="Calque_2" data-name="Calque 2">
    <g id="profil_icons">
      <g id="photoshop">
        <path class="cls-1" d="M119,0S103.24,5,79.33,5C54.44,5,39.67,0,39.67,0S36.42,15.62,24.13,36.83C11.74,58.2,0,68.7,0,68.7s11.27,9.24,24.13,31.88C36.27,122,39.67,137.41,39.67,137.41s13.37-5,39.66-5c25.17,0,39.67,5,39.67,5s2.68-14.54,15.54-36.83C147.68,77.8,158.67,68.7,158.67,68.7a154.1,154.1,0,0,1-24.13-31.87C122.28,15.26,119,0,119,0Z"/>
        <path class="cls-2" d="M113.72,9.15s-13.67,4.3-34.39,4.3C57.76,13.45,45,9.15,45,9.15S42.14,22.69,31.48,41.08,10.57,68.7,10.57,68.7s9.77,8,20.91,27.63C42,114.86,45,128.26,45,128.26S56.54,124,79.33,124c21.82,0,34.39,4.3,34.39,4.3s2.32-12.61,13.46-31.93C138.57,76.59,148.1,68.7,148.1,68.7a133.63,133.63,0,0,1-20.92-27.62C116.56,22.37,113.72,9.15,113.72,9.15Z"/>
        <g>
          <path class="cls-1" d="M48.83,28.64V39.43H47.44V28.64Z"/>
          <path class="cls-1" d="M51.53,28.06h1.41V39.43H51.53Z"/>
          <path class="cls-1" d="M55.47,28.06h1.41V39.43H55.47Z"/>
          <path class="cls-1" d="M65.89,37.32c0,.8,0,1.5.06,2.11H64.7l-.08-1.27h0A2.9,2.9,0,0,1,62,39.61c-1.22,0-2.67-.68-2.67-3.4V31.68h1.41V36c0,1.47.44,2.47,1.72,2.47a2,2,0,0,0,1.86-1.28,2.09,2.09,0,0,0,.13-.72V31.68h1.41Z"/>
          <path class="cls-1" d="M68.19,38a3.72,3.72,0,0,0,1.86.56c1,0,1.5-.51,1.5-1.15s-.4-1-1.44-1.43c-1.39-.49-2-1.26-2-2.19a2.39,2.39,0,0,1,2.67-2.27,3.82,3.82,0,0,1,1.91.48l-.35,1a3.07,3.07,0,0,0-1.59-.45c-.83,0-1.29.48-1.29,1.06s.46.93,1.47,1.31c1.34.51,2,1.19,2,2.34,0,1.36-1.06,2.32-2.9,2.32a4.4,4.4,0,0,1-2.17-.53Z"/>
          <path class="cls-1" d="M76.57,29.46v2.22h2v1.07h-2v4.18c0,1,.28,1.51,1.06,1.51a3.06,3.06,0,0,0,.82-.1l.06,1.06a3.48,3.48,0,0,1-1.25.19A2,2,0,0,1,75.74,39a2.89,2.89,0,0,1-.54-2V32.75H74V31.68h1.2V29.82Z"/>
          <path class="cls-1" d="M80.33,34.1c0-.91,0-1.7-.06-2.42H81.5l0,1.52h.06a2.33,2.33,0,0,1,2.15-1.69,1.64,1.64,0,0,1,.4,0v1.33a2.28,2.28,0,0,0-.48-.05,2,2,0,0,0-1.89,1.81,4.37,4.37,0,0,0-.06.66v4.13h-1.4Z"/>
          <path class="cls-1" d="M89.93,39.43l-.11-1h0a2.88,2.88,0,0,1-2.37,1.16A2.21,2.21,0,0,1,85,37.38c0-1.87,1.66-2.9,4.65-2.88v-.16a1.59,1.59,0,0,0-1.76-1.79,3.84,3.84,0,0,0-2,.57l-.32-.93a4.86,4.86,0,0,1,2.54-.68c2.37,0,3,1.61,3,3.16v2.9a11.7,11.7,0,0,0,.12,1.86Zm-.2-4c-1.54,0-3.29.24-3.29,1.74a1.25,1.25,0,0,0,1.33,1.34,1.94,1.94,0,0,0,1.88-1.29,1.86,1.86,0,0,0,.08-.45Z"/>
          <path class="cls-1" d="M95.15,29.46v2.22h2v1.07h-2v4.18c0,1,.27,1.51,1.06,1.51a3,3,0,0,0,.81-.1l.07,1.06a3.52,3.52,0,0,1-1.25.19A2,2,0,0,1,94.32,39a2.89,2.89,0,0,1-.55-2V32.75h-1.2V31.68h1.2V29.82Z"/>
          <path class="cls-1" d="M105.82,35.49A3.79,3.79,0,0,1,102,39.61a3.69,3.69,0,0,1-3.72-4,3.78,3.78,0,0,1,3.84-4.11A3.66,3.66,0,0,1,105.82,35.49Zm-6.14.08c0,1.7,1,3,2.35,3s2.35-1.27,2.35-3c0-1.31-.65-3-2.32-3S99.68,34.1,99.68,35.57Z"/>
          <path class="cls-1" d="M107.76,34.1c0-.91,0-1.7-.07-2.42h1.23l0,1.52H109a2.31,2.31,0,0,1,2.14-1.69,1.64,1.64,0,0,1,.4,0v1.33a2.21,2.21,0,0,0-.48-.05,2,2,0,0,0-1.89,1.81,4.37,4.37,0,0,0-.06.66v4.13h-1.39Z"/>
        </g>
        <g>
          <path class="cls-1" d="M63.14,51.89,48,106.07h8.11l3.73-14.36H74.15l4,14.36h8.45L71.35,51.89Zm3.82,13L72,83.81H61.93Z"/>
          <path class="cls-1" d="M97.85,62.59A5.27,5.27,0,0,0,101.66,61a5.12,5.12,0,0,0,1.59-3.78,5.2,5.2,0,0,0-1.59-3.85,5.32,5.32,0,0,0-3.81-1.52,5.28,5.28,0,0,0-5.33,5.37,5.14,5.14,0,0,0,1.57,3.82A5.25,5.25,0,0,0,97.85,62.59Z"/>
          <rect class="cls-1" x="93.31" y="66.74" width="8.93" height="39.33"/>
        </g>
      </g>
    </g>
  </g>
</svg>
