<svg xmlns="http://www.w3.org/2000/svg" width="100" height="100" viewBox="0 0 100 100">
  <defs>
    <style>
      .cls-1 {
        fill: #e6eff2;
      }

      .cls-2 {
        fill: none;
      }
    </style>
  </defs>
  <g id="Calque_2" data-name="Calque 2">
    <g id="infos_icons" data-name="infos icons">
      <g id="linkedin">
        <g id="Calque_2-3" data-name="Calque 2-3">
          <g id="linkedin-2" data-name="linkedin">
            <path id="Tracé_171" data-name="Tracé 171" class="cls-1" d="M74.62,50.05V72.2H64.42c0-5.84.06-11.69,0-17.53a10.3,10.3,0,0,0-.89-4.16A5.33,5.33,0,0,0,58,47.68a6.55,6.55,0,0,0-5.76,6.79c-.07,5.91,0,11.82,0,17.73H42V39.64H52.15v4.2a12.36,12.36,0,0,1,7.52-4.94c6.23-1.49,12.66,1.76,14.44,7.92a11.84,11.84,0,0,1,.51,3.23Z"/>
            <path id="Tracé_172" data-name="Tracé 172" class="cls-1" d="M25.66,39.57H35.87V72.2H25.66Z"/>
            <circle id="Ellipse_61" data-name="Ellipse 61" class="cls-1" cx="30.77" cy="29.42" r="5.1"/>
          </g>
        </g>
        <rect class="cls-2" width="100" height="100"/>
      </g>
    </g>
  </g>
</svg>
