<svg xmlns="http://www.w3.org/2000/svg" width="158.67" height="137.41" viewBox="0 0 158.67 137.41">
  <defs>
    <style>
      .cls-1 {
        fill: #00c8ff;
      }

      .cls-2 {
        fill: #001d26;
      }
    </style>
  </defs>
  <g id="Calque_2" data-name="Calque 2">
    <g id="profil_icons">
      <g id="photoshop">
        <path class="cls-1" d="M119,0S103.24,5,79.33,5C54.44,5,39.67,0,39.67,0S36.42,15.62,24.13,36.83C11.74,58.2,0,68.7,0,68.7s11.27,9.24,24.13,31.88C36.27,122,39.67,137.41,39.67,137.41s13.37-5,39.66-5c25.17,0,39.67,5,39.67,5s2.68-14.54,15.54-36.83C147.68,77.8,158.67,68.7,158.67,68.7a154.1,154.1,0,0,1-24.13-31.87C122.28,15.26,119,0,119,0Z"/>
        <path class="cls-2" d="M113.72,9.15s-13.67,4.3-34.39,4.3C57.76,13.45,45,9.15,45,9.15S42.14,22.69,31.48,41.08,10.57,68.7,10.57,68.7s9.77,8,20.91,27.63C42,114.86,45,128.26,45,128.26S56.54,124,79.33,124c21.82,0,34.39,4.3,34.39,4.3s2.32-12.61,13.46-31.93C138.57,76.59,148.1,68.7,148.1,68.7a133.63,133.63,0,0,1-20.92-27.62C116.56,22.37,113.72,9.15,113.72,9.15Z"/>
        <g>
          <path class="cls-1" d="M44.63,28.77a16.27,16.27,0,0,1,2.67-.21,4.39,4.39,0,0,1,3,.9,2.86,2.86,0,0,1,1,2.25A3.2,3.2,0,0,1,50.44,34a4.5,4.5,0,0,1-3.3,1.18A4.79,4.79,0,0,1,46,35.11v4.32H44.63ZM46,34a4.66,4.66,0,0,0,1.15.11c1.68,0,2.71-.81,2.71-2.3s-1-2.12-2.55-2.12a5.36,5.36,0,0,0-1.31.12Z"/>
          <path class="cls-1" d="M53.17,28.06h1.41V32.9h0a2.6,2.6,0,0,1,1-1,2.87,2.87,0,0,1,1.44-.4c1,0,2.7.64,2.7,3.31v4.61h-1.4V35c0-1.25-.47-2.31-1.8-2.31a2,2,0,0,0-1.89,1.41,1.73,1.73,0,0,0-.09.68v4.67H53.17Z"/>
          <path class="cls-1" d="M69.22,35.49a3.79,3.79,0,0,1-3.86,4.12,3.69,3.69,0,0,1-3.71-4,3.78,3.78,0,0,1,3.84-4.11A3.66,3.66,0,0,1,69.22,35.49Zm-6.15.08c0,1.7,1,3,2.36,3s2.35-1.27,2.35-3c0-1.31-.66-3-2.32-3S63.07,34.1,63.07,35.57Z"/>
          <path class="cls-1" d="M72.85,29.46v2.22h2v1.07h-2v4.18c0,1,.27,1.51,1.06,1.51a2.92,2.92,0,0,0,.81-.1l.07,1.06a3.52,3.52,0,0,1-1.25.19A2,2,0,0,1,72,39a2.89,2.89,0,0,1-.55-2V32.75h-1.2V31.68h1.2V29.82Z"/>
          <path class="cls-1" d="M83.52,35.49a3.79,3.79,0,0,1-3.85,4.12,3.69,3.69,0,0,1-3.72-4,3.78,3.78,0,0,1,3.84-4.11A3.66,3.66,0,0,1,83.52,35.49Zm-6.14.08c0,1.7,1,3,2.35,3s2.35-1.27,2.35-3c0-1.31-.65-3-2.32-3S77.38,34.1,77.38,35.57Z"/>
          <path class="cls-1" d="M85.27,38a3.68,3.68,0,0,0,1.85.56c1,0,1.51-.51,1.51-1.15s-.4-1-1.44-1.43c-1.4-.49-2-1.26-2-2.19a2.39,2.39,0,0,1,2.67-2.27,3.81,3.81,0,0,1,1.9.48l-.35,1a3,3,0,0,0-1.58-.45c-.83,0-1.3.48-1.3,1.06s.47.93,1.47,1.31c1.35.51,2,1.19,2,2.34,0,1.36-1.06,2.32-2.9,2.32a4.44,4.44,0,0,1-2.18-.53Z"/>
          <path class="cls-1" d="M92,28.06h1.41V32.9h0a2.67,2.67,0,0,1,1-1,2.93,2.93,0,0,1,1.44-.4c1,0,2.71.64,2.71,3.31v4.61H97.14V35c0-1.25-.46-2.31-1.79-2.31a2,2,0,0,0-1.89,1.41,1.71,1.71,0,0,0-.1.68v4.67H92Z"/>
          <path class="cls-1" d="M108,35.49a3.79,3.79,0,0,1-3.85,4.12,3.69,3.69,0,0,1-3.72-4,3.78,3.78,0,0,1,3.85-4.11A3.66,3.66,0,0,1,108,35.49Zm-6.14.08c0,1.7,1,3,2.35,3s2.35-1.27,2.35-3c0-1.31-.65-3-2.32-3S101.86,34.1,101.86,35.57Z"/>
          <path class="cls-1" d="M109.94,34.21c0-1,0-1.79-.07-2.53h1.27L111.2,33h0a3.06,3.06,0,0,1,2.76-1.5c1.87,0,3.28,1.58,3.28,3.93,0,2.79-1.7,4.17-3.52,4.17a2.72,2.72,0,0,1-2.39-1.22h0V42.6h-1.39Zm1.39,2.07a3.32,3.32,0,0,0,.06.57,2.18,2.18,0,0,0,2.12,1.65c1.49,0,2.35-1.22,2.35-3,0-1.56-.82-2.88-2.3-2.88a2.23,2.23,0,0,0-2.13,1.74,2.27,2.27,0,0,0-.1.58Z"/>
        </g>
        <g>
          <path class="cls-1" d="M78.75,56.06c-3.22-2.86-7.78-4.3-13.54-4.3H50v53.81H58V86h5.83c6,0,10.83-1.67,14.39-5a16.73,16.73,0,0,0,5.4-12.8C83.66,63,82,58.94,78.75,56.06ZM58,59.25h6.12c7.49,0,11.14,3,11.14,9.26,0,3.22-1,5.63-3,7.36s-5,2.63-8.94,2.63H58Z"/>
          <path class="cls-1" d="M112.23,90.39a9.75,9.75,0,0,0-2.35-3.2,16.23,16.23,0,0,0-3.54-2.39,47.54,47.54,0,0,0-4.5-2c-1.22-.48-2.31-.92-3.26-1.33a10.72,10.72,0,0,1-2.25-1.25,4.45,4.45,0,0,1-1.25-1.41,4.09,4.09,0,0,1-.41-2,3.31,3.31,0,0,1,.4-1.63A3.89,3.89,0,0,1,96.26,74a6.36,6.36,0,0,1,2-.92,10.35,10.35,0,0,1,2.73-.34,15.92,15.92,0,0,1,8.85,2.51l1.54,1v-8.5l-.59-.26a22.33,22.33,0,0,0-9-1.75,21.11,21.11,0,0,0-5.52.73,15.82,15.82,0,0,0-4.84,2.18,11.6,11.6,0,0,0-3.48,3.67A9.92,9.92,0,0,0,86.6,77.4a11.19,11.19,0,0,0,.7,4.09,9.39,9.39,0,0,0,2.1,3.17,14.28,14.28,0,0,0,3.35,2.42,41.87,41.87,0,0,0,4.43,2c1.17.45,2.27.89,3.28,1.31A13.16,13.16,0,0,1,103,91.73a6.12,6.12,0,0,1,1.54,1.55,3.54,3.54,0,0,1,.5,2c0,1.8-.7,4.2-6.8,4.2a16.68,16.68,0,0,1-10.07-3.38l-1.59-1.18v9l.53.28a22.09,22.09,0,0,0,10.37,2.32,24.19,24.19,0,0,0,5.77-.68,15.92,15.92,0,0,0,5-2.12,11.34,11.34,0,0,0,3.54-3.69,10.09,10.09,0,0,0,1.35-5.28A10.31,10.31,0,0,0,112.23,90.39Z"/>
        </g>
      </g>
    </g>
  </g>
</svg>
