<svg xmlns="http://www.w3.org/2000/svg" width="158.67" height="137.41" viewBox="0 0 158.67 137.41">
  <defs>
    <style>
      .cls-1 {
        fill: #78e1f9;
      }

      .cls-2 {
        fill: #2e001f;
      }
    </style>
  </defs>
  <g id="Calque_2" data-name="Calque 2">
    <g id="profil_icons">
      <g id="photoshop">
        <path class="cls-1" d="M119,0S103.24,5,79.33,5C54.44,5,39.67,0,39.67,0S36.42,15.62,24.13,36.83C11.74,58.2,0,68.7,0,68.7s11.27,9.24,24.13,31.88C36.27,122,39.67,137.41,39.67,137.41s13.37-5,39.66-5c25.17,0,39.67,5,39.67,5s2.68-14.54,15.54-36.83C147.68,77.8,158.67,68.7,158.67,68.7a154.1,154.1,0,0,1-24.13-31.87C122.28,15.26,119,0,119,0Z"/>
        <path class="cls-2" d="M113.72,9.15s-13.67,4.3-34.39,4.3C57.76,13.45,45,9.15,45,9.15S42.14,22.69,31.48,41.08,10.57,68.7,10.57,68.7s9.77,8,20.91,27.63C42,114.86,45,128.26,45,128.26S56.54,124,79.33,124c21.82,0,34.39,4.3,34.39,4.3s2.32-12.61,13.46-31.93C138.57,76.59,148.1,68.7,148.1,68.7a133.63,133.63,0,0,1-20.92-27.62C116.56,22.37,113.72,9.15,113.72,9.15Z"/>
        <g>
          <path class="cls-1" d="M53.7,28.78a14.83,14.83,0,0,1,2.67-.22,4.39,4.39,0,0,1,3.12.88,2.67,2.67,0,0,1,.85,2,2.82,2.82,0,0,1-2,2.75v0a2.69,2.69,0,0,1,1.58,2.18,16.43,16.43,0,0,0,.84,3H59.28a15.16,15.16,0,0,1-.72-2.58c-.32-1.49-.89-2.05-2.16-2.09H55.09v4.67H53.7Zm1.39,4.92h1.43C58,33.7,59,32.88,59,31.65c0-1.39-1-2-2.48-2a6,6,0,0,0-1.38.13Z"/>
          <path class="cls-1" d="M63.27,35.81a2.48,2.48,0,0,0,2.65,2.69,5.19,5.19,0,0,0,2.15-.4l.24,1a6.39,6.39,0,0,1-2.58.48,3.6,3.6,0,0,1-3.81-3.91c0-2.33,1.38-4.17,3.64-4.17,2.52,0,3.2,2.22,3.2,3.65a4.51,4.51,0,0,1-.05.65Zm4.13-1a2,2,0,0,0-2-2.29,2.35,2.35,0,0,0-2.16,2.29Z"/>
          <path class="cls-1" d="M75,39.43l-.11-1h0a2.89,2.89,0,0,1-2.37,1.16,2.21,2.21,0,0,1-2.37-2.23c0-1.87,1.66-2.9,4.66-2.88v-.16A1.6,1.6,0,0,0,73,32.55a3.88,3.88,0,0,0-2,.57l-.32-.93a4.86,4.86,0,0,1,2.54-.68c2.37,0,2.95,1.61,2.95,3.17v2.89a10.57,10.57,0,0,0,.13,1.86Zm-.21-4c-1.54,0-3.28.24-3.28,1.74a1.25,1.25,0,0,0,1.33,1.34,1.92,1.92,0,0,0,1.87-1.29,1.47,1.47,0,0,0,.08-.45Z"/>
          <path class="cls-1" d="M84.05,39.14a5.2,5.2,0,0,1-2.22.45,3.68,3.68,0,0,1-3.86-4,3.94,3.94,0,0,1,4.16-4.12,4.72,4.72,0,0,1,2,.4L83.76,33a3.25,3.25,0,0,0-1.63-.37,2.68,2.68,0,0,0-2.74,2.93,2.66,2.66,0,0,0,2.69,2.9,3.94,3.94,0,0,0,1.73-.39Z"/>
          <path class="cls-1" d="M87.76,29.46v2.22h2v1.07h-2v4.18c0,1,.27,1.51,1.06,1.51a2.92,2.92,0,0,0,.81-.1l.07,1.06a3.52,3.52,0,0,1-1.25.19A2,2,0,0,1,86.93,39a2.89,2.89,0,0,1-.55-2V32.75h-1.2V31.68h1.2V29.82Z"/>
          <path class="cls-1" d="M97.33,28.64h1.39v7.22c0,2.86-1.41,3.75-3.26,3.75A4.57,4.57,0,0,1,94,39.35l.21-1.14a3.3,3.3,0,0,0,1.16.21c1.25,0,2-.56,2-2.67Z"/>
          <path class="cls-1" d="M101,38a3.72,3.72,0,0,0,1.86.56c1,0,1.5-.51,1.5-1.15s-.4-1-1.44-1.43c-1.39-.49-2-1.26-2-2.19a2.39,2.39,0,0,1,2.68-2.27,3.81,3.81,0,0,1,1.9.48l-.35,1a3.07,3.07,0,0,0-1.59-.45c-.83,0-1.29.48-1.29,1.06s.46.93,1.47,1.31c1.34.51,2,1.19,2,2.34,0,1.36-1.05,2.32-2.9,2.32a4.4,4.4,0,0,1-2.17-.53Z"/>
        </g>
        <path class="cls-1" d="M58.16,94.25a64.9,64.9,0,0,1-7-3.06,26.49,26.49,0,0,1-5.95-4.43c-3-3.09-2.83-6.6,0-9.8a22.94,22.94,0,0,1,8.45-5.55c1.45-.63,3-1.15,4.46-1.72-.29-2-.64-4-.85-6A21.09,21.09,0,0,1,58,55c1.35-4.31,4.45-6.09,8.87-5.09,3.85.86,7,3,10,5.39.84.67,1.64,1.38,2.46,2.08,1.68-1.32,3.28-2.69,5-3.89,2.69-1.9,5.53-3.52,8.9-3.84A6.43,6.43,0,0,1,100.4,54c1.48,3.67,1.32,7.5.83,11.32-.18,1.41-.45,2.8-.7,4.32.89.32,1.76.62,2.63.95,4,1.53,7.79,3.29,10.62,6.61,2.4,2.81,2.57,5.88.48,8.73a14.27,14.27,0,0,1-2.4,2.51A30.68,30.68,0,0,1,102,93.65l-1.14.4c.27,3.19.68,6.26.75,9.33a18.38,18.38,0,0,1-.76,5.46c-1.28,4.39-4.51,6.14-9,5s-7.91-3.68-11.27-6.54l-1.06-.92c-1.56,1.24-3,2.5-4.6,3.63A20.7,20.7,0,0,1,66,114.15a6.5,6.5,0,0,1-7.49-4.1,18.33,18.33,0,0,1-1.16-9.12C57.53,98.67,57.88,96.43,58.16,94.25ZM79.38,70.08c-1.94.1-3.88.16-5.8.34a1.89,1.89,0,0,0-1.31.76q-2.94,4.92-5.72,9.94a2,2,0,0,0,0,1.64c1.85,3.35,3.77,6.65,5.73,9.93a1.89,1.89,0,0,0,1.33.79q5.81.09,11.61,0a1.81,1.81,0,0,0,1.32-.79q3-5,5.76-10.06a1.69,1.69,0,0,0,0-1.41q-2.86-5.11-5.87-10.15a1.62,1.62,0,0,0-1.11-.64C83.33,70.25,81.35,70.18,79.38,70.08Zm-2.44,34c-1.53-1.83-3.1-3.49-4.41-5.34a5.17,5.17,0,0,0-4.16-2.47c-2.25-.16-4.47-.72-6.85-1.13-.21,1.16-.45,2.24-.6,3.34-.45,3.26-.68,6.52.41,9.7.8,2.34,2.2,3.13,4.6,2.59C70.33,109.77,73.64,107,76.94,104.07Zm4.92-44.34c2,2.45,3.87,4.79,5.77,7.1a1.29,1.29,0,0,0,.75.42c2.91.48,5.83.93,8.89,1.42.82-4.2,1.55-8.42.28-12.69-.82-2.71-2.34-3.56-5.14-2.81C88.21,54.29,85,57,81.86,59.73Zm17.93,31a27.46,27.46,0,0,0,10.28-5.12c3-2.65,3-4.75,0-7.36A28.26,28.26,0,0,0,99.77,73c-1.1,2.88-2.18,5.67-3.23,8.48a1.28,1.28,0,0,0,0,.86C97.62,85.13,98.69,87.88,99.79,90.73ZM58.94,73.05c-4,1.29-7.88,2.81-10.95,5.87-2.07,2.08-2.1,3.86-.05,5.93C51,88,55,89.49,59,90.83c1.1-2.89,2.16-5.65,3.2-8.42a1.34,1.34,0,0,0,0-.86C61.16,78.75,60.07,76,58.94,73.05Zm22.88,31.17c2.1,1.51,4.09,3.16,6.29,4.46a20.57,20.57,0,0,0,5.24,2c2,.51,3.33-.28,4-2.26,1.57-4.44.8-8.87-.09-13.28-3.09.48-6,.92-8.92,1.4a1.54,1.54,0,0,0-.82.54C85.71,99.37,83.88,101.65,81.82,104.22ZM61.49,68.68c3.06-.49,5.91-.94,8.74-1.42a1.51,1.51,0,0,0,.88-.41c1.91-2.32,3.78-4.67,5.8-7.19-.23-.16-.52-.35-.79-.56a43.54,43.54,0,0,0-4.32-3.25,27,27,0,0,0-5.7-2.63c-2.6-.79-4.18.17-4.93,2.76C59.94,60.24,60.59,64.47,61.49,68.68Zm17.93,33,3.94-4.59H75.42ZM94.47,86l-4,7,6-1.2C95.79,89.81,95.18,88,94.47,86ZM68.28,70.89l-6,1.17,2,5.76Zm7.06-4.07h7.1c.2,0,.4,0,.87-.09l-4-4.56Zm15.09,4.07c.82,1.36,1.48,2.42,2.1,3.49s1.2,2.11,1.94,3.42l1.93-5.75ZM64.24,86.22,62.35,91.8l5.9,1.13-3.63-6.36C64.57,86.47,64.45,86.41,64.24,86.22Z"/>
        <path class="cls-1" d="M85,82a5.61,5.61,0,1,1-5.6-5.65A5.62,5.62,0,0,1,85,82Z"/>
      </g>
    </g>
  </g>
</svg>
