<svg xmlns="http://www.w3.org/2000/svg" width="100" height="100" viewBox="0 0 100 100">
  <defs>
    <style>
      .cls-1 {
        fill: #e6eff2;
      }

      .cls-2 {
        fill: none;
      }
    </style>
  </defs>
  <g id="Calque_2" data-name="Calque 2">
    <g id="infos_icons" data-name="infos icons">
      <g id="mail">
        <g id="Calque_2-2" data-name="Calque 2-2">
          <g id="sending_email" data-name="sending email">
            <path id="Tracé_898" data-name="Tracé 898" class="cls-1" d="M97,72.29,71.34,48.59A1,1,0,0,0,70,48.46c-2,1.13-3.92,2.2-5.87,3.32a1.86,1.86,0,0,1-2.07,0c-1.91-1.09-3.86-2.13-5.75-3.26a1.18,1.18,0,0,0-1.68.19h0c-5.58,5.58-20.49,20.71-20.49,20.71Z"/>
            <path id="Tracé_899" data-name="Tracé 899" class="cls-1" d="M97,67.19V33.34L73.65,46.1Z"/>
            <path id="Tracé_788" data-name="Tracé 788" class="cls-1" d="M34.17,36.05V64L52.41,46.06Z"/>
            <path id="Tracé_900" data-name="Tracé 900" class="cls-1" d="M97,28.61,34.17,31.36S54.28,42.45,62.32,46.85a1.47,1.47,0,0,0,1.54,0C71.38,42.66,97,28.61,97,28.61Z"/>
            <path id="Tracé_901" data-name="Tracé 901" class="cls-1" d="M27.63,58.64l-14.19.94-.46,0,0,.55-.1,2.31,0,.71.6-.07L27.69,61.7l.47-.05v-3Z"/>
            <path id="Tracé_902" data-name="Tracé 902" class="cls-1" d="M25,51.76l-.1-3.36,0-.63-.53,0L3.73,49.47l-.52,0,0,.61.14,2.08,0,.58h.49l20.56-.39H25Z"/>
            <path id="Tracé_903" data-name="Tracé 903" class="cls-1" d="M27.42,37.49,14.18,35.26l-.52-.08-.06.65-.19,1.71-.07.63.5.11L27.1,41.1l.56.11.05-.7.17-2.3,0-.64Z"/>
          </g>
        </g>
        <rect class="cls-2" width="100" height="100"/>
      </g>
    </g>
  </g>
</svg>
