<svg xmlns="http://www.w3.org/2000/svg" width="158.67" height="137.41" viewBox="0 0 158.67 137.41">
  <defs>
    <style>
      .cls-1 {
        fill: #1e8cbe;
      }

      .cls-2 {
        fill: #0046a6;
      }

      .cls-3 {
        fill: #78e1f9;
      }

      .cls-4 {
        fill: #fff;
      }
    </style>
  </defs>
  <g id="Calque_2" data-name="Calque 2">
    <g id="profil_icons">
      <g id="wordpress">
        <path class="cls-1" d="M119,0S103.24,5,79.33,5C54.44,5,39.67,0,39.67,0S36.42,15.62,24.13,36.83C11.74,58.2,0,68.7,0,68.7s11.27,9.24,24.13,31.88C36.27,122,39.67,137.41,39.67,137.41s13.37-5,39.66-5c25.17,0,39.67,5,39.67,5s2.68-14.54,15.54-36.83C147.68,77.8,158.67,68.7,158.67,68.7a154.1,154.1,0,0,1-24.13-31.87C122.28,15.26,119,0,119,0Z"/>
        <path class="cls-2" d="M113.72,9.15s-13.67,4.3-34.39,4.3C57.76,13.45,45,9.15,45,9.15S42.14,22.69,31.48,41.08,10.57,68.7,10.57,68.7s9.77,8,20.91,27.63C42,114.86,45,128.26,45,128.26S56.54,124,79.33,124c21.82,0,34.39,4.3,34.39,4.3s2.32-12.61,13.46-31.93C138.57,76.59,148.1,68.7,148.1,68.7a133.63,133.63,0,0,1-20.92-27.62C116.56,22.37,113.72,9.15,113.72,9.15Z"/>
        <g>
          <path class="cls-3" d="M48.23,34.41,45.49,23.62H47l1.28,5.46c.32,1.35.61,2.69.8,3.73h0c.18-1.07.52-2.35.88-3.74l1.44-5.45h1.46l1.31,5.48c.31,1.28.6,2.56.76,3.69h0c.22-1.18.53-2.38.86-3.72l1.43-5.45h1.42L55.6,34.41H54.15l-1.36-5.62a32.72,32.72,0,0,1-.71-3.52h0a33.13,33.13,0,0,1-.83,3.52l-1.54,5.62Z"/>
          <path class="cls-3" d="M66,30.47a3.79,3.79,0,0,1-3.86,4.12,3.69,3.69,0,0,1-3.72-4,3.78,3.78,0,0,1,3.85-4.11A3.67,3.67,0,0,1,66,30.47Zm-6.15.08c0,1.7,1,3,2.35,3s2.35-1.26,2.35-3c0-1.31-.65-3-2.32-3S59.89,29.08,59.89,30.55Z"/>
          <path class="cls-3" d="M67.41,29.08c0-.91,0-1.7-.06-2.42h1.23l0,1.52h.06a2.32,2.32,0,0,1,2.15-1.69,1.25,1.25,0,0,1,.4.05v1.32a2.33,2.33,0,0,0-.48,0,2,2,0,0,0-1.89,1.81,3.16,3.16,0,0,0-.07.65v4.13H67.41Z"/>
          <path class="cls-3" d="M78.77,23.05v9.36c0,.69,0,1.47.07,2H77.57l-.06-1.34h0a2.89,2.89,0,0,1-2.64,1.52c-1.88,0-3.32-1.59-3.32-3.94,0-2.58,1.59-4.16,3.48-4.16a2.59,2.59,0,0,1,2.33,1.18h0V23.05Zm-1.41,6.77a2.32,2.32,0,0,0-.06-.59,2.08,2.08,0,0,0-2-1.64c-1.46,0-2.32,1.28-2.32,3,0,1.56.76,2.86,2.28,2.86a2.12,2.12,0,0,0,2.07-1.68,2.34,2.34,0,0,0,.06-.61Z"/>
          <path class="cls-3" d="M80.71,29.19c0-1,0-1.79-.07-2.53h1.27L82,28h0a3.06,3.06,0,0,1,2.76-1.5c1.87,0,3.28,1.58,3.28,3.94,0,2.78-1.7,4.16-3.52,4.16a2.72,2.72,0,0,1-2.39-1.22h0v4.21H80.71Zm1.39,2.07a3.22,3.22,0,0,0,.06.57,2.18,2.18,0,0,0,2.12,1.65c1.48,0,2.35-1.21,2.35-3,0-1.55-.82-2.88-2.31-2.88a2.26,2.26,0,0,0-2.13,1.74,2.8,2.8,0,0,0-.09.58Z"/>
          <path class="cls-3" d="M89.41,29.08c0-.91,0-1.7-.06-2.42h1.23l0,1.52h.06a2.31,2.31,0,0,1,2.14-1.69,1.22,1.22,0,0,1,.4.05v1.32a2.21,2.21,0,0,0-.48,0,2,2,0,0,0-1.88,1.81,3.16,3.16,0,0,0-.07.65v4.13H89.41Z"/>
          <path class="cls-3" d="M94.87,30.79a2.47,2.47,0,0,0,2.65,2.69,5,5,0,0,0,2.15-.4l.24,1a6.22,6.22,0,0,1-2.58.48,3.6,3.6,0,0,1-3.81-3.9c0-2.34,1.38-4.18,3.63-4.18,2.53,0,3.21,2.22,3.21,3.65a6.41,6.41,0,0,1,0,.65Zm4.12-1A2,2,0,0,0,97,27.5a2.33,2.33,0,0,0-2.16,2.29Z"/>
          <path class="cls-3" d="M101.51,33a3.68,3.68,0,0,0,1.85.56c1,0,1.51-.51,1.51-1.15s-.4-1-1.44-1.43c-1.4-.49-2.05-1.26-2.05-2.19a2.39,2.39,0,0,1,2.67-2.27A3.81,3.81,0,0,1,106,27l-.35,1a3,3,0,0,0-1.58-.45c-.83,0-1.3.48-1.3,1.06s.47.93,1.47,1.31c1.35.52,2,1.19,2,2.34,0,1.36-1.06,2.32-2.9,2.32a4.44,4.44,0,0,1-2.18-.53Z"/>
          <path class="cls-3" d="M107.44,33a3.72,3.72,0,0,0,1.86.56c1,0,1.5-.51,1.5-1.15s-.4-1-1.44-1.43c-1.39-.49-2-1.26-2-2.19A2.39,2.39,0,0,1,110,26.49a3.81,3.81,0,0,1,1.9.48l-.35,1a3.07,3.07,0,0,0-1.59-.45c-.83,0-1.29.48-1.29,1.06s.46.93,1.47,1.31c1.34.52,2,1.19,2,2.34,0,1.36-1,2.32-2.89,2.32a4.42,4.42,0,0,1-2.18-.53Z"/>
        </g>
        <circle class="cls-4" cx="79.33" cy="80.52" r="37.83"/>
        <circle class="cls-1" cx="79.33" cy="80.52" r="33.19"/>
        <path class="cls-4" d="M106.1,79.8c1.29-3.67,3.13-12.37,1.54-18.17a34.78,34.78,0,0,0-4.3-5.23l-.34-.11c-2.24-.63-7.82,1.31-7.07,6.93.46,3.47,4.73,8.07,5.67,12.8.49,2.5-.25,8.74-1.61,12.3L95.5,100l-11.71-35h4.5c1.12,0,1.31-2.62-.19-2.62H68.74c-1.29,0-.84,2.63.19,2.63h4.54l5.18,14.37L70.75,100,59,65.05h4.5c1.12,0,1.31-2.62-.19-2.62H50.52a30.91,30.91,0,0,0-1.67,3l16.63,46.2a33.57,33.57,0,0,0,4,1.5L80.07,83.38,90.6,112.63a34,34,0,0,0,4.5-1.95C98.49,101.19,104.23,85.14,106.1,79.8Z"/>
      </g>
    </g>
  </g>
</svg>
