<svg xmlns="http://www.w3.org/2000/svg" width="48" height="48" viewBox="0 0 48 48">
  <g id="logo_miniature" transform="translate(10284 3442)">
    <rect id="Rectangle_1627" data-name="Rectangle 1627" width="48" height="48" rx="5" transform="translate(-10284 -3442)" fill="#121636"/>
    <g id="logo" transform="translate(-10272 -3434.937)">
      <path id="Tracé_890" data-name="Tracé 890" d="M13.648,34.453c-.881,0-1.768-.036-2.648-.109a.748.748,0,0,1-.656-.532L.577.969A.748.748,0,0,1,2.011.542l9.62,32.348a30.779,30.779,0,0,0,4.532-.037c4.389-.146,10.95-3.2,11.2-9.29.133-3.18-.8-4.734-1.9-5.89a6.519,6.519,0,0,0-3.5-2.06.748.748,0,1,1,0-1.5,7.2,7.2,0,0,1,4.583,2.52c1.309,1.365,2.475,3.281,2.319,6.988-.3,7.118-7.554,10.554-12.614,10.721-.855.07-1.725.106-2.6.106" transform="translate(-1 0)" fill="#daedf2" stroke="#daedf2" stroke-width="1"/>
      <path id="Tracé_891" data-name="Tracé 891" d="M11.66,21.9a.749.749,0,0,1-.718-.536L4.954,1.04a.749.749,0,0,1,.7-.96c.022,0,2.181-.045,4.664,0l.672.007C13.879.1,19.745-.189,21.759,4.164a5.9,5.9,0,0,1-.517,5.292,13.7,13.7,0,0,1-6.18,5.7.748.748,0,1,1-.446-1.429,11.117,11.117,0,0,0,5.411-4.671A4.824,4.824,0,0,0,20.4,4.792C18.786,1.3,13.76,1.6,10.985,1.583l-.691-.006c-1.441-.026-2.769-.022-3.625-.013l5.71,19.381a.749.749,0,0,1-.506.929.761.761,0,0,1-.212.03" transform="translate(-0.283 -0.003)" fill="#daedf2" stroke="#daedf2" stroke-width="1"/>
      <path id="Tracé_892" data-name="Tracé 892" d="M7.014,35.5a.75.75,0,0,1-.72-.543L1.3,17.512a.749.749,0,0,1,1.44-.412L7.734,34.543a.75.75,0,0,1-.514.926.792.792,0,0,1-.207.028" transform="translate(-2.005 -1.062)" fill="#daedf2" stroke="#daedf2" stroke-width="1"/>
      <path id="Tracé_893" data-name="Tracé 893" d="M1,36.6a.75.75,0,0,1-.72-.542l-.723-2.526A.749.749,0,0,1,1,33.115l.724,2.526A.749.749,0,0,1,1,36.6" transform="translate(-1 -2.087)" fill="#daedf2" stroke="#daedf2" stroke-width="1"/>
    </g>
  </g>
</svg>
