<svg xmlns="http://www.w3.org/2000/svg" width="65.09" height="84.4" viewBox="0 0 65.09 84.4">
  <g id="Calque_2" data-name="Calque 2">
    <g id="Calque_1_-_copie" data-name="Calque 1 - copie">
      <g>
        <path d="M50.77,83.47a1.33,1.33,0,0,0,0-1.07l-6.1-14.49a1,1,0,0,0-.32-.39l-.22-.15v-.11l0,0a2.43,2.43,0,0,0-.3-.17,2.13,2.13,0,0,0-.47,0H16.94a1.5,1.5,0,0,0-1.06.42,1.25,1.25,0,0,0-.44,1,1.54,1.54,0,0,0,1.5,1.5H42.37L48.1,83.51a1.3,1.3,0,0,0,1.34.89,1.32,1.32,0,0,0,.58-.15A1.37,1.37,0,0,0,50.77,83.47Z"/>
        <path d="M65,83.57a1.53,1.53,0,0,0,0-1.19L33.64.89V.8A4,4,0,0,0,33.4.47L33.16.32,33,.2h-.49V.06L32.31,0l-.22.08-.15,0a1.22,1.22,0,0,0-.42.22,1.45,1.45,0,0,1-.18.16l0,.08,0,.11L31,1,.11,82.48a1.2,1.2,0,0,0,0,1.06,1.17,1.17,0,0,0,.82.68l.16.07a.62.62,0,0,0,.32.11,1.21,1.21,0,0,0,1.32-1L32.34,5.5l30,77.92a1.31,1.31,0,0,0,1.33,1,.82.82,0,0,0,.42-.11l.16-.07A1.05,1.05,0,0,0,65,83.57Z"/>
      </g>
    </g>
  </g>
</svg>
