<svg xmlns="http://www.w3.org/2000/svg" width="51.61" height="60.6" viewBox="0 0 51.61 60.6">
  <g id="Calque_2" data-name="Calque 2">
    <g id="Calque_1_-_copie" data-name="Calque 1 - copie">
      <g>
        <path d="M.05,17.32a1.17,1.17,0,0,0,.18,1,1.51,1.51,0,0,0,.91.69,1.22,1.22,0,0,0,1.05-.19A1.53,1.53,0,0,0,2.88,18,19.42,19.42,0,0,1,9.59,7.06,18.29,18.29,0,0,1,30.92,5.52a19.56,19.56,0,0,1,6.93,7.29,20.55,20.55,0,0,1,2.51,10,1.46,1.46,0,0,0,.45,1.05,1.37,1.37,0,0,0,2,0,1.51,1.51,0,0,0,.42-1.06A22.57,22.57,0,0,0,36.85,6.7,20.71,20.71,0,0,0,21.36,0,21,21,0,0,0,7.82,4.79,22.48,22.48,0,0,0,.05,17.32Z"/>
        <path d="M38.07,48.6a1.69,1.69,0,0,0-.24-1.09,1.37,1.37,0,0,0-.88-.62,1.47,1.47,0,0,0-.75,0,1.23,1.23,0,0,0-.61.4,1.38,1.38,0,0,0-.34.67c-.44,1.91-2.27,3.73-5.6,5.59a33.71,33.71,0,0,1-10.81,3.7,24.75,24.75,0,0,1-7,.2c-1.8-.29-2.94-.85-3.49-1.72a1.39,1.39,0,0,0-.9-.69,1.89,1.89,0,0,0-.39,0,1.26,1.26,0,0,0-.68.2,1.41,1.41,0,0,0-.63.89,1.48,1.48,0,0,0,.15,1.13c1.3,2.22,4.18,3.35,8.57,3.35a25.89,25.89,0,0,0,4.8-.49,36,36,0,0,0,12.45-4.34C35.36,53.65,37.5,51.24,38.07,48.6Z"/>
        <path d="M3.86,53.8a.77.77,0,0,0,.42-.11,1.7,1.7,0,0,0,.88-.85,1,1,0,0,0,0-1l0-.06C3,46.61,2.68,42.46,4.21,39.47a8,8,0,0,1,2.35-2.72,19.59,19.59,0,0,1,3-1.94,23.29,23.29,0,0,1,4.09-1.54c1.69-.5,3.1-.87,4.18-1.11s2.61-.55,4.61-.95c2.63-.54,4.56-1,5.88-1.3a32.53,32.53,0,0,0,4.48-1.52,14.29,14.29,0,0,0,3.91-2.27,1.28,1.28,0,0,0,.48-.95,1.36,1.36,0,0,0-.37-1,1.44,1.44,0,0,0-1-.49h-.11a1.07,1.07,0,0,0-.81.3,12.81,12.81,0,0,1-3.57,2,28.74,28.74,0,0,1-4.13,1.27l-5.34,1.2c-2.12.4-3.78.73-4.95,1s-2.71.7-4.61,1.29A23.53,23.53,0,0,0,7.8,32.49a20.19,20.19,0,0,0-3.41,2.44A11.71,11.71,0,0,0,1.7,38.14c-2,3.77-1.71,8.74.82,14.77A1.31,1.31,0,0,0,3.86,53.8Z"/>
        <path d="M41.29,52.81c.8,2.84,2,4.82,3.46,5.88a6,6,0,0,0,6.09,0,1.54,1.54,0,0,0,.7-.86A1.4,1.4,0,0,0,50.65,56a1.49,1.49,0,0,0-1.17.13,3.12,3.12,0,0,1-3.08.18C44.56,55,43.46,51.22,43,44.73a80.8,80.8,0,0,1,.45-17,1.57,1.57,0,0,0-.39-1,1.44,1.44,0,0,0-1-.52l-.2,0a1.24,1.24,0,0,0-.82.3,1.49,1.49,0,0,0-.52,1c-.2,1.91-.35,4.05-.45,6.36S40,39.2,40,42.9A37.8,37.8,0,0,0,41.29,52.81Z"/>
      </g>
    </g>
  </g>
</svg>
