<svg xmlns="http://www.w3.org/2000/svg" width="60.34" height="75.92" viewBox="0 0 60.34 75.92">
  <g id="Calque_2" data-name="Calque 2">
    <g id="Calque_1_-_copie" data-name="Calque 1 - copie">
      <g>
        <path d="M48.38,52.6c-.64.95-1.47,2.1-2.46,3.42l-.52.62a1.18,1.18,0,0,0-.29,1,1.07,1.07,0,0,0,.48.8,1.28,1.28,0,0,0,.83.31,1.12,1.12,0,0,0,1-.49l.52-.63,1-1.29c.26-.32.62-.82,1.08-1.47a19,19,0,0,0,1.07-1.7c.26-.5.6-1.12,1-1.85a8.2,8.2,0,0,0,.8-2c.16-.65.31-1.36.44-2.11a8.65,8.65,0,0,0,.1-2.22,9.85,9.85,0,0,0-.48-2.29,1.19,1.19,0,0,0-.61-.77,1.45,1.45,0,0,0-.65-.16,1.72,1.72,0,0,0-.44.06,1.17,1.17,0,0,0-.73.64,1.41,1.41,0,0,0-.11,1,7.88,7.88,0,0,1-.16,5A16.62,16.62,0,0,1,48.38,52.6Z"/>
        <path d="M42.12,65.47a1.29,1.29,0,0,0-.41-.94,1.1,1.1,0,0,0-.91-.36,1.4,1.4,0,0,0-.92.4,27.55,27.55,0,0,1-12,7.88,20,20,0,0,1-13-.36,19.17,19.17,0,0,1-8.51-6,15.68,15.68,0,0,1-3.71-9,16.26,16.26,0,0,1,3.7-11A34.29,34.29,0,0,1,18,37a1,1,0,0,0,.64-.74,1.36,1.36,0,0,0-.1-1,1.43,1.43,0,0,0-.78-.67,1.17,1.17,0,0,0-.35-.06.9.9,0,0,0-.51.16A44.5,44.5,0,0,0,7.7,40.7a22,22,0,0,0-5.24,6.35,23,23,0,0,0-2,5.52A17.48,17.48,0,0,0,4.16,67.66,21.33,21.33,0,0,0,14,74.55a22.3,22.3,0,0,0,7.74,1.37c7.35,0,14.09-3.21,20-9.54A1.21,1.21,0,0,0,42.12,65.47Z"/>
        <path d="M60.09,72.24a1,1,0,0,0-.75-.52h0c-2.1-.49-4.82-2.19-8.31-5.21A119.11,119.11,0,0,1,40.35,56c-3.64-4-7-7.86-9.87-11.37S25,37.87,22.92,35a1.66,1.66,0,0,0-1-.56,1,1,0,0,0-.93.25,1.36,1.36,0,0,0-.53.88,1.11,1.11,0,0,0,.29.91q1.72,2.34,4,5.21c1.52,1.93,4,4.89,7.29,8.79S38.57,57.94,41.53,61a95.81,95.81,0,0,0,9.3,8.55c3.16,2.56,5.8,4.12,7.85,4.64H59a1.25,1.25,0,0,0,1.32-1A1.55,1.55,0,0,0,60.09,72.24Z"/>
        <path d="M12.69,4.8a10.78,10.78,0,0,0-1.85,3.68,15.57,15.57,0,0,0-.67,5.57,25.41,25.41,0,0,0,2,7.79A55,55,0,0,0,17.73,32a1.17,1.17,0,0,0,1.09.58,1.1,1.1,0,0,0,.7-.2,1.24,1.24,0,0,0,.56-.84,1.27,1.27,0,0,0-.18-1c-4-6-6.37-11.23-7-15.66S13.51,7,16.52,4.82c2.7-1.94,6.11-2.61,10.12-2s7.07,2.26,9.07,4.89c2.12,2.89,2.27,6.35.46,10.31S30.86,26,25.63,30.12a1.08,1.08,0,0,0-.52.82,1.27,1.27,0,0,0,.26,1,1.22,1.22,0,0,0,.86.51,1.18,1.18,0,0,0,1-.29,52.66,52.66,0,0,0,6.94-6.44,26.6,26.6,0,0,0,4-5.69,22.86,22.86,0,0,0,1.71-4.74,9.43,9.43,0,0,0,.1-3.94,14.75,14.75,0,0,0-.92-3,10.54,10.54,0,0,0-1.28-2.09C35.34,3,31.75,1,27,.27A21.16,21.16,0,0,0,23.74,0,14.8,14.8,0,0,0,15,2.63,17,17,0,0,0,12.69,4.8Z"/>
      </g>
    </g>
  </g>
</svg>
