<svg xmlns="http://www.w3.org/2000/svg" width="86.1" height="81.5" viewBox="0 0 86.1 81.5">
  <g id="Calque_2" data-name="Calque 2">
    <g id="Calque_1_-_copie" data-name="Calque 1 - copie">
      <g>
        <path d="M80.67,61.15A40.8,40.8,0,0,0,82.89,25,39.87,39.87,0,0,0,61.15,3.21,40,40,0,0,0,45.4,0a1.31,1.31,0,0,0-.95.35,1.2,1.2,0,0,0-.35.9,1.34,1.34,0,0,0,.37,1,1.15,1.15,0,0,0,.93.39,37.34,37.34,0,0,1,14.8,3A37.35,37.35,0,0,1,80.46,25.9a37.34,37.34,0,0,1,3,14.8v.45l-.08.13-.28.38a43.74,43.74,0,0,1-8.47,14.53c-3.61,4-7.1,6-10.36,6.11-3.12.36-5.72-1.8-7.67-6.4a1.34,1.34,0,0,0-.74-.74,1.26,1.26,0,0,0-1.68.71,1.36,1.36,0,0,0,0,1c2.27,5.39,5.52,8,9.94,8h.2a14.07,14.07,0,0,0,8.14-3.35,35.87,35.87,0,0,0,7.94-8.83l2.14-3.23-1.25,3.67A37.38,37.38,0,0,1,67.64,71.7,37,37,0,0,1,45.4,78.9a1.31,1.31,0,0,0-.95.35,1.21,1.21,0,0,0-.35.9,1.34,1.34,0,0,0,.37,1,1.15,1.15,0,0,0,.93.39A40,40,0,0,0,65.85,76,40.57,40.57,0,0,0,80.67,61.15Z"/>
        <path d="M41.71,79.27a1.42,1.42,0,0,0-1-.37,37.32,37.32,0,0,1-19.1-5.12A38.23,38.23,0,0,1,2.6,40.7a37.34,37.34,0,0,1,3-14.8A38.22,38.22,0,0,1,13.8,13.74,39.28,39.28,0,0,1,26,5.64a37,37,0,0,1,14.75-3,1.36,1.36,0,0,0,1-.4,1.3,1.3,0,0,0,.4-1,1.1,1.1,0,0,0-.39-.88,1.42,1.42,0,0,0-1-.37A40.51,40.51,0,0,0,0,40.7,40.58,40.58,0,0,0,20.3,76,40.06,40.06,0,0,0,40.7,81.5a1.36,1.36,0,0,0,1-.4,1.32,1.32,0,0,0,.4-.95A1.1,1.1,0,0,0,41.71,79.27Z"/>
        <path d="M33.4,64.5c4.8,0,10.85-2.76,18-8.2a1.35,1.35,0,0,0,.5-.87,1.19,1.19,0,0,0-.25-.93,1.21,1.21,0,0,0-.87-.5,1.37,1.37,0,0,0-1,.22c-5.14,3.93-9.63,6.4-13.31,7.32s-6.68.23-8.47-2.14a12.09,12.09,0,0,1-2.25-6.92,28.9,28.9,0,0,1,.92-8.9,37.21,37.21,0,0,1,3.59-8.92,22.34,22.34,0,0,1,5.63-6.86C42.06,23,48.52,24.7,55.09,33a1,1,0,0,0,.79.46,1.45,1.45,0,0,0,1-.3,1.24,1.24,0,0,0,.5-.87,1.17,1.17,0,0,0-.28-1A28,28,0,0,0,51,25.46a16.33,16.33,0,0,0-5.47-2.57,12.33,12.33,0,0,0-2.5-.25,13.27,13.27,0,0,0-2.26.2A14,14,0,0,0,37,24a14.76,14.76,0,0,0-2.66,1.79l0,0A24,24,0,0,0,28,33.39a39.45,39.45,0,0,0-3.95,10,30.38,30.38,0,0,0-.79,10A14.18,14.18,0,0,0,25.89,61,9,9,0,0,0,33.4,64.5Z"/>
        <path d="M54.5,52.6a1.19,1.19,0,0,0,.6.31l.12,0a.67.67,0,0,0,.28,0c.43,0,1-.12,1.22-1l7-27a1.24,1.24,0,0,0-.11-1,1.24,1.24,0,0,0-1.47-.56,1.08,1.08,0,0,0-.56.35,3.36,3.36,0,0,0-.41.6l-7,27a1.88,1.88,0,0,0,0,.71A1.12,1.12,0,0,0,54.5,52.6Z"/>
      </g>
    </g>
  </g>
</svg>
