<svg xmlns="http://www.w3.org/2000/svg" width="56.93" height="86.19" viewBox="0 0 56.93 86.19">
  <g id="Calque_2" data-name="Calque 2">
    <g id="Calque_1_-_copie" data-name="Calque 1 - copie">
      <g>
        <path d="M51.22,26.66a1.65,1.65,0,0,0-.19-.79,1.35,1.35,0,0,0-.48-.52,1.32,1.32,0,0,0-.73-.17c-1,0-1.4.37-1.4,1.3v0c-.14,3.6-2,6.84-5.6,9.62s-8.25,4.74-14.1,6a1.16,1.16,0,0,0-.93.58,1.31,1.31,0,0,0-.19,1.1A1.24,1.24,0,0,0,29,44.88h.35c6.72-1.38,12.08-3.73,15.92-7S51.09,30.89,51.22,26.66Z"/>
        <path d="M50.2,77.59a18.17,18.17,0,0,0,4.19-4.77,17.19,17.19,0,0,0,2.53-9.88A23.9,23.9,0,0,0,53.68,52a26.51,26.51,0,0,0-3.77-5,19.42,19.42,0,0,0-4.29-3.36,8.55,8.55,0,0,0-4.1-1.18h-.1a1.23,1.23,0,0,0-.68.21,1.75,1.75,0,0,0-.54.58A1.47,1.47,0,0,0,40,44a1.33,1.33,0,0,0,.4,1,1.36,1.36,0,0,0,1,.41,8.79,8.79,0,0,1,4.91,2.31,21,21,0,0,1,4.82,5.83A20.52,20.52,0,0,1,54,62.85a14.76,14.76,0,0,1-2.08,8.49,17.15,17.15,0,0,1-4.27,4.54,33.2,33.2,0,0,1-7.31,3.91,48.58,48.58,0,0,1-12.08,2.78,115.45,115.45,0,0,1-17.08.61l-.48,0V24.28a1.36,1.36,0,0,0-.41-1,1.4,1.4,0,0,0-2.39,1v60.2a1.2,1.2,0,0,0,.32,1.06,1.28,1.28,0,0,0,1,.44q3.31.19,6.5.2A97,97,0,0,0,31.78,85a46.41,46.41,0,0,0,11.38-3.21A33.5,33.5,0,0,0,50.2,77.59Z"/>
        <path d="M.44,85.74a1.31,1.31,0,0,0,2,0,1.53,1.53,0,0,0,.42-1.06V3.41l.46,0c4.25-.33,8.06-.52,11.33-.55a48.35,48.35,0,0,1,9.25.75c2.84.54,5.29,1.1,7.29,1.67a30.74,30.74,0,0,1,5.64,2.18,39.76,39.76,0,0,1,4,2.28,18.63,18.63,0,0,1,2.56,2.1c3.42,3.09,5.12,6.54,5.06,10.27a1.08,1.08,0,0,0,.3,1,1.72,1.72,0,0,0,1.06.51h0a1.34,1.34,0,0,0,1-.41,1.35,1.35,0,0,0,.41-1c.12-4.58-1.87-8.79-5.94-12.54-4.38-4-10.46-6.78-18.06-8.32A70.35,70.35,0,0,0,13.23,0a98,98,0,0,0-12,.77,1.14,1.14,0,0,0-1,.46A1.42,1.42,0,0,0,0,2.31V84.68A1.49,1.49,0,0,0,.44,85.74Z"/>
      </g>
    </g>
  </g>
</svg>
