<svg xmlns="http://www.w3.org/2000/svg" width="49.4" height="84.4" viewBox="0 0 49.4 84.4">
  <g id="Calque_2" data-name="Calque 2">
    <g id="Calque_1_-_copie" data-name="Calque 1 - copie">
      <g>
        <path d="M46.09,68.3A40.18,40.18,0,0,0,49.4,52,40.18,40.18,0,0,0,46.09,35.6a30.14,30.14,0,0,0-8.9-11.86A19.33,19.33,0,0,0,25.1,19.4a19.08,19.08,0,0,0-9.84,2.78,25.7,25.7,0,0,0-8.15,7.9,1.2,1.2,0,0,0-.23,1,1.61,1.61,0,0,0,.65.92,1.3,1.3,0,0,0,1,.22,1.69,1.69,0,0,0,1-.58,23.31,23.31,0,0,1,7.07-6.91A16.22,16.22,0,0,1,25.1,22.3c5.94,0,11.06,2.95,15.21,8.76S46.5,43.85,46.5,52s-2.08,15.13-6.19,20.89S31,81.6,25.1,81.6,13.9,78.5,9.69,72.38a1.66,1.66,0,0,0-1-.54,1.53,1.53,0,0,0-.3,0,1.39,1.39,0,0,0-.78.25A1.43,1.43,0,0,0,7,73a1.15,1.15,0,0,0,.24,1,25.33,25.33,0,0,0,8.12,7.74,19.16,19.16,0,0,0,9.7,2.68,19.4,19.4,0,0,0,12.09-4.3A29.64,29.64,0,0,0,46.09,68.3Z"/>
        <path d="M1.4,0a1.24,1.24,0,0,0-1,.44h0A1.5,1.5,0,0,0,0,1.5V82.8a1.35,1.35,0,0,0,.4,1,1.44,1.44,0,0,0,2,0,1.35,1.35,0,0,0,.4-1V1.5A1.51,1.51,0,0,0,2.38.44,1.25,1.25,0,0,0,1.4,0Z"/>
      </g>
    </g>
  </g>
</svg>
