<svg xmlns="http://www.w3.org/2000/svg" width="69.86" height="81.2" viewBox="0 0 69.86 81.2">
  <g id="Calque_2" data-name="Calque 2">
    <g id="Calque_1_-_copie" data-name="Calque 1 - copie">
      <g>
        <path d="M36.08,9.78a1.49,1.49,0,0,0,1,.52c6.38.54,11.16,2,14.19,4.25S56.54,20.67,58,26h.12l.11.34a2.36,2.36,0,0,0,1.07,1.42A5.39,5.39,0,0,0,61.1,28a12.17,12.17,0,0,0,4.22-.92A4,4,0,0,0,68,24.67a1.78,1.78,0,0,0,.08-.47v-.14a.62.62,0,0,1-.1-.29l-.07-.2A38.13,38.13,0,0,0,55.84,6.39,28,28,0,0,0,38.2,0a1.51,1.51,0,0,0-1.06.42,1.24,1.24,0,0,0-.44,1,1.46,1.46,0,0,0,.45,1.05,1.46,1.46,0,0,0,1.05.45A24.12,24.12,0,0,1,49,5.45a30.43,30.43,0,0,1,9.26,7.22,38.16,38.16,0,0,1,6.63,10.94L65,24l-.42.21a8.88,8.88,0,0,1-3.49.85l-.4,0-.11-.38a31.53,31.53,0,0,0-2.41-6.1A21.44,21.44,0,0,0,54.94,14a16.4,16.4,0,0,0-4.42-3.24,28.88,28.88,0,0,0-5.8-2.17A48.08,48.08,0,0,0,37.35,7.4a1.36,1.36,0,0,0-1.08.33,1.21,1.21,0,0,0-.47,1A1.35,1.35,0,0,0,36.08,9.78Z"/>
        <path d="M69.63,50.47a1.38,1.38,0,0,0-.92-.63l-.33,0a1.41,1.41,0,0,0-.77.22h0a1.36,1.36,0,0,0-.62.89A38.49,38.49,0,0,1,56.25,70.71c-5.34,5.1-11.41,7.69-18,7.69a1.51,1.51,0,0,0-1.06.42,1.25,1.25,0,0,0-.44,1,1.24,1.24,0,0,0,.44,1,1.5,1.5,0,0,0,1.06.42c7.3,0,14-2.78,19.81-8.26a41.14,41.14,0,0,0,11.8-21.35A1.38,1.38,0,0,0,69.63,50.47Z"/>
        <path d="M33.86,78.82a1.51,1.51,0,0,0-1.06-.42,25,25,0,0,1-15.1-5.1A34.7,34.7,0,0,1,6.8,59.51a44.81,44.81,0,0,1-4-18.91A45,45,0,0,1,5.18,26a40,40,0,0,1,6.38-12,30.9,30.9,0,0,1,9.55-8.08,24.32,24.32,0,0,1,11.69-3,1.46,1.46,0,0,0,1.05-.45A1.46,1.46,0,0,0,34.3,1.4a1.24,1.24,0,0,0-.44-1A1.51,1.51,0,0,0,32.8,0,27.8,27.8,0,0,0,16.39,5.41a37.28,37.28,0,0,0-12,14.8A47.85,47.85,0,0,0,0,40.65,47.5,47.5,0,0,0,4.4,61a37.25,37.25,0,0,0,12,14.75A27.76,27.76,0,0,0,32.8,81.2a1.5,1.5,0,0,0,1.06-.42,1.24,1.24,0,0,0,.44-1A1.25,1.25,0,0,0,33.86,78.82Z"/>
      </g>
    </g>
  </g>
</svg>
