<svg xmlns="http://www.w3.org/2000/svg" width="60.8" height="82.7" viewBox="0 0 60.8 82.7">
  <g id="Calque_2" data-name="Calque 2">
    <g id="Calque_1_-_copie" data-name="Calque 1 - copie">
      <g>
        <path d="M56.35,62.19A48.56,48.56,0,0,0,60.8,41.45a48.56,48.56,0,0,0-4.45-20.74,38.51,38.51,0,0,0-12-15A27.35,27.35,0,0,0,27.9.2a1.37,1.37,0,0,0-1.4,1.4,1.5,1.5,0,0,0,.42,1.06,1.24,1.24,0,0,0,1,.44A24.88,24.88,0,0,1,43,8.25a35.06,35.06,0,0,1,10.91,14,46.41,46.41,0,0,1,4,19.21,46.41,46.41,0,0,1-4,19.21A35.06,35.06,0,0,1,43,74.65,24.88,24.88,0,0,1,27.9,79.8a1.35,1.35,0,0,0-1,.4,1.43,1.43,0,0,0-.4,1,1.42,1.42,0,0,0,.4,1,1.36,1.36,0,0,0,1,.4,27.35,27.35,0,0,0,16.45-5.5A38.51,38.51,0,0,0,56.35,62.19Z"/>
        <path d="M22.6,0H1.7a1.46,1.46,0,0,0-1,.45A1.4,1.4,0,0,0,0,1.6V81.2a1.47,1.47,0,0,0,.4,1.1,1.44,1.44,0,0,0,2,0,1.47,1.47,0,0,0,.4-1.1V2.9H22.6a1.24,1.24,0,0,0,1-.44A1.51,1.51,0,0,0,24,1.4,1.37,1.37,0,0,0,22.6,0Z"/>
        <path d="M23.58,80.14a1.24,1.24,0,0,0-1-.44H9.4V39.9A1.51,1.51,0,0,0,9,38.84a1.25,1.25,0,0,0-1-.44,1.54,1.54,0,0,0-1.5,1.5V81.3a1.24,1.24,0,0,0,.44,1A1.51,1.51,0,0,0,8,82.7a2.06,2.06,0,0,0,.48-.09H22.6a1.36,1.36,0,0,0,1-.4,1.35,1.35,0,0,0,.4-1A1.51,1.51,0,0,0,23.58,80.14Z"/>
      </g>
    </g>
  </g>
</svg>
