<svg xmlns="http://www.w3.org/2000/svg" width="49.4" height="84.4" viewBox="0 0 49.4 84.4">
  <g id="Calque_2" data-name="Calque 2">
    <g id="Calque_1_-_copie" data-name="Calque 1 - copie">
      <g>
        <path d="M46.5,82.8a1.24,1.24,0,0,0,.44,1,1.48,1.48,0,0,0,2.06,0,1.35,1.35,0,0,0,.4-1V1.5A1.51,1.51,0,0,0,49,.44,1.25,1.25,0,0,0,48,0a1.46,1.46,0,0,0-1,.45h0A1.46,1.46,0,0,0,46.5,1.5Z"/>
        <path d="M42.09,74.11A1.62,1.62,0,0,0,42.26,73a1.43,1.43,0,0,0-.59-.93,1.3,1.3,0,0,0-1-.22,1.51,1.51,0,0,0-.94.65c-4.21,6-9.4,9.11-15.41,9.11a15.44,15.44,0,0,1-5-.83,18,18,0,0,1-4.52-2.26A21.67,21.67,0,0,1,10.83,75,25.87,25.87,0,0,1,7.52,70.4,37,37,0,0,1,5,64.92a33.51,33.51,0,0,1-1.62-6.24A41.17,41.17,0,0,1,2.8,51.9C2.8,43.83,4.9,36.82,9,31.06S18.36,22.3,24.3,22.3a16.22,16.22,0,0,1,8.51,2.47,23.42,23.42,0,0,1,7.1,7,1.3,1.3,0,0,0,.88.54,1.42,1.42,0,0,0,1.67-1.11,1.54,1.54,0,0,0-.19-1.1A29.94,29.94,0,0,0,37,24.33a22.49,22.49,0,0,0-6.11-3.66A18,18,0,0,0,24.3,19.4a19.46,19.46,0,0,0-12.19,4.34A29.83,29.83,0,0,0,3.26,35.6,40.83,40.83,0,0,0,0,52,40.83,40.83,0,0,0,3.26,68.3a29.19,29.19,0,0,0,8.85,11.8A19.53,19.53,0,0,0,24.3,84.4,19.26,19.26,0,0,0,34,81.72,25.42,25.42,0,0,0,42.09,74.11Z"/>
      </g>
    </g>
  </g>
</svg>
