<svg xmlns="http://www.w3.org/2000/svg" width="61.7" height="83.67" viewBox="0 0 61.7 83.67">
  <g id="Calque_2" data-name="Calque 2">
    <g id="Calque_1_-_copie" data-name="Calque 1 - copie">
      <path d="M61.53,29.24a1.56,1.56,0,0,0-.5-.49,1.11,1.11,0,0,0-.63-.18H48L55.22,1.64a1.14,1.14,0,0,0-.15-1,1.37,1.37,0,0,0-.81-.63,1.26,1.26,0,0,0-1,.11,1.17,1.17,0,0,0-.61.75l-7.4,27.66H27.55L34.72,1.64a1.25,1.25,0,0,0-.11-1,1.2,1.2,0,0,0-.79-.61,1.4,1.4,0,0,0-1,.11,1.17,1.17,0,0,0-.61.75l-7.4,27.66H7.9a1.22,1.22,0,0,0-1.3,1.3,1,1,0,0,0,.1.48,2.12,2.12,0,0,0,.29.46.83.83,0,0,0,.36.25,1.26,1.26,0,0,0,.55.11H24.15l-6.07,22.7H1.3a1.27,1.27,0,0,0-.95.36,1.18,1.18,0,0,0-.35.89,1.38,1.38,0,0,0,.37,1,1.17,1.17,0,0,0,.93.38H17.35L10.48,82.1a1.11,1.11,0,0,0,.15,1,1.29,1.29,0,0,0,.75.61h.32a1.21,1.21,0,0,0,1.32-1l7-26.25H37.75L30.88,82.1a1.62,1.62,0,0,0,.21,1,1.16,1.16,0,0,0,.68.59h.43a1.06,1.06,0,0,0,1.21-.91l7.11-26.29H53.8a1.19,1.19,0,0,0,.93-.38,1.38,1.38,0,0,0,.37-1,1.21,1.21,0,0,0-.35-.9,1.31,1.31,0,0,0-1-.35H41.15l6.17-22.7H60.4a1.19,1.19,0,0,0,.93-.38,1.34,1.34,0,0,0,.37-.92A1.21,1.21,0,0,0,61.53,29.24ZM38.48,53.87H20.75l6.07-22.7H44.55Z"/>
    </g>
  </g>
</svg>
