<svg xmlns="http://www.w3.org/2000/svg" width="49.18" height="104.91" viewBox="0 0 49.18 104.91">
  <g id="Calque_2" data-name="Calque 2">
    <g id="Calque_1_-_copie" data-name="Calque 1 - copie">
      <path d="M43.3,82.41a21.39,21.39,0,0,0,4.64-7.92A23.33,23.33,0,0,0,49,64.76a1.28,1.28,0,0,0-.5-.91,1.67,1.67,0,0,0-1-.35,1.48,1.48,0,0,0-.82.52,1.15,1.15,0,0,0-.29.91,19.25,19.25,0,0,1-4.92,15.51,23.25,23.25,0,0,1-14.2,7.66H26V51.34l.56.07c2.61.33,4.84.7,6.65,1.11a42.55,42.55,0,0,1,5.61,1.67,12.06,12.06,0,0,1,4.69,2.92,9.74,9.74,0,0,1,2.37,4.37,1.11,1.11,0,0,0,1.22,1h.33a1.69,1.69,0,0,0,.49-.21.82.82,0,0,0,.28-.31,3.11,3.11,0,0,0,.22-.56,1,1,0,0,0,0-.5,11.34,11.34,0,0,0-2.11-4.46,14,14,0,0,0-3.42-3.19A20.61,20.61,0,0,0,38,51.13c-2-.62-3.85-1.1-5.5-1.44s-3.7-.66-6.17-1l-.43-.06V11.07l.53,0a20.67,20.67,0,0,1,12.34,5.07c3.63,3.09,6.26,7.91,7.81,14.32a1.05,1.05,0,0,0,.53.79,1.23,1.23,0,0,0,1,.14,1.41,1.41,0,0,0,.86-.59,1.19,1.19,0,0,0,.13-1,37.06,37.06,0,0,0-3.84-9.71,23,23,0,0,0-5.53-6.56,25.12,25.12,0,0,0-6.42-3.68A22.81,22.81,0,0,0,26.49,8.4l-.47,0v-7a1.31,1.31,0,0,0-.41-1,1.29,1.29,0,0,0-1.89,0,1.34,1.34,0,0,0-.4,1v7l-.45,0c-.65.07-1.31.17-1.95.29a27.78,27.78,0,0,0-15.13,8.4A21.89,21.89,0,0,0,1.19,25,23.62,23.62,0,0,0,.12,34.86a1.5,1.5,0,0,0,.45.89,1.12,1.12,0,0,0,.75.35L1.41,36l.21,0a1,1,0,0,0,.81-.42,1.07,1.07,0,0,0,.29-.91,19.6,19.6,0,0,1,4.82-15.6,23.16,23.16,0,0,1,13.8-7.76,3.35,3.35,0,0,1,.83-.15l.65-.06h.5V48.27l-.56-.07c-1.64-.21-2.94-.39-4-.55s-2.28-.39-3.71-.66a26.52,26.52,0,0,1-3.57-.86c-.91-.31-1.9-.68-2.93-1.11A11.47,11.47,0,0,1,6,43.55a7.81,7.81,0,0,1-1.76-2,6.69,6.69,0,0,1-1-2.59,1.67,1.67,0,0,0-.6-.83,1.15,1.15,0,0,0-1-.21,1.29,1.29,0,0,0-.84.54,1.35,1.35,0,0,0-.22,1A10.77,10.77,0,0,0,2,43.14a8.4,8.4,0,0,0,2.74,2.69,32.13,32.13,0,0,0,3.55,1.92,23.78,23.78,0,0,0,4.55,1.42c1.89.42,3.51.74,4.81.94l5.25.8.43.06V88.25l-.54,0A20,20,0,0,1,10.06,82c-3.65-3.7-6.16-9.35-7.43-16.82a1.88,1.88,0,0,0-.31-.59,1.09,1.09,0,0,0-.51-.37,1.34,1.34,0,0,0-.4-.07l-.29,0a1.25,1.25,0,0,0-.85.51,1.25,1.25,0,0,0-.26.93,40.63,40.63,0,0,0,3.51,11.3A25.78,25.78,0,0,0,9.1,84.68,23.9,23.9,0,0,0,15.72,89a22.55,22.55,0,0,0,7.14,1.77l.46,0V103.6a1.23,1.23,0,0,0,.4.9,1.31,1.31,0,0,0,1.9,0,1.24,1.24,0,0,0,.4-.9V90.7h1.3a.38.38,0,0,0,.17,0l.16,0a25.18,25.18,0,0,0,8.48-2.75A27.32,27.32,0,0,0,43.3,82.41Z"/>
    </g>
  </g>
</svg>
