<svg xmlns="http://www.w3.org/2000/svg" width="13.3" height="13.3" viewBox="0 0 13.3 13.3">
  <g id="Calque_2" data-name="Calque 2">
    <g id="Calque_1_-_copie" data-name="Calque 1 - copie">
      <path d="M11.35,2A6.44,6.44,0,0,0,6.6,0,6.6,6.6,0,0,0,3.3.88,6.53,6.53,0,0,0,.88,3.3,6.68,6.68,0,0,0,0,6.65,6.68,6.68,0,0,0,.88,10,6.53,6.53,0,0,0,3.3,12.42a6.6,6.6,0,0,0,3.3.88,6.44,6.44,0,0,0,4.75-2,6.37,6.37,0,0,0,2-4.7A6.37,6.37,0,0,0,11.35,2ZM9.46,9.49A3.75,3.75,0,0,1,6.65,10.7,3.88,3.88,0,0,1,3.8,9.5,3.88,3.88,0,0,1,2.6,6.65,3.88,3.88,0,0,1,3.8,3.8,3.88,3.88,0,0,1,6.65,2.6,3.74,3.74,0,0,1,9.46,3.8,4,4,0,0,1,10.6,6.65,4,4,0,0,1,9.46,9.49Z"/>
    </g>
  </g>
</svg>
