<svg xmlns="http://www.w3.org/2000/svg" width="12" height="69.9" viewBox="0 0 12 69.9">
  <g id="Calque_2" data-name="Calque 2">
    <g id="Calque_1_-_copie" data-name="Calque 1 - copie">
      <g>
        <path d="M6.84,65.94A19.86,19.86,0,0,0,10,60.29a35.93,35.93,0,0,0,1.48-6.41c.33-2.34.51-4,.54-5.05a17.36,17.36,0,0,0,0-2.38V46.4a2.38,2.38,0,0,0-.08-.48,1.11,1.11,0,0,0-1.22-1H1.73a1.28,1.28,0,0,0-.94.35,1.21,1.21,0,0,0-.36.9,1.34,1.34,0,0,0,.37,1,1.16,1.16,0,0,0,.93.39h7.6V48a29.18,29.18,0,0,1-.2,3.41c-.14,1.17-.37,2.65-.71,4.38a24.47,24.47,0,0,1-1.37,4.75,17.84,17.84,0,0,1-2.42,4.07A8.16,8.16,0,0,1,.9,67.37a1.58,1.58,0,0,0-.59.4,1.48,1.48,0,0,0-.29.59A1.09,1.09,0,0,0,.1,69a1.15,1.15,0,0,0,1.23.89,1.22,1.22,0,0,0,.45-.08A11.78,11.78,0,0,0,6.84,65.94Z"/>
        <path d="M.53,1.78a3,3,0,0,0,.29.46,1,1,0,0,0,.36.25,1.42,1.42,0,0,0,.55.11h8.9a1.32,1.32,0,0,0,.92-.37,1.12,1.12,0,0,0,.38-.88,1.32,1.32,0,0,0-.4-.95,1.24,1.24,0,0,0-.9-.4H1.73A1.16,1.16,0,0,0,.8.39a1.29,1.29,0,0,0-.37.91A1.14,1.14,0,0,0,.53,1.78Z"/>
      </g>
    </g>
  </g>
</svg>
