<svg xmlns="http://www.w3.org/2000/svg" width="13.3" height="58.6" viewBox="0 0 13.3 58.6">
  <g id="Calque_2" data-name="Calque 2">
    <g id="Calque_1_-_copie" data-name="Calque 1 - copie">
      <g>
        <path d="M2,11.35a6.37,6.37,0,0,0,4.7,2,6.37,6.37,0,0,0,4.7-2,6.37,6.37,0,0,0,2-4.7,6.37,6.37,0,0,0-2-4.7A6.37,6.37,0,0,0,6.65,0,6.37,6.37,0,0,0,2,2,6.37,6.37,0,0,0,0,6.65,6.37,6.37,0,0,0,2,11.35ZM3.8,3.8A3.88,3.88,0,0,1,6.65,2.6,3.74,3.74,0,0,1,9.46,3.8h0A4,4,0,0,1,10.6,6.65,4,4,0,0,1,9.46,9.49,3.75,3.75,0,0,1,6.65,10.7,3.88,3.88,0,0,1,3.8,9.5,3.88,3.88,0,0,1,2.6,6.65,3.88,3.88,0,0,1,3.8,3.8Z"/>
        <path d="M11.35,47.25a6.37,6.37,0,0,0-4.7-2,6.37,6.37,0,0,0-4.7,2A6.44,6.44,0,0,0,0,52a6.6,6.6,0,0,0,.88,3.3A6.53,6.53,0,0,0,3.3,57.72a6.6,6.6,0,0,0,3.3.88,6.44,6.44,0,0,0,4.75-2,6.64,6.64,0,0,0,0-9.4ZM9.46,54.79A3.75,3.75,0,0,1,6.65,56,3.88,3.88,0,0,1,3.8,54.8a4,4,0,0,1,0-5.7,3.88,3.88,0,0,1,2.85-1.2,3.72,3.72,0,0,1,2.81,1.21,4.11,4.11,0,0,1,0,5.68Z"/>
      </g>
    </g>
  </g>
</svg>
