<svg xmlns="http://www.w3.org/2000/svg" width="56.7" height="83.91" viewBox="0 0 56.7 83.91">
  <g id="Calque_2" data-name="Calque 2">
    <g id="Calque_1_-_copie" data-name="Calque 1 - copie">
      <g>
        <path d="M55.3,53.9H9.2a1.24,1.24,0,0,0-1,.44A1.51,1.51,0,0,0,7.8,55.4V73.7a1.5,1.5,0,0,0,.42,1.06,1.24,1.24,0,0,0,1,.44l.1,0,.1-.05h.34l.2.1h44V81H6.9a1.25,1.25,0,0,0-1,.44A1.5,1.5,0,0,0,5.5,82.5a1.37,1.37,0,0,0,1.4,1.4H55.3a1.36,1.36,0,0,0,1-.4,1.35,1.35,0,0,0,.4-1V73.7a1.37,1.37,0,0,0-1.4-1.4H10.6V56.8H55.3a1.36,1.36,0,0,0,1-.4,1.35,1.35,0,0,0,.4-1,1.51,1.51,0,0,0-.42-1.06A1.24,1.24,0,0,0,55.3,53.9Z"/>
        <path d="M5.92,2.46a1.24,1.24,0,0,0,1,.44H55.3a1.25,1.25,0,0,0,1-.44A1.51,1.51,0,0,0,56.7,1.4,1.37,1.37,0,0,0,55.3,0H6.9a1.36,1.36,0,0,0-1,.4,1.35,1.35,0,0,0-.4,1A1.5,1.5,0,0,0,5.92,2.46Z"/>
        <path d="M1.4,0a1.25,1.25,0,0,0-1,.44A1.5,1.5,0,0,0,0,1.5V82.4a1.5,1.5,0,0,0,.42,1.06,1.29,1.29,0,0,0,2,0A1.51,1.51,0,0,0,2.8,82.4V1.5A1.51,1.51,0,0,0,2.38.44,1.25,1.25,0,0,0,1.4,0Z"/>
      </g>
    </g>
  </g>
</svg>
