<svg xmlns="http://www.w3.org/2000/svg" width="52.7" height="81.1" viewBox="0 0 52.7 81.1">
  <g id="Calque_2" data-name="Calque 2">
    <g id="Calque_1_-_copie" data-name="Calque 1 - copie">
      <g>
        <path d="M52.62,50.91l0-.31a31.53,31.53,0,0,0-7.73-21.37C39.76,23.37,33.51,20.4,26.3,20.4s-13.46,3-18.57,8.88A31.77,31.77,0,0,0,0,50.75,31.77,31.77,0,0,0,7.73,72.22c5.11,5.89,11.35,8.88,18.57,8.88a23.56,23.56,0,0,0,14.55-5,29.65,29.65,0,0,0,9.78-13.53,1.6,1.6,0,0,0-1-1.86,1.17,1.17,0,0,0-1.05,0,1.48,1.48,0,0,0-.75.87,26.31,26.31,0,0,1-8.61,12.07,20.77,20.77,0,0,1-13,4.56c-6.46,0-12-2.72-16.63-8.08A28.93,28.93,0,0,1,2.8,50.75,29,29,0,0,1,9.67,31.37C14.25,26,19.84,23.3,26.3,23.3a20.91,20.91,0,0,1,16,7.46A28.88,28.88,0,0,1,49.6,48.87l0,.53H5.6a1.24,1.24,0,0,0-1,.44A1.5,1.5,0,0,0,4.2,50.9a1.38,1.38,0,0,0,1.4,1.4H51.2a1.5,1.5,0,0,0,1.06-.42A1.22,1.22,0,0,0,52.7,51Z"/>
        <rect x="33.03" y="-4.48" width="3" height="22.54" rx="1.5" transform="translate(58.96 -18.55) rotate(122.81)"/>
        <rect x="16.36" y="-4.22" width="3" height="22.21" rx="1.5" transform="translate(13.97 -11.86) rotate(57.19)"/>
      </g>
    </g>
  </g>
</svg>
