<svg xmlns="http://www.w3.org/2000/svg" width="52.7" height="60.7" viewBox="0 0 52.7 60.7">
  <g id="Calque_2" data-name="Calque 2">
    <g id="Calque_1_-_copie" data-name="Calque 1 - copie">
      <path d="M52.62,30.51l0-.31A31.53,31.53,0,0,0,44.87,8.83C39.76,3,33.51,0,26.3,0S12.84,3,7.73,8.88A31.77,31.77,0,0,0,0,30.35,31.77,31.77,0,0,0,7.73,51.82c5.11,5.89,11.35,8.88,18.57,8.88a23.56,23.56,0,0,0,14.55-5.05,29.68,29.68,0,0,0,9.78-13.52A1.6,1.6,0,0,0,50.5,41a1.53,1.53,0,0,0-.83-.75,1.21,1.21,0,0,0-1.05,0,1.47,1.47,0,0,0-.75.88,26.42,26.42,0,0,1-8.61,12.07,20.81,20.81,0,0,1-13,4.55c-6.46,0-12-2.72-16.63-8.07A29,29,0,0,1,2.8,30.35,28.93,28.93,0,0,1,9.67,11C14.25,5.62,19.84,2.9,26.3,2.9a20.88,20.88,0,0,1,16,7.47,28.83,28.83,0,0,1,7.28,18.1l0,.53H5.6a1.24,1.24,0,0,0-1,.44A1.5,1.5,0,0,0,4.2,30.5a1.37,1.37,0,0,0,1.4,1.4H51.2a1.5,1.5,0,0,0,1.06-.42,1.22,1.22,0,0,0,.44-.88Z"/>
    </g>
  </g>
</svg>
