<svg xmlns="http://www.w3.org/2000/svg" width="52.7" height="83.31" viewBox="0 0 52.7 83.31">
  <g id="Calque_2" data-name="Calque 2">
    <g id="Calque_1_-_copie" data-name="Calque 1 - copie">
      <g>
        <path d="M52.62,53.12l0-.31a31.53,31.53,0,0,0-7.73-21.37c-5.11-5.86-11.36-8.83-18.57-8.83s-13.46,3-18.57,8.88A31.77,31.77,0,0,0,0,53,31.77,31.77,0,0,0,7.73,74.43c5.11,5.89,11.35,8.88,18.57,8.88a23.56,23.56,0,0,0,14.55-5,29.65,29.65,0,0,0,9.78-13.53,1.6,1.6,0,0,0-1-1.86,1.17,1.17,0,0,0-1.05,0,1.48,1.48,0,0,0-.75.87,26.31,26.31,0,0,1-8.61,12.07,20.77,20.77,0,0,1-13,4.56c-6.46,0-12-2.72-16.63-8.08A28.93,28.93,0,0,1,2.8,53,29,29,0,0,1,9.67,33.58c4.58-5.35,10.17-8.07,16.63-8.07a20.91,20.91,0,0,1,16,7.46A28.88,28.88,0,0,1,49.6,51.08l0,.53H5.6a1.24,1.24,0,0,0-1,.44,1.5,1.5,0,0,0-.42,1.06,1.38,1.38,0,0,0,1.4,1.4H51.2a1.5,1.5,0,0,0,1.06-.42,1.22,1.22,0,0,0,.44-.88Z"/>
        <rect x="19.77" y="-6.26" width="3" height="30.31" rx="1.5" transform="translate(17.22 -13.8) rotate(57.19)"/>
      </g>
    </g>
  </g>
</svg>
