<svg xmlns="http://www.w3.org/2000/svg" width="50.5" height="82.8" viewBox="0 0 50.5 82.8">
  <g id="Calque_2" data-name="Calque 2">
    <g id="Calque_1_-_copie" data-name="Calque 1 - copie">
      <g>
        <path d="M46.64,49.59a21.51,21.51,0,0,0-10.12-7.72l-1.22-.46,1.22-.48a22.33,22.33,0,0,0,10.13-7.77A19.87,19.87,0,0,0,50.5,21.3a20.14,20.14,0,0,0-3-10.69,21.75,21.75,0,0,0-8.21-7.77A23.43,23.43,0,0,0,27.9,0a1.26,1.26,0,0,0-.9.4,1.29,1.29,0,0,0-.4,1,1.1,1.1,0,0,0,.39.88,1.29,1.29,0,0,0,.91.37A20,20,0,0,1,42,8.09,17.53,17.53,0,0,1,47.9,21.3,17.41,17.41,0,0,1,42,34.47,20.12,20.12,0,0,1,27.9,39.9a1.25,1.25,0,0,0-.64.17,1.64,1.64,0,0,0-.49.49,1.38,1.38,0,0,0-.17.53l.21.41-.2.19a1.14,1.14,0,0,0,.38.74,1.29,1.29,0,0,0,.91.37,20.69,20.69,0,0,1,7.79,1.49,20.12,20.12,0,0,1,6.35,4,19.15,19.15,0,0,1,4.26,6,17.15,17.15,0,0,1,1.6,7.26A17.41,17.41,0,0,1,42,74.67,20.12,20.12,0,0,1,27.9,80.1a1.26,1.26,0,0,0-.9.4,1.33,1.33,0,0,0,0,1.9,1.24,1.24,0,0,0,.9.4,22.55,22.55,0,0,0,16-6.26,20.39,20.39,0,0,0,2.73-26.95Z"/>
        <path d="M23.9,80.86V77.5a.7.7,0,0,0-.12-.42l-.18-.28.18-.28a.7.7,0,0,0,.12-.42,1.37,1.37,0,0,0-1.3-1.3,14.33,14.33,0,0,1-10.14-3.89A12.47,12.47,0,0,1,8.3,61.5a1.16,1.16,0,0,0-.39-.93,1.42,1.42,0,0,0-1.92,0,1.16,1.16,0,0,0-.39.93A14.81,14.81,0,0,0,10,72.1a16.69,16.69,0,0,0,10.79,5.1l.45,0v2.81l-.55,0A20.22,20.22,0,0,1,7.84,74,17.24,17.24,0,0,1,2.6,61.5,17.56,17.56,0,0,1,8.46,48.28,20.05,20.05,0,0,1,22.6,42.8a1.29,1.29,0,0,0,.91-.37,1.16,1.16,0,0,0,.38-.73l-.09-.09,0-.45L23.74,41l.16-.32v-4a2.06,2.06,0,0,0-.08-.24l0-.28.05-.2a.32.32,0,0,0,0-.12,1.24,1.24,0,0,0-.4-.86,1.26,1.26,0,0,0-.9-.4,14.33,14.33,0,0,1-10.14-3.89A12.47,12.47,0,0,1,8.3,21.3a12.47,12.47,0,0,1,4.16-9.41A14.33,14.33,0,0,1,22.6,8a1.24,1.24,0,0,0,.9-.4,1.26,1.26,0,0,0,.4-.9V2.6a1.22,1.22,0,0,0-.15-.48l-.13-.26.16-.24a.58.58,0,0,0,.12-.32,1.17,1.17,0,0,0-.18-.64,1.37,1.37,0,0,0-.51-.47A1.25,1.25,0,0,0,22.6,0a22.55,22.55,0,0,0-16,6.26A20.09,20.09,0,0,0,0,21.3,19.87,19.87,0,0,0,3.85,33.16,22.33,22.33,0,0,0,14,40.93l1.2.47-1.2.47A23.15,23.15,0,0,0,8.35,45,21.56,21.56,0,0,0,3.9,49.5,20.4,20.4,0,0,0,1,55.11,20.16,20.16,0,0,0,0,61.5a19.94,19.94,0,0,0,6.59,15,22.64,22.64,0,0,0,16,6.21,1.29,1.29,0,0,0,.91-.37,1.15,1.15,0,0,0,.39-.82l-.16-.31.11-.22A.32.32,0,0,0,23.9,80.86ZM7.84,33.8A17.3,17.3,0,0,1,2.6,21.25,17.3,17.3,0,0,1,7.84,8.7,19.81,19.81,0,0,1,20.66,2.8l.54,0V5.45l-.45,0A17.1,17.1,0,0,0,10,10.7a15.07,15.07,0,0,0,0,21.2,17.1,17.1,0,0,0,10.79,5.2l.45,0v2.59l-.54,0A19.79,19.79,0,0,1,7.84,33.8Z"/>
      </g>
    </g>
  </g>
</svg>
