<svg xmlns="http://www.w3.org/2000/svg" viewBox="0 0 2.6 82.9"><g id="Calque_2" data-name="Calque 2"><g id="Calque_1_-_copie" data-name="Calque 1 - copie"><path d="M0,61.1a1.31,1.31,0,0,0,.35.95,1.37,1.37,0,0,0,1.86,0,1.16,1.16,0,0,0,.39-.93V1.3A1.25,1.25,0,0,0,2.43.66a1.8,1.8,0,0,0-.5-.49A1.19,1.19,0,0,0,1.3,0,1.16,1.16,0,0,0,.37.39,1.29,1.29,0,0,0,0,1.3Z"/><path d="M1.93,69.67a1.19,1.19,0,0,0-.63-.17,1.31,1.31,0,0,0-.95.35,1.31,1.31,0,0,0-.35,1V81.6a1.29,1.29,0,0,0,.37.91,1.15,1.15,0,0,0,.93.39,1.19,1.19,0,0,0,.63-.17,1.49,1.49,0,0,0,.5-.5,1.19,1.19,0,0,0,.17-.63V70.8a1.25,1.25,0,0,0-.17-.64A1.8,1.8,0,0,0,1.93,69.67Z"/></g></g></svg>