<svg xmlns="http://www.w3.org/2000/svg" width="56.2" height="83.9" viewBox="0 0 56.2 83.9">
  <g id="Calque_2" data-name="Calque 2">
    <g id="Calque_1_-_copie" data-name="Calque 1 - copie">
      <g>
        <path d="M56.2,54.1V46.8a1.37,1.37,0,0,0-1.4-1.4H8.7a1.5,1.5,0,0,0-1.06.42,1.25,1.25,0,0,0-.44,1,1.54,1.54,0,0,0,1.5,1.5H53.3v5.6H8.7a1.46,1.46,0,0,0-1,.45,1.51,1.51,0,0,0-.45.95l.1.09v.21a.69.69,0,0,1-.1.38V81H2.8V1.5A1.51,1.51,0,0,0,2.38.44,1.25,1.25,0,0,0,1.4,0a1.25,1.25,0,0,0-1,.44A1.5,1.5,0,0,0,0,1.5V82.4a1.43,1.43,0,0,0,.4,1.1,1.35,1.35,0,0,0,1,.4H8.7a1.37,1.37,0,0,0,1.4-1.4v-.06a.62.62,0,0,1-.1-.34l0-.16.07-.22V56.8H54.8a1.36,1.36,0,0,0,1-.4,1.35,1.35,0,0,0,.4-1,2.42,2.42,0,0,0-.09-.58l0-.14,0-.14A1.41,1.41,0,0,0,56.2,54.1Z"/>
        <path d="M6,2.13a2,2,0,0,0,.53.57,1.16,1.16,0,0,0,.7.2H54.8a1.25,1.25,0,0,0,1-.44A1.51,1.51,0,0,0,56.2,1.4,1.4,1.4,0,0,0,56,.69a1.21,1.21,0,0,0-.5-.5A1.4,1.4,0,0,0,54.8,0H7.2A1.37,1.37,0,0,0,5.8,1.4,1.41,1.41,0,0,0,6,2.13Z"/>
      </g>
    </g>
  </g>
</svg>
