<svg xmlns="http://www.w3.org/2000/svg" width="26.6" height="82.11" viewBox="0 0 26.6 82.11">
  <g id="Calque_2" data-name="Calque 2">
    <g id="Calque_1_-_copie" data-name="Calque 1 - copie">
      <g>
        <path d="M26.38,23.93a1.63,1.63,0,0,0-.57-.54,1.4,1.4,0,0,0-.71-.19H1.4a1.34,1.34,0,0,0-1,.41,1.33,1.33,0,0,0-.4,1A1.37,1.37,0,0,0,1.4,26h9.4l.09,1A1.26,1.26,0,0,0,9.7,28.4V80.7a1.24,1.24,0,0,0,.44,1,1.48,1.48,0,0,0,2.06,0,1.35,1.35,0,0,0,.4-1V28.4A1.26,1.26,0,0,0,11.41,27l.09-1H25.1a1.47,1.47,0,0,0,1.06-.42,1.25,1.25,0,0,0,.44-1A1.16,1.16,0,0,0,26.38,23.93Z"/>
        <path d="M24.48,1a19.92,19.92,0,0,0-5.8-1,9,9,0,0,0-5.77,1.8A9.42,9.42,0,0,0,10,6.36a15.86,15.86,0,0,0-.83,5.77c.1,1.89.15,3.8.15,5.67.13,1.25.2,2.09.2,2.5a1.35,1.35,0,0,0,.4,1,1.44,1.44,0,0,0,2,0,1.35,1.35,0,0,0,.4-1c0-.44,0-1.32-.1-2.67-.07-1.54-.13-3.11-.2-4.71a18.19,18.19,0,0,1,.51-5A6.53,6.53,0,0,1,14.8,4c1.81-1.44,4.7-1.54,8.85-.28a1.52,1.52,0,0,0,1.09-.12,1.17,1.17,0,0,0,.68-.82,1.62,1.62,0,0,0-.12-1.15A1.17,1.17,0,0,0,24.48,1Z"/>
      </g>
    </g>
  </g>
</svg>
