<svg xmlns="http://www.w3.org/2000/svg" width="47.1" height="75.1" viewBox="0 0 47.1 75.1">
  <g id="Calque_2" data-name="Calque 2">
    <g id="Calque_1_-_copie" data-name="Calque 1 - copie">
      <g>
        <path d="M7.29,2.33a1.29,1.29,0,0,0,.91.37h34V8.2h-15a1.31,1.31,0,0,0-.95.35,1.2,1.2,0,0,0-.35.9,1.34,1.34,0,0,0,.37,1,1.15,1.15,0,0,0,.93.39H43.5a1.26,1.26,0,0,0,.9-.4,1.24,1.24,0,0,0,.4-.9V1.3a1.26,1.26,0,0,0-.4-.9,1.26,1.26,0,0,0-.9-.4A2.38,2.38,0,0,0,43,.08L42.9.1H8.2a1.26,1.26,0,0,0-.9.4,1.3,1.3,0,0,0-.4,1A1.1,1.1,0,0,0,7.29,2.33Z"/>
        <path d="M42.29,65.51A28,28,0,0,0,46.22,57a1.22,1.22,0,0,0-.11-1,1.18,1.18,0,0,0-.79-.61,1.24,1.24,0,0,0-1,.15,1.37,1.37,0,0,0-.63.81A22.65,22.65,0,0,1,38,66.5a19.22,19.22,0,0,1-8.37,5.18A24,24,0,0,1,8.29,67.34,14.17,14.17,0,0,1,2.6,56.62a1.12,1.12,0,0,0-.42-.94,1.53,1.53,0,0,0-1-.38,3,3,0,0,0-.64.27A1.17,1.17,0,0,0,.15,56,1.48,1.48,0,0,0,0,56.7,16.38,16.38,0,0,0,6.32,69.11,26.07,26.07,0,0,0,20.26,75c.88.07,1.84.1,2.84.1A26,26,0,0,0,30,74.17a23.92,23.92,0,0,0,6.56-3A21,21,0,0,0,42.29,65.51Z"/>
        <path d="M44.7,40.67a26,26,0,0,0-9.86-11.14,21.51,21.51,0,0,0-4.74-2.15,26.32,26.32,0,0,0-6-1,17.65,17.65,0,0,0-7.72,1.46,31.46,31.46,0,0,0-8.61,5.47,1,1,0,0,0-.48.8,1.45,1.45,0,0,0,.3,1,1.06,1.06,0,0,0,.83.45,1.32,1.32,0,0,0,1-.33c8.34-7.06,16.45-8.25,24.08-3.55a23.8,23.8,0,0,1,6.45,6.19,25.56,25.56,0,0,1,3.87,7.65,12.75,12.75,0,0,1,.4,6.72,1.11,1.11,0,0,0,.15,1,1.38,1.38,0,0,0,.74.61h.43a1.06,1.06,0,0,0,1.21-.91C47.61,49.47,46.94,45.37,44.7,40.67Z"/>
        <path d="M2.65,37.5a1.2,1.2,0,0,0,.79.5H3.7A1.18,1.18,0,0,0,5,36.9L9.71,7.72a1.12,1.12,0,0,0-.17-1,1.16,1.16,0,0,0-.86-.53,1.27,1.27,0,0,0-1,.25,1.24,1.24,0,0,0-.51.82L2.39,36.48A1.4,1.4,0,0,0,2.65,37.5Z"/>
      </g>
    </g>
  </g>
</svg>
