<svg xmlns="http://www.w3.org/2000/svg" width="40.69" height="82.8" viewBox="0 0 40.69 82.8">
  <g id="Calque_2" data-name="Calque 2">
    <g id="Calque_1_-_copie" data-name="Calque 1 - copie">
      <path d="M40.69,1.3a1.26,1.26,0,0,0-.4-.9,1.24,1.24,0,0,0-.9-.4,1.11,1.11,0,0,0-1.06.64L38.19.9h-.3L.21,57.08a1.43,1.43,0,0,0-.18,1A1.65,1.65,0,0,0,.61,59a1,1,0,0,0,.52.18.68.68,0,0,1,.68,0H31.69a1.15,1.15,0,0,0,.93-.39,1.42,1.42,0,0,0,.37-1V52.1a1.27,1.27,0,0,0-.35-1,1.31,1.31,0,0,0-.95-.35H20.79a1.19,1.19,0,0,0-.63.17,1.53,1.53,0,0,0-.49.49,1.17,1.17,0,0,0-.18.64,1.24,1.24,0,0,0,.4.9,1.26,1.26,0,0,0,.9.4h9.6v3.2H3.75L38.09,5.36V81.5a1.31,1.31,0,0,0,.35,1,1.38,1.38,0,0,0,1.87,0,1.19,1.19,0,0,0,.38-.93Z"/>
    </g>
  </g>
</svg>
