<svg xmlns="http://www.w3.org/2000/svg" width="69.16" height="81.2" viewBox="0 0 69.16 81.2">
  <g id="Calque_2" data-name="Calque 2">
    <g id="Calque_1_-_copie" data-name="Calque 1 - copie">
      <g>
        <path d="M69.11,55.49a1.22,1.22,0,0,0-.17-1.06,1.62,1.62,0,0,0-.82-.63H40.6a1.37,1.37,0,0,0-1.4,1.4v7.2a1.37,1.37,0,0,0,1.4,1.4H58a1.35,1.35,0,0,0,1-.4,1.36,1.36,0,0,0,.4-1A1.51,1.51,0,0,0,59,61.34a1.24,1.24,0,0,0-1-.44H42V56.6H65.77l-.19.64c-2,6.67-5.36,11.93-10.12,15.61S44.78,78.4,37.9,78.4a1.37,1.37,0,0,0-1.4,1.4,1.37,1.37,0,0,0,1.4,1.4c7.91,0,14.72-2.28,20.23-6.79S67.35,63.54,69.11,55.49Z"/>
        <path d="M36.92,2.46a1.24,1.24,0,0,0,1,.44A25.43,25.43,0,0,1,54.06,8.81a35.44,35.44,0,0,1,11,15.82,1.31,1.31,0,0,0,1.33,1,.7.7,0,0,0,.42-.12l.16-.06a1,1,0,0,0,.42-.22,1.29,1.29,0,0,0,.29-.45,2,2,0,0,0,.16-.61.42.42,0,0,0-.07-.36l0-.11A38.07,38.07,0,0,0,55.64,6.39,28.16,28.16,0,0,0,37.9,0a1.37,1.37,0,0,0-1.4,1.4A1.5,1.5,0,0,0,36.92,2.46Z"/>
        <path d="M32.9,0A27.71,27.71,0,0,0,16.44,5.41a37.88,37.88,0,0,0-12,14.8A47.44,47.44,0,0,0,0,40.65,47.12,47.12,0,0,0,4.45,61a37.86,37.86,0,0,0,12,14.75A27.71,27.71,0,0,0,32.9,81.2a1.4,1.4,0,1,0,0-2.8,25,25,0,0,1-15.1-5.1A34.7,34.7,0,0,1,6.9,59.51a44.81,44.81,0,0,1-4-18.91,44.48,44.48,0,0,1,4-18.86A34.81,34.81,0,0,1,17.8,8,25.08,25.08,0,0,1,32.9,2.9a1.24,1.24,0,0,0,1-.44A1.51,1.51,0,0,0,34.3,1.4,1.37,1.37,0,0,0,32.9,0Z"/>
      </g>
    </g>
  </g>
</svg>
