<svg xmlns="http://www.w3.org/2000/svg" width="60.7" height="84.91" viewBox="0 0 60.7 84.91">
  <g id="Calque_2" data-name="Calque 2">
    <g id="Calque_1_-_copie" data-name="Calque 1 - copie">
      <path d="M60.28,84.46a1.51,1.51,0,0,0,.42-1.06V2.5a1.51,1.51,0,0,0-.42-1.06,1.31,1.31,0,0,0-2,0A1.5,1.5,0,0,0,57.9,2.5V82H54.1V58a1.24,1.24,0,0,0-.44-1,1.51,1.51,0,0,0-1.06-.42H8.9A1.37,1.37,0,0,0,7.5,58V82H2.9V2.9H7.5V45.7a1.37,1.37,0,0,0,1.4,1.4H52.6a1.5,1.5,0,0,0,1.06-.42,1.25,1.25,0,0,0,.44-1,1.54,1.54,0,0,0-1.5-1.5H10.3V2.5a1.07,1.07,0,0,0-.08-.34l0-.14,0-.14a2.25,2.25,0,0,0,.09-.48A1.37,1.37,0,0,0,8.9,0H1.4A1.36,1.36,0,0,0,.4.4a1.35,1.35,0,0,0-.4,1,1.19,1.19,0,0,0,.07.34l0,.14L.08,2A2.62,2.62,0,0,0,0,2.5V83.4a1.5,1.5,0,0,0,.42,1.06,1.24,1.24,0,0,0,1,.44H8.9a1.25,1.25,0,0,0,1-.44,1.51,1.51,0,0,0,.42-1.06V59.5H51.2V83.4a1.5,1.5,0,0,0,.42,1.06,1.24,1.24,0,0,0,1,.44h5.2a.7.7,0,0,0,.42-.12l.24-.16.27.13A1.22,1.22,0,0,0,60.28,84.46Z"/>
    </g>
  </g>
</svg>
