<svg xmlns="http://www.w3.org/2000/svg" width="43.1" height="77.01" viewBox="0 0 43.1 77.01">
  <g id="Calque_2" data-name="Calque 2">
    <g id="Calque_1_-_copie" data-name="Calque 1 - copie">
      <g>
        <path d="M42.68,76.56a1.51,1.51,0,0,0,.42-1.06v-37a1.51,1.51,0,0,0-.42-1.06,1.24,1.24,0,0,0-1-.44,1.25,1.25,0,0,0-1,.44h0a1.51,1.51,0,0,0-.42,1.06v37a1.5,1.5,0,0,0,.42,1.06A1.29,1.29,0,0,0,42.68,76.56Z"/>
        <path d="M7.34,33.2a16.11,16.11,0,0,1,6.57-6.49A19.16,19.16,0,0,1,23.3,24.3a19,19,0,0,1,9.85,2.62,15.86,15.86,0,0,1,6.5,7.17A1.33,1.33,0,0,0,41,34.9a.77.77,0,0,0,.42-.11l.1-.06a1.15,1.15,0,0,0,.76-.74,1.51,1.51,0,0,0,0-1.09,18.48,18.48,0,0,0-7.45-8.37A21.71,21.71,0,0,0,23.3,21.4a21.84,21.84,0,0,0-10.9,2.84,18.72,18.72,0,0,0-7.56,7.59,1.68,1.68,0,0,0-.06,1.09,1.35,1.35,0,0,0,.67.85,1.31,1.31,0,0,0,1.1.1A1.13,1.13,0,0,0,7.34,33.2Z"/>
        <path d="M1.4,0A1.36,1.36,0,0,0,.4.4h0a1.36,1.36,0,0,0-.4,1V75.5a1.35,1.35,0,0,0,.4,1,1.44,1.44,0,0,0,2,0,1.35,1.35,0,0,0,.4-1V1.4A1.37,1.37,0,0,0,1.4,0Z"/>
      </g>
    </g>
  </g>
</svg>
