<svg xmlns="http://www.w3.org/2000/svg" width="10.3" height="82.8" viewBox="0 0 10.3 82.8">
  <g id="Calque_2" data-name="Calque 2">
    <g id="Calque_1_-_copie" data-name="Calque 1 - copie">
      <path d="M10.3,8.9a1.34,1.34,0,0,0-.4-1,1.49,1.49,0,0,0-2.06,0,1.27,1.27,0,0,0-.44,1v71H2.8V1.5A1.53,1.53,0,0,0,2.38.44a1.31,1.31,0,0,0-2,0A1.53,1.53,0,0,0,0,1.5V81.4a1.33,1.33,0,0,0,.4,1,1.35,1.35,0,0,0,1,.4,1.82,1.82,0,0,0,.48-.08l.14,0,.14,0a1.19,1.19,0,0,0,.34.07H8.9a1.36,1.36,0,0,0,1-.4,1.35,1.35,0,0,0,.4-1Z"/>
    </g>
  </g>
</svg>
