<svg xmlns="http://www.w3.org/2000/svg" width="2.8" height="79.21" viewBox="0 0 2.8 79.21">
  <g id="Calque_2" data-name="Calque 2">
    <g id="Calque_1_-_copie" data-name="Calque 1 - copie">
      <g>
        <path d="M2.38,78.76A1.51,1.51,0,0,0,2.8,77.7V24.6a1.37,1.37,0,0,0-1.4-1.4,1.35,1.35,0,0,0-1,.4h0a1.36,1.36,0,0,0-.4,1V77.7a1.5,1.5,0,0,0,.42,1.06A1.29,1.29,0,0,0,2.38,78.76Z"/>
        <path d="M2.8,1.5A1.51,1.51,0,0,0,2.38.44,1.25,1.25,0,0,0,1.4,0a1.25,1.25,0,0,0-1,.44A1.5,1.5,0,0,0,0,1.5v8.6a1.35,1.35,0,0,0,.4,1,1.44,1.44,0,0,0,2,0,1.36,1.36,0,0,0,.4-1Z"/>
      </g>
    </g>
  </g>
</svg>
