<svg xmlns="http://www.w3.org/2000/svg" width="39.94" height="83" viewBox="0 0 39.94 83">
  <g id="Calque_2" data-name="Calque 2">
    <g id="Calque_1_-_copie" data-name="Calque 1 - copie">
      <g>
        <path d="M37,73.3a22.89,22.89,0,0,0,3-11.41,1.5,1.5,0,0,0-.41-1,1.38,1.38,0,0,0-2.39,1,20.22,20.22,0,0,1-2.56,9.9,16.25,16.25,0,0,1-7,6.5,18.8,18.8,0,0,1-9.76,1.85A17.15,17.15,0,0,1,8.75,76.9C4.08,73.54,2.19,68.53,3.15,62V61.7A1.57,1.57,0,0,1,4,60.19a2.4,2.4,0,0,1,2.42-.34l.27.14v.41c-.71,4.85.69,8.46,4.3,11.1a13.48,13.48,0,0,0,8.3,2.6,14.27,14.27,0,0,0,6.58-1.54,12,12,0,0,0,3.8-2.84,13.09,13.09,0,0,0,2.46-4,13.67,13.67,0,0,0,.86-4.87,1.5,1.5,0,0,0-.41-1.06,1.27,1.27,0,0,0-1-.44h-.12a.78.78,0,0,0-.86.25A2.13,2.13,0,0,0,30,60.75C30,65.09,28.13,68.23,24.57,70a12.72,12.72,0,0,1-6.21,1.16,10.5,10.5,0,0,1-5.71-2C10,67.3,9,64.55,9.45,61l0-.12a1.92,1.92,0,0,0,.16-.71,3.34,3.34,0,0,0-2-3,4.85,4.85,0,0,0-5.29.65,4,4,0,0,0-2,3.6v.21l-.12.12a19.86,19.86,0,0,0,1,9.94A16.24,16.24,0,0,0,7,79.19,20,20,0,0,0,19.14,83a21.66,21.66,0,0,0,9.78-2.25A18.63,18.63,0,0,0,37,73.3Z"/>
        <path d="M38.44,0a1.25,1.25,0,0,0-1,.44A1.5,1.5,0,0,0,37,1.5V55.8a1.36,1.36,0,0,0,.41,1,1.42,1.42,0,0,0,2,0,1.36,1.36,0,0,0,.4-1V1.5A1.5,1.5,0,0,0,39.43.44,1.27,1.27,0,0,0,38.44,0Z"/>
      </g>
    </g>
  </g>
</svg>
