<svg xmlns="http://www.w3.org/2000/svg" width="16.7" height="112.2" viewBox="0 0 16.7 112.2">
  <g id="Calque_2" data-name="Calque 2">
    <g id="Calque_1_-_copie" data-name="Calque 1 - copie">
      <g>
        <path d="M11.94,106.24a34.77,34.77,0,0,0,2.31-6.71,77,77,0,0,0,1.49-9.13c.4-3.59.66-7.17.8-10.62s.18-7.59.15-12.33-.1-9.19-.2-13.09-.25-8.63-.45-14c-.33-7.74-.5-13-.5-15.62a1.72,1.72,0,0,0-.43-1.13,1.27,1.27,0,0,0-2,0,1.59,1.59,0,0,0-.46,1.11c0,2.67.17,8,.5,15.78q.3,7.91.45,12.55c.1,3.08.18,7.5.25,13.16s0,10.4-.2,14.09-.52,7.65-1,11.82a44.47,44.47,0,0,1-2.08,10.22A12.7,12.7,0,0,1,7.05,108a4.79,4.79,0,0,1-5.1.47,1.4,1.4,0,0,0-.48-.09,1.13,1.13,0,0,0-.58.16,1.68,1.68,0,0,0-.78,1,1.53,1.53,0,0,0,0,1.22,1.49,1.49,0,0,0,.79.84,9,9,0,0,0,3.3.66,6.49,6.49,0,0,0,4.37-1.58A11.57,11.57,0,0,0,11.94,106.24Z"/>
        <path d="M11.54,10.1a1.24,1.24,0,0,0,.44,1,1.47,1.47,0,0,0,2,0,1.34,1.34,0,0,0,.41-1V1.5A1.51,1.51,0,0,0,14,.44,1.25,1.25,0,0,0,13,0a1.46,1.46,0,0,0-1,.45,1.46,1.46,0,0,0-.45,1.05Z"/>
      </g>
    </g>
  </g>
</svg>
