<svg xmlns="http://www.w3.org/2000/svg" width="53.99" height="86.7" viewBox="0 0 53.99 86.7">
  <g id="Calque_2" data-name="Calque 2">
    <g id="Calque_1_-_copie" data-name="Calque 1 - copie">
      <path d="M53.78,81.17,21.16,34.84l-.58-.29.47-.51,31.8-30.7a1.11,1.11,0,0,0,.45-.94,1.51,1.51,0,0,0-.42-1.06,1.48,1.48,0,0,0-2.06-.06L8.65,42a1.61,1.61,0,0,0-.35,1v.5H8.2V81.1a2.39,2.39,0,0,1-1.39,2.36A2.84,2.84,0,0,1,3.6,83.3a1.72,1.72,0,0,1-.7-1.85,2.54,2.54,0,0,0-.09-.53V1.5A1.51,1.51,0,0,0,2.38.44,1.25,1.25,0,0,0,1.4,0a1.25,1.25,0,0,0-1,.44A1.5,1.5,0,0,0,0,1.5V82.4a1.41,1.41,0,0,0,.15.67,4.45,4.45,0,0,0,1.74,2.52A5.68,5.68,0,0,0,5.4,86.7a5.59,5.59,0,0,0,2.66-.64,4.23,4.23,0,0,0,1.42-1,6,6,0,0,0,1-1.38l.12-.16a1.39,1.39,0,0,0,.53-1.12V43.59l7.57-7.25L51.41,82.81a1.39,1.39,0,0,0,1.19.59,1.52,1.52,0,0,0,.84-.23,1.61,1.61,0,0,0,.52-.92A1.59,1.59,0,0,0,53.78,81.17Z"/>
    </g>
  </g>
</svg>
