<svg xmlns="http://www.w3.org/2000/svg" width="41.27" height="85.3" viewBox="0 0 41.27 85.3">
  <g id="Calque_2" data-name="Calque 2">
    <g id="Calque_1_-_copie" data-name="Calque 1 - copie">
      <g>
        <path d="M1.4,0a1.24,1.24,0,0,0-1,.44h0A1.5,1.5,0,0,0,0,1.5V83.9a1.35,1.35,0,0,0,.4,1,1.44,1.44,0,0,0,2,0,1.36,1.36,0,0,0,.4-1V1.5A1.51,1.51,0,0,0,2.38.44,1.24,1.24,0,0,0,1.4,0Z"/>
        <path d="M38.6,25.3a1.54,1.54,0,0,0-1.5-1.5,1.11,1.11,0,0,0-.92.42L5.45,54.85a1.66,1.66,0,0,0-.35,1,1.35,1.35,0,0,0,.4,1,1.57,1.57,0,0,0,2.08,0L38.15,26.25A1.14,1.14,0,0,0,38.6,25.3Z"/>
        <path d="M41.21,84a1.17,1.17,0,0,0-.13-1v0L20.58,50a1.38,1.38,0,0,0-.9-.68,1.59,1.59,0,0,0-.36,0,1.18,1.18,0,0,0-.69.22,1.61,1.61,0,0,0-.65.92,1.35,1.35,0,0,0,.15,1.07l20.49,33a1.22,1.22,0,0,0,1.18.66,1.45,1.45,0,0,0,.74-.23A1.32,1.32,0,0,0,41.21,84Z"/>
      </g>
    </g>
  </g>
</svg>
