<svg xmlns="http://www.w3.org/2000/svg" width="48" height="83.8" viewBox="0 0 48 83.8">
  <g id="Calque_2" data-name="Calque 2">
    <g id="Calque_1_-_copie" data-name="Calque 1 - copie">
      <path d="M48,74.5a1.4,1.4,0,0,0-.19-.71,1.55,1.55,0,0,0-.54-.57A1.16,1.16,0,0,0,46.6,73H9.2a1.54,1.54,0,0,0-1.5,1.5,1.25,1.25,0,0,0,.44,1,1.51,1.51,0,0,0,1.06.42H45.1v5H2.8V1.5A1.51,1.51,0,0,0,2.38.44,1.25,1.25,0,0,0,1.4,0a1.25,1.25,0,0,0-1,.44A1.5,1.5,0,0,0,0,1.5V82.4a1.37,1.37,0,0,0,1.4,1.4H46.6A1.37,1.37,0,0,0,48,82.4Z"/>
    </g>
  </g>
</svg>
