<svg xmlns="http://www.w3.org/2000/svg" width="34.61" height="99.07" viewBox="0 0 34.61 99.07">
  <g id="Calque_2" data-name="Calque 2">
    <g id="Calque_1_-_copie" data-name="Calque 1 - copie">
      <path d="M34.33,97a1.13,1.13,0,0,0-.45-.42,1.53,1.53,0,0,0-.66-.14,7.36,7.36,0,0,1-3.85-.81,9.29,9.29,0,0,1-2.91-2.43,17.88,17.88,0,0,1-2.32-4.33,56.74,56.74,0,0,1-1.87-5.45c-.5-1.78-1.09-4.09-1.75-6.87s-1.22-4.86-1.65-6.38S17.8,66.68,17,64.28a33.43,33.43,0,0,0-2.51-5.81,29.89,29.89,0,0,0-3.3-4.58A16.82,16.82,0,0,0,6.85,50.2l-.73-.43.73-.43a12.87,12.87,0,0,0,3.46-3.13A19.32,19.32,0,0,0,13,41c.79-2.13,1.42-4,1.89-5.56s1-3.79,1.69-6.63q.79-3.3,1.25-5c.31-1.15.76-2.74,1.36-4.72A35.4,35.4,0,0,1,21,14.35c.54-1.14,1.24-2.48,2.07-4a15.27,15.27,0,0,1,2.64-3.61,19.79,19.79,0,0,1,3.23-2.47,14,14,0,0,1,4.2-1.71,1.38,1.38,0,0,0,.8-.59,1.26,1.26,0,0,0,.18-1,1.22,1.22,0,0,0-.58-.83,1.11,1.11,0,0,0-1-.14A17.07,17.07,0,0,0,27.81,1.9a20.73,20.73,0,0,0-3.76,2.73,16.9,16.9,0,0,0-3,3.89c-.95,1.64-1.74,3.09-2.33,4.32a37.25,37.25,0,0,0-1.88,5c-.65,2.14-1.14,3.84-1.44,5.08s-.75,3-1.35,5.35c-.67,2.8-1.26,5.1-1.75,6.82a56.9,56.9,0,0,1-1.87,5.39,16.22,16.22,0,0,1-2.33,4.28A10.09,10.09,0,0,1,5.25,47.2a7.74,7.74,0,0,1-3.84,1l-.24,0a1.09,1.09,0,0,0-.78.29,1.17,1.17,0,0,0-.38.93c-.06.83.25,1.2,1.06,1.3l.12,0,.09.06a1.11,1.11,0,0,0,.22.13,13.93,13.93,0,0,1,4.12,1.71A22.24,22.24,0,0,1,8.9,55.05a14.61,14.61,0,0,1,2.69,3.62c.84,1.52,1.52,2.86,2,4a40.87,40.87,0,0,1,1.67,4.75c.6,2,1,3.57,1.36,4.72s.72,2.8,1.25,5l1.2,4.8c.26,1,.69,2.51,1.29,4.36A37.81,37.81,0,0,0,22,90.56,34.7,34.7,0,0,0,23.83,94a10.48,10.48,0,0,0,2.38,2.81,11.91,11.91,0,0,0,2.93,1.63,9.57,9.57,0,0,0,3.57.67h.6a1.13,1.13,0,0,0,.91-.42,1.49,1.49,0,0,0,.39-1A2.84,2.84,0,0,0,34.33,97Z"/>
    </g>
  </g>
</svg>
