<svg xmlns="http://www.w3.org/2000/svg" width="30.1" height="109.2" viewBox="0 0 30.1 109.2">
  <g id="Calque_2" data-name="Calque 2">
    <g id="Calque_1_-_copie" data-name="Calque 1 - copie">
      <path d="M29.75,107a1.31,1.31,0,0,0-.95-.35c-4.8,0-9.27-2.38-13.28-7.07s-7.14-11-9.45-18.94a93.19,93.19,0,0,1-3.47-26,93.19,93.19,0,0,1,3.47-26c2.31-7.93,5.49-14.3,9.45-18.94S24,2.6,28.8,2.6a1.16,1.16,0,0,0,.93-.39,1.36,1.36,0,0,0,.37-1,1.25,1.25,0,0,0-.35-.9A1.31,1.31,0,0,0,28.8,0,17.77,17.77,0,0,0,17.61,4.19,36.25,36.25,0,0,0,8.44,15.64,68.92,68.92,0,0,0,2.29,33.06,98.45,98.45,0,0,0,0,54.6,95.22,95.22,0,0,0,3.83,82.3c2.53,8.32,6.06,15,10.49,19.76s9.25,7.14,14.48,7.14a1.19,1.19,0,0,0,.93-.39,1.36,1.36,0,0,0,.37-1A1.21,1.21,0,0,0,29.75,107Z"/>
    </g>
  </g>
</svg>
