<svg xmlns="http://www.w3.org/2000/svg" width="78.2" height="83.91" viewBox="0 0 78.2 83.91">
  <g id="Calque_2" data-name="Calque 2">
    <g id="Calque_1_-_copie" data-name="Calque 1 - copie">
      <path d="M78.2,1.5A1.53,1.53,0,0,0,77.78.44a1.31,1.31,0,0,0-2,0A1.53,1.53,0,0,0,75.4,1.5V81H69.2V1.5a1.43,1.43,0,0,0-.45-1,1.43,1.43,0,0,0-1-.46l-.24.08-.13,0-.12,0A1.3,1.3,0,0,0,65.56,1L34.4,79,2.74.89A1.31,1.31,0,0,0,1.4,0C.7,0,.29.35.08,1.13A1.36,1.36,0,0,0,0,1.5V82.4a1.54,1.54,0,0,0,.42,1.07,1.31,1.31,0,0,0,2,0A1.54,1.54,0,0,0,2.8,82.4V8.85l30.06,74a1.3,1.3,0,0,0,1.34.88h.5A1.3,1.3,0,0,0,36,82.81L66.3,6.9V82.4a1.37,1.37,0,0,0,1.4,1.4,2.54,2.54,0,0,0,.38-.08l.12,0,.12,0a2.34,2.34,0,0,0,.39.08H75.8a2.54,2.54,0,0,0,.38-.08l.12,0,.12,0a2.34,2.34,0,0,0,.39.08,1.37,1.37,0,0,0,1.39-1.4Z"/>
    </g>
  </g>
</svg>
