<svg xmlns="http://www.w3.org/2000/svg" width="74.9" height="62.91" viewBox="0 0 74.9 62.91">
  <g id="Calque_2" data-name="Calque 2">
    <g id="Calque_1_-_copie" data-name="Calque 1 - copie">
      <g>
        <path d="M74.5,62.5a1.35,1.35,0,0,0,.4-1V21.3a1.53,1.53,0,0,0-.42-1.06,1.28,1.28,0,0,0-1-.44,1.24,1.24,0,0,0-1,.44h0a1.53,1.53,0,0,0-.42,1.06V61.5a1.35,1.35,0,0,0,.4,1A1.44,1.44,0,0,0,74.5,62.5Z"/>
        <path d="M47.28,6.23a16.66,16.66,0,0,1,4.38-2A18,18,0,0,1,56.5,3.6a16.52,16.52,0,0,1,11,3.87A12,12,0,0,1,72.1,16.9,1.5,1.5,0,0,0,72.52,18a1.3,1.3,0,0,0,2,0,1.54,1.54,0,0,0,.42-1.07A14.69,14.69,0,0,0,69.57,5.53,19.13,19.13,0,0,0,56.5.8a20.38,20.38,0,0,0-8.35,1.76,17.61,17.61,0,0,0-6.56,5,1.25,1.25,0,0,0-.29,1,1.44,1.44,0,0,0,.52,1,1.25,1.25,0,0,0,1,.29,1.46,1.46,0,0,0,1-.53A14.77,14.77,0,0,1,47.28,6.23Z"/>
        <path d="M.4.41a1.33,1.33,0,0,0-.4,1V61.5a1.35,1.35,0,0,0,.4,1,1.44,1.44,0,0,0,2,0,1.35,1.35,0,0,0,.4-1V1.4a1.34,1.34,0,0,0-.4-1A1.42,1.42,0,0,0,.4.41Z"/>
        <path d="M6.8,14.84A12.5,12.5,0,0,1,9.67,9.08a15.31,15.31,0,0,1,5.53-4,17.31,17.31,0,0,1,7-1.45,17,17,0,0,1,6,1.09,16.5,16.5,0,0,1,4.94,2.83,13.65,13.65,0,0,1,3.33,4.21A11.3,11.3,0,0,1,37.7,16.9,1.5,1.5,0,0,0,38.12,18a1.35,1.35,0,0,0,2,0h0a1.46,1.46,0,0,0,.45-1.05A14.65,14.65,0,0,0,35.22,5.53,19.18,19.18,0,0,0,22.2.8a19.67,19.67,0,0,0-12,3.85A15.29,15.29,0,0,0,4,14.29a1.5,1.5,0,0,0,.27,1.08,1.37,1.37,0,0,0,.93.59,1.33,1.33,0,0,0,1.08-.22A1.21,1.21,0,0,0,6.8,14.84Z"/>
        <path d="M40.3,62.5a1.35,1.35,0,0,0,.4-1V21.3a1.53,1.53,0,0,0-.42-1.06,1.43,1.43,0,0,0-2.06,0h0a1.53,1.53,0,0,0-.42,1.06V61.5a1.35,1.35,0,0,0,.4,1A1.56,1.56,0,0,0,40.3,62.5Z"/>
      </g>
    </g>
  </g>
</svg>
