<svg xmlns="http://www.w3.org/2000/svg" width="66.1" height="84.21" viewBox="0 0 66.1 84.21">
  <g id="Calque_2" data-name="Calque 2">
    <g id="Calque_1_-_copie" data-name="Calque 1 - copie">
      <path d="M63.7,83.3a1.44,1.44,0,0,0,2,0,1.36,1.36,0,0,0,.4-1V1.5a1.4,1.4,0,0,0-.19-.71,1.55,1.55,0,0,0-.54-.57A1.14,1.14,0,0,0,64.7,0H56.2a1.13,1.13,0,0,0-.48.15l-.25.13L55.22.12A.56.56,0,0,0,54.9,0a1.25,1.25,0,0,0-1,.44A1.5,1.5,0,0,0,53.5,1.5V77.67L2.88,1A1.21,1.21,0,0,0,1.65.4a.89.89,0,0,1-.4-.09A1.23,1.23,0,0,0,.42.74,1.5,1.5,0,0,0,0,1.8V82.7a1.5,1.5,0,0,0,.42,1.06,1.29,1.29,0,0,0,2,0A1.51,1.51,0,0,0,2.8,82.7V6.14L53.72,83.22a1.21,1.21,0,0,0,1.18.68,1.54,1.54,0,0,0,.84-.23,1.38,1.38,0,0,0,.56-1.17V2.9h7V82.3A1.35,1.35,0,0,0,63.7,83.3Z"/>
    </g>
  </g>
</svg>
