<svg xmlns="http://www.w3.org/2000/svg" width="42" height="62.91" viewBox="0 0 42 62.91">
  <g id="Calque_2" data-name="Calque 2">
    <g id="Calque_1_-_copie" data-name="Calque 1 - copie">
      <g>
        <path d="M.4.41a1.33,1.33,0,0,0-.4,1V61.5a1.35,1.35,0,0,0,.4,1,1.44,1.44,0,0,0,2,0,1.35,1.35,0,0,0,.4-1V1.4a1.34,1.34,0,0,0-.4-1A1.42,1.42,0,0,0,.4.41Z"/>
        <path d="M7.9,15.5a1.55,1.55,0,0,0,.31-.69,12.81,12.81,0,0,1,5.35-8,16.65,16.65,0,0,1,10-3.2A16.37,16.37,0,0,1,34.52,7.47,12,12,0,0,1,39.1,16.9,1.54,1.54,0,0,0,39.52,18a1.36,1.36,0,0,0,2,0h0A1.46,1.46,0,0,0,42,16.9a14.38,14.38,0,0,0-2.47-8.07A17.21,17.21,0,0,0,32.82,3,20.27,20.27,0,0,0,23.6.8a19.67,19.67,0,0,0-12,3.85,15.29,15.29,0,0,0-6.21,9.64,1.5,1.5,0,0,0,.27,1.08,1.59,1.59,0,0,0,1,.65,1.2,1.2,0,0,0,.69-.08A1.32,1.32,0,0,0,7.9,15.5Z"/>
        <path d="M41.3,62.5a1.35,1.35,0,0,0,.4-1V21.3a1.53,1.53,0,0,0-.42-1.06,1.28,1.28,0,0,0-1-.44,1.24,1.24,0,0,0-1,.44h0a1.53,1.53,0,0,0-.42,1.06V61.5a1.35,1.35,0,0,0,.4,1A1.44,1.44,0,0,0,41.3,62.5Z"/>
      </g>
    </g>
  </g>
</svg>
