<svg xmlns="http://www.w3.org/2000/svg" width="49.09" height="80.34" viewBox="0 0 49.09 80.34">
  <g id="Calque_2" data-name="Calque 2">
    <g id="Calque_1_-_copie" data-name="Calque 1 - copie">
      <g>
        <path d="M41,71.72a32.48,32.48,0,0,0,4.87-8A40.43,40.43,0,0,0,48.65,53,54.78,54.78,0,0,0,48.7,39.6v-.06a1,1,0,0,0-.42-.81,1.29,1.29,0,0,0-1.84.18,1.56,1.56,0,0,0-.34,1,51.18,51.18,0,0,1-.36,14.94,32.75,32.75,0,0,1-4.12,11.43,26.91,26.91,0,0,1-6.57,7.38A19.27,19.27,0,0,1,27,77.34a18.79,18.79,0,0,1-13.75-2.62C8.76,72,5.36,67.49,3.13,61.21L3,60.76,6.1,59.48l.17.5a23.27,23.27,0,0,0,7,10.48A15.81,15.81,0,0,0,23.5,74.24h1.1a1.46,1.46,0,0,0,.93-.48,1.19,1.19,0,0,0,.32-.93,1.12,1.12,0,0,0-.42-.85,2.1,2.1,0,0,0-1.09-.44,13,13,0,0,1-9.87-3.42A22.36,22.36,0,0,1,8.12,57.49l0-.05a.68.68,0,0,1-.16-.26A1.14,1.14,0,0,1,7.78,57l-.11-.06-.21-.18-.32-.09L7,56.56l-.08,0-.1,0H6.29L1,58.65a1,1,0,0,1-.33.24L.48,59l-.16.24-.26.27h0s0,0,0,.1,0,.21,0,.25V60H.1v.53A32.14,32.14,0,0,0,6,71.82a24,24,0,0,0,8.18,6.57,21.75,21.75,0,0,0,9.09,2A22.5,22.5,0,0,0,27.51,80a23.51,23.51,0,0,0,7.14-2.79A24.59,24.59,0,0,0,41,71.72Z"/>
        <path d="M6,8.9a26.47,26.47,0,0,0-4.47,9.18,1.48,1.48,0,0,0,.11,1.08,1.19,1.19,0,0,0,.77.58H2.7A1.22,1.22,0,0,0,4,18.8,24.53,24.53,0,0,1,7.9,10.6a18.57,18.57,0,0,1,5.81-5.24A21.59,21.59,0,0,1,20.31,3a23.6,23.6,0,0,1,6.85-.2,23.12,23.12,0,0,1,12.25,5A14.28,14.28,0,0,1,45.1,18.52c0,.57.23,1.16,1.43,1.22a1.17,1.17,0,0,0,.9-.38,1.09,1.09,0,0,0,.27-.95,15.86,15.86,0,0,0-3.25-9.07A21.38,21.38,0,0,0,36.92,3,28.29,28.29,0,0,0,27.44.14a26.28,26.28,0,0,0-7.5.3,24.91,24.91,0,0,0-7.4,2.64A21.27,21.27,0,0,0,6,8.9Z"/>
        <path d="M12.94,46.3h0A22.49,22.49,0,0,0,23.8,48.94a25.17,25.17,0,0,0,14-4.11,22.33,22.33,0,0,0,8-9.25,23.48,23.48,0,0,0,1.9-12.39,1,1,0,0,0-.42-.86,1.16,1.16,0,0,0-1-.29,1.24,1.24,0,0,0-.86.5,1.62,1.62,0,0,0-.35,1A20.91,20.91,0,0,1,43.46,34.4a19.24,19.24,0,0,1-7.08,8.16,22.36,22.36,0,0,1-11.15,3.78A19.54,19.54,0,0,1,14.16,44a17.32,17.32,0,0,1-7.61-8A28.09,28.09,0,0,1,4.1,23.34a1.22,1.22,0,0,0-.4-.89A1.27,1.27,0,0,0,2.8,22H2.59a.89.89,0,0,0-.72.3,1.82,1.82,0,0,0-.47,1.08,29.91,29.91,0,0,0,2.9,14A20.12,20.12,0,0,0,12.94,46.3Z"/>
      </g>
    </g>
  </g>
</svg>
