<svg xmlns="http://www.w3.org/2000/svg" width="80.1" height="84.6" viewBox="0 0 80.1 84.6">
  <g id="Calque_2" data-name="Calque 2">
    <g id="Calque_1_-_copie" data-name="Calque 1 - copie">
      <g>
        <path d="M38.41.91l-.1-.07L38.25.72A1.16,1.16,0,0,0,37.1,0l-.25,0A2.91,2.91,0,0,1,36.4.1h-.21l0,0-.09,0-.13,0a34,34,0,0,0-18,6.06A39.77,39.77,0,0,0,4.8,21.42,46.16,46.16,0,0,0,0,42.3,46,46,0,0,0,5,63.52,40.08,40.08,0,0,0,18.53,78.93,33,33,0,0,0,37.1,84.6a1.37,1.37,0,0,0,1.4-1.4,1.51,1.51,0,0,0-.42-1.06,1.24,1.24,0,0,0-1-.44,30.55,30.55,0,0,1-17.18-5.28A37.1,37.1,0,0,1,7.41,62.08,43.14,43.14,0,0,1,2.8,42.3,43,43,0,0,1,5.48,27.22a41.7,41.7,0,0,1,7.14-12.44A34.53,34.53,0,0,1,23.27,6.31a30.1,30.1,0,0,1,13-3.41h.08l.09,0a1.65,1.65,0,0,1,.88.88A3.28,3.28,0,0,1,37.7,5.4a3.83,3.83,0,0,1-.23,1.38,2.51,2.51,0,0,1-.52.87,1,1,0,0,1-.74.35l-.1.09h-.18C28.44,8.49,22,12,16.79,18.46A36.38,36.38,0,0,0,8.9,41.9,38.57,38.57,0,0,0,11.17,55a35.54,35.54,0,0,0,6.06,10.85,28.55,28.55,0,0,0,9,7.17A23.67,23.67,0,0,0,37.1,75.7a1.37,1.37,0,0,0,1.4-1.4,1.51,1.51,0,0,0-.42-1.06,1.24,1.24,0,0,0-1-.44c-6.93,0-12.94-3.06-17.89-9.08S11.8,50.38,11.8,41.9a36.41,36.41,0,0,1,3.35-15.56A28.1,28.1,0,0,1,24.36,15,21.76,21.76,0,0,1,37.1,10.9a1.16,1.16,0,0,0,1.15-.72l.06-.12.1-.07A5.17,5.17,0,0,0,40.6,5.45,5.17,5.17,0,0,0,38.41.91Z"/>
        <path d="M75.15,63.52A46.28,46.28,0,0,0,80.1,42.3a48.49,48.49,0,0,0-4.75-21.43A38.56,38.56,0,0,0,62.42,5.56,31.66,31.66,0,0,0,44.3,0a1.4,1.4,0,0,0-.71.19,1.21,1.21,0,0,0-.5.5,1.59,1.59,0,0,0-.19.81,1.37,1.37,0,0,0,1.4,1.4,28.54,28.54,0,0,1,13,3.1,32.85,32.85,0,0,1,10.51,8.33,40.36,40.36,0,0,1,6.94,12.55A46.43,46.43,0,0,1,77.3,42.3a43.32,43.32,0,0,1-4.6,19.78A37.42,37.42,0,0,1,60.23,76.42,30.47,30.47,0,0,1,43,81.7a1.24,1.24,0,0,0-1,.44,1.5,1.5,0,0,0-.42,1.06,1.35,1.35,0,0,0,.4,1,1.36,1.36,0,0,0,1,.4,33.23,33.23,0,0,0,18.62-5.67A39.52,39.52,0,0,0,75.15,63.52Z"/>
      </g>
    </g>
  </g>
</svg>
