<svg xmlns="http://www.w3.org/2000/svg" width="55.9" height="59.3" viewBox="0 0 55.9 59.3">
  <g id="Calque_2" data-name="Calque 2">
    <g id="Calque_1_-_copie" data-name="Calque 1 - copie">
      <g>
        <path d="M55.9,29.65a31.34,31.34,0,0,0-7.43-21C43.56,2.92,37.58,0,30.7,0a1.37,1.37,0,0,0-1.4,1.4,1.37,1.37,0,0,0,1.4,1.4c6.13,0,11.44,2.67,15.79,7.93A28.85,28.85,0,0,1,53,29.6a30.89,30.89,0,0,1-3,13.47,24.44,24.44,0,0,1-8.12,9.74A19.39,19.39,0,0,1,30.7,56.4a1.25,1.25,0,0,0-1,.44,1.51,1.51,0,0,0-.42,1.06,1.37,1.37,0,0,0,1.4,1.4c6.88,0,12.86-2.92,17.77-8.67A31.39,31.39,0,0,0,55.9,29.65Z"/>
        <path d="M25.2,0C18.32,0,12.34,2.92,7.43,8.68A31.34,31.34,0,0,0,0,29.65a31.39,31.39,0,0,0,7.43,21c4.91,5.75,10.89,8.67,17.77,8.67a1.37,1.37,0,0,0,1.4-1.4,1.51,1.51,0,0,0-.42-1.06,1.25,1.25,0,0,0-1-.44c-6.13,0-11.46-2.65-15.83-7.88A28.53,28.53,0,0,1,2.8,29.65,28.74,28.74,0,0,1,9.37,10.73C13.75,5.47,19.07,2.8,25.2,2.8a1.37,1.37,0,0,0,1.4-1.4A1.37,1.37,0,0,0,25.2,0Z"/>
      </g>
    </g>
  </g>
</svg>
