<svg xmlns="http://www.w3.org/2000/svg" width="21.47" height="82.9" viewBox="0 0 21.47 82.9">
  <g id="Calque_2" data-name="Calque 2">
    <g id="Calque_1_-_copie" data-name="Calque 1 - copie">
      <g>
        <path d="M9.39,3.66a1.16,1.16,0,0,0-.15-1,1.4,1.4,0,0,0-.81-.63,1.5,1.5,0,0,0-1,.07L.72,6a1.32,1.32,0,0,0-.67.81,1.24,1.24,0,0,0,.15,1,1.21,1.21,0,0,0,1.17.65A1,1,0,0,0,2,8.3L8.72,4.47A1.36,1.36,0,0,0,9.39,3.66Z"/>
        <path d="M21.47,12a1.29,1.29,0,0,0-.37-.91,1.24,1.24,0,0,0-1.83,0,1.36,1.36,0,0,0-.4,1V80.3h-5.3V1.4a1.42,1.42,0,0,0-.37-1A1.1,1.1,0,0,0,12.32,0a1.29,1.29,0,0,0-1,.4,1.36,1.36,0,0,0-.4,1V81.6a1.24,1.24,0,0,0,.4.9,1.23,1.23,0,0,0,.9.4h7.9a1.16,1.16,0,0,0,.93-.39,1.29,1.29,0,0,0,.37-.91Z"/>
      </g>
    </g>
  </g>
</svg>
