<svg xmlns="http://www.w3.org/2000/svg" width="56.71" height="84.96" viewBox="0 0 56.71 84.96">
  <g id="Calque_2" data-name="Calque 2">
    <g id="Calque_1_-_copie" data-name="Calque 1 - copie">
      <g>
        <path d="M56.7,32.24a1.53,1.53,0,0,0-.42-1.05,1.3,1.3,0,0,0-1-.44c-1,.06-1.41.48-1.41,1.4A17.75,17.75,0,0,1,47,45.74,27.7,27.7,0,0,1,38,50.68a45.8,45.8,0,0,1-11.73,2.17,72.14,72.14,0,0,1-14-.6l-.11,0-.1-.06a.7.7,0,0,0-.42-.12c-.53,0-.87-.48-1.08-.84a3.45,3.45,0,0,1-.42-1.76,3.15,3.15,0,0,1,.72-2.12l.18-.21.27,0c12.4,1.65,22.73.7,30.53-2.76a1.39,1.39,0,0,0,.84-.78,1.36,1.36,0,0,0,0-1.1,1.31,1.31,0,0,0-.81-.74,1.46,1.46,0,0,0-1.09,0C33.45,45,24,45.89,12.63,44.35l-.19-.07a1.6,1.6,0,0,0-.84-.23,7.71,7.71,0,0,0-1,.19l-.17.09a4,4,0,0,0-2.27,1.83,6.23,6.23,0,0,0-.88,3.29,5.35,5.35,0,0,0,2.28,4.79l.11.09a1.88,1.88,0,0,0,1,.64,82.89,82.89,0,0,0,11.68.88c11.36,0,20.27-2.65,26.48-7.88C53.94,43.69,56.57,38.4,56.7,32.24Z"/>
        <path d="M0,83.55a1.35,1.35,0,0,0,.4,1,1.44,1.44,0,0,0,2,0,1.35,1.35,0,0,0,.4-1V2.75a1.53,1.53,0,0,0-.42-1.06,1.25,1.25,0,0,0-1-.44,1.28,1.28,0,0,0-1,.44h0A1.53,1.53,0,0,0,0,2.75Z"/>
        <path d="M5.76,1.49a1.52,1.52,0,0,0-.26,1.1,1.4,1.4,0,0,0,.55,1,1.13,1.13,0,0,0,1,.21,76.76,76.76,0,0,1,11.18-.85A59.08,59.08,0,0,1,29.85,4c6.88,1.38,12.56,4,16.88,7.77h0c4.89,4.35,7.31,9.36,7.17,14.89a1.23,1.23,0,0,0,.32,1,1.28,1.28,0,0,0,1,.43h.1A1.5,1.5,0,0,0,56,28a1.23,1.23,0,0,0,.5-.51,1.4,1.4,0,0,0,.19-.71c.19-6.42-2.54-12.18-8.13-17.12a24.23,24.23,0,0,0-3.29-2.56c-1.21-.78-2.75-1.65-4.56-2.57a32.19,32.19,0,0,0-6.15-2.31A70.79,70.79,0,0,0,27,.6,56.79,56.79,0,0,0,17.71,0a78.29,78.29,0,0,0-11,1A1.21,1.21,0,0,0,5.76,1.49Z"/>
      </g>
    </g>
  </g>
</svg>
