<svg xmlns="http://www.w3.org/2000/svg" width="46.7" height="85.4" viewBox="0 0 46.7 85.4">
  <g id="Calque_2" data-name="Calque 2">
    <g id="Calque_1_-_copie" data-name="Calque 1 - copie">
      <g>
        <path d="M5.84,12.44a1.22,1.22,0,0,0-.12,1.05,1.55,1.55,0,0,0,.73.88,1.35,1.35,0,0,0,1.07.15h0a1.31,1.31,0,0,0,.83-.74,24.36,24.36,0,0,1,3.13-4.36,19.3,19.3,0,0,1,3.85-3.34A17.82,17.82,0,0,1,19.65,4,15.31,15.31,0,0,1,24.3,3.3c5.41,0,10.06,2.51,13.85,7.45A28.47,28.47,0,0,1,43.8,28.5a1.46,1.46,0,0,0,.45,1.05,1.37,1.37,0,0,0,2,0,1.51,1.51,0,0,0,.42-1.06A31.09,31.09,0,0,0,40.11,8.61C35.76,3.16,30.44.4,24.3.4A18.93,18.93,0,0,0,13.87,3.57,24.44,24.44,0,0,0,5.84,12.44Z"/>
        <path d="M46.7,33.1A1.51,1.51,0,0,0,46.28,32a1.37,1.37,0,0,0-2,0h0a1.46,1.46,0,0,0-.45,1.05,28.47,28.47,0,0,1-5.65,17.75c-3.78,4.94-8.44,7.45-13.85,7.45a16.44,16.44,0,0,1-10.51-3.91A23.16,23.16,0,0,1,6.63,44a2.25,2.25,0,0,0-.34-.47,1.35,1.35,0,0,0-.44-.29,2,2,0,0,0-.61-.16l-.19,0a1.19,1.19,0,0,0-.29,0,1.3,1.3,0,0,0-.8.77A1.68,1.68,0,0,0,3.88,45a26.4,26.4,0,0,0,8.33,11.85A19.22,19.22,0,0,0,24.3,61.2c6.14,0,11.46-2.76,15.81-8.21A31.09,31.09,0,0,0,46.7,33.1Z"/>
        <path d="M2.8,1.5A1.51,1.51,0,0,0,2.38.44,1.25,1.25,0,0,0,1.4,0a1.25,1.25,0,0,0-1,.44A1.5,1.5,0,0,0,0,1.5V42.4a1.35,1.35,0,0,0,.4,1,1.44,1.44,0,0,0,2,0,1.36,1.36,0,0,0,.4-1Z"/>
        <path d="M2.4,85a1.36,1.36,0,0,0,.4-1V46.5a1.37,1.37,0,0,0-1.4-1.4,1.36,1.36,0,0,0-1,.4,1.35,1.35,0,0,0-.4,1V84a1.36,1.36,0,0,0,.4,1A1.44,1.44,0,0,0,2.4,85Z"/>
      </g>
    </g>
  </g>
</svg>
