<svg xmlns="http://www.w3.org/2000/svg" width="67.2" height="56.3" viewBox="0 0 67.2 56.3">
  <g id="Calque_2" data-name="Calque 2">
    <g id="Calque_1_-_copie" data-name="Calque 1 - copie">
      <g>
        <path d="M.37,29.11a1.15,1.15,0,0,0,.93.39H30.8a1.16,1.16,0,0,0,.93-.39,1.34,1.34,0,0,0,.37-1,1.25,1.25,0,0,0-.35-.9,1.31,1.31,0,0,0-.95-.35H1.3a1.31,1.31,0,0,0-.95.35,1.21,1.21,0,0,0-.35.9A1.34,1.34,0,0,0,.37,29.11Z"/>
        <path d="M66.81,27.27a1.29,1.29,0,0,0-.91-.37h-29a1.29,1.29,0,0,0-.91.37,1.1,1.1,0,0,0-.39.88,1.29,1.29,0,0,0,.4,1,1.24,1.24,0,0,0,.9.4h29a1.26,1.26,0,0,0,.9-.4,1.29,1.29,0,0,0,.4-1A1.1,1.1,0,0,0,66.81,27.27Z"/>
        <path d="M35.11,55.93A1.19,1.19,0,0,0,35.5,55V33.7a1.16,1.16,0,0,0-.39-.93,1.42,1.42,0,0,0-1-.37,1.58,1.58,0,0,0-.65.16A1,1,0,0,0,33,33a1.4,1.4,0,0,0-.19.71V55a1.15,1.15,0,0,0,.39.93A1.42,1.42,0,0,0,35.11,55.93Z"/>
        <path d="M34.15,0a1.3,1.3,0,0,0-.95.4,1.24,1.24,0,0,0-.4.9V22.7a1.19,1.19,0,0,0,.17.63,1.34,1.34,0,0,0,.52.48,1.25,1.25,0,0,0,.61.19,1.42,1.42,0,0,0,1-.37,1.16,1.16,0,0,0,.39-.93V1.3a1.26,1.26,0,0,0-.4-.9A1.32,1.32,0,0,0,34.15,0Z"/>
      </g>
    </g>
  </g>
</svg>
