<svg xmlns="http://www.w3.org/2000/svg" width="93.1" height="77.45" viewBox="0 0 93.1 77.45">
  <g id="Calque_2" data-name="Calque 2">
    <g id="Calque_1_-_copie" data-name="Calque 1 - copie">
      <g>
        <path d="M0,19A17.12,17.12,0,0,0,4.91,31.26a16.75,16.75,0,0,0,12,5.29,1.36,1.36,0,0,0,1-.37,1.1,1.1,0,0,0,.39-.88,1.38,1.38,0,0,0-.37-1A1.08,1.08,0,0,0,17.1,34a14.6,14.6,0,0,1-10.31-4.5A14.39,14.39,0,0,1,2.6,19.05,14.43,14.43,0,0,1,6.79,8.65a14.66,14.66,0,0,1,10.29-4.5h0a1.07,1.07,0,0,0,.83-.38,1.38,1.38,0,0,0,.37-1,1.21,1.21,0,0,0-.44-.93,1,1,0,0,0-.68-.33h-.1A17,17,0,0,0,4.91,6.8,17,17,0,0,0,0,19Z"/>
        <path d="M69.62.93A1.18,1.18,0,0,0,69,.14a1.14,1.14,0,0,0-.94-.07,1.66,1.66,0,0,0-.85.66L26.94,75.49a1.11,1.11,0,0,0-.12,1,1.68,1.68,0,0,0,.66.86,1.46,1.46,0,0,0,.62.11,1.19,1.19,0,0,0,1.16-.64L69.56,1.92A1.38,1.38,0,0,0,69.62.93Z"/>
        <path d="M20.69,36.37a1.34,1.34,0,0,0,.61.18h.1A18.12,18.12,0,0,0,30,34a16.73,16.73,0,0,0,6.16-6.31,17.44,17.44,0,0,0,2.24-8.66,16.94,16.94,0,0,0-5-12.25,17,17,0,0,0-12-5.25h-.21a.89.89,0,0,0-.71.3,1.54,1.54,0,0,0-.42,1,1.19,1.19,0,0,0,.32.93,1.17,1.17,0,0,0,.93.38,14.67,14.67,0,0,1,10.31,4.5,14.43,14.43,0,0,1,4.19,10.4,14.39,14.39,0,0,1-4.19,10.4A14.57,14.57,0,0,1,21.32,34a1.13,1.13,0,0,0-.65.18,1.56,1.56,0,0,0-.5.49.88.88,0,0,0-.12.58,1.83,1.83,0,0,0,.2.73A1,1,0,0,0,20.69,36.37Z"/>
        <path d="M72.83,75a1.25,1.25,0,0,0,.17-.64,1,1,0,0,0-.3-.89,1.27,1.27,0,0,0-.9-.41A14.93,14.93,0,0,1,57.3,58.1a14.5,14.5,0,0,1,4.19-10.39,14.16,14.16,0,0,1,10.3-4.46h0a1.24,1.24,0,0,0,.9-.4,1.13,1.13,0,0,0,.35-.91,1.39,1.39,0,0,0-1.35-1.29,17.35,17.35,0,0,0-17,17.45,17,17,0,0,0,4.91,12.21,17.32,17.32,0,0,0,12.11,5.34,1.08,1.08,0,0,0,.61-.17A1.47,1.47,0,0,0,72.83,75Z"/>
        <path d="M76.1,75.65a17.31,17.31,0,0,0,12.09-5.34,17.62,17.62,0,0,0,0-24.41,17,17,0,0,0-12.1-5.25h-.2a1,1,0,0,0-.69.32,1.28,1.28,0,0,0-.4.94,1.37,1.37,0,0,0,.37,1,1.07,1.07,0,0,0,.83.38,14.16,14.16,0,0,1,10.31,4.46,15,15,0,0,1,0,20.79A14.46,14.46,0,0,1,76,73.05a1.13,1.13,0,0,0-.65.18,1.07,1.07,0,0,0-.42.45,1.44,1.44,0,0,0-.15.67,1.23,1.23,0,0,0,.4.9A1.24,1.24,0,0,0,76.1,75.65Z"/>
      </g>
    </g>
  </g>
</svg>
