<svg xmlns="http://www.w3.org/2000/svg" width="80.02" height="87.7" viewBox="0 0 80.02 87.7">
  <g id="Calque_2" data-name="Calque 2">
    <g id="Calque_1_-_copie" data-name="Calque 1 - copie">
      <g>
        <path d="M63.9,76.87,77.7,87.4A1.42,1.42,0,0,0,80,86.11a1.28,1.28,0,0,0-.59-.9h0L66.14,74.94l.41-.4a42.88,42.88,0,0,0,9.74-14.48A46.11,46.11,0,0,0,79.8,42.3a46,46,0,0,0-5-21.22A40,40,0,0,0,61.22,5.67,33.25,33.25,0,0,0,42.6,0a1.4,1.4,0,0,0-.71.19,1.21,1.21,0,0,0-.5.5,1.59,1.59,0,0,0-.19.81,1.37,1.37,0,0,0,1.4,1.4A30.5,30.5,0,0,1,59.83,8.18,37.31,37.31,0,0,1,72.29,22.52,43.17,43.17,0,0,1,76.9,42.3,43.71,43.71,0,0,1,72.3,62a36.62,36.62,0,0,1-12.63,14.5,1.19,1.19,0,0,0-.63.87,1.39,1.39,0,0,0,.27,1.12,1.26,1.26,0,0,0,1.19.59,1.45,1.45,0,0,0,.74-.23c.12-.08.64-.46,2.36-1.77Z"/>
        <path d="M56.77,81.85a1.5,1.5,0,0,0,.16-1.08,2.81,2.81,0,0,0-.48-.62L56.3,80V79.7l-2.66-6.25-.1-.1,0-.15a1.32,1.32,0,0,0-.36-.65,1.19,1.19,0,0,0-.61-.36,2.46,2.46,0,0,0-.86,0c-12,3.55-21.88,2.52-29.38-3.09A27.61,27.61,0,0,1,13,56.73,41.74,41.74,0,0,1,10,41.5a1.46,1.46,0,0,0-.45-1A1.44,1.44,0,0,0,7.5,40.4a1.47,1.47,0,0,0-.4,1.1,42,42,0,0,0,3.56,17.25A31.28,31.28,0,0,0,20.6,71.4a29.69,29.69,0,0,0,18.3,5.7,49.71,49.71,0,0,0,12-1.68l.41-.11,2.1,4.83-.57.14c-14.29,3.63-26.07,2-35-4.68a34.06,34.06,0,0,1-11.31-15A49.35,49.35,0,0,1,2.8,42.3,43.46,43.46,0,0,1,5.53,27a40.55,40.55,0,0,1,7.34-12.55,35.35,35.35,0,0,1,11-8.42A29.66,29.66,0,0,1,37.1,2.9a1.5,1.5,0,0,0,1.06-.42,1.31,1.31,0,0,0,.44-1,1.31,1.31,0,0,0-.44-1A1.51,1.51,0,0,0,37.1,0,33,33,0,0,0,18.53,5.67,40.08,40.08,0,0,0,5,21.08,46,46,0,0,0,0,42.3,49.53,49.53,0,0,0,4.26,62.84,37.48,37.48,0,0,0,16.1,77.9c6.28,4.78,14,7.2,22.9,7.2a61.23,61.23,0,0,0,16.86-2.58A1.34,1.34,0,0,0,56.77,81.85Z"/>
      </g>
    </g>
  </g>
</svg>
