<svg xmlns="http://www.w3.org/2000/svg" width="46.7" height="85.41" viewBox="0 0 46.7 85.41">
  <g id="Calque_2" data-name="Calque 2">
    <g id="Calque_1_-_copie" data-name="Calque 1 - copie">
      <g>
        <path d="M42.83,44.93a1.75,1.75,0,0,0-.09-1.09,1.18,1.18,0,0,0-.75-.71,1.58,1.58,0,0,0-1.15,0h0a1.3,1.3,0,0,0-.76.81,23.21,23.21,0,0,1-7.16,10.41A16.41,16.41,0,0,1,22.4,58.3c-5.41,0-10.08-2.5-13.9-7.44A28.33,28.33,0,0,1,2.8,33.1,1.53,1.53,0,0,0,2.38,32a1.28,1.28,0,0,0-1-.44,1.24,1.24,0,0,0-1,.44A1.53,1.53,0,0,0,0,33.1,31,31,0,0,0,6.59,53c4.35,5.45,9.67,8.21,15.81,8.21a19.16,19.16,0,0,0,12.09-4.39A26.45,26.45,0,0,0,42.83,44.93Z"/>
        <path d="M3,14.41A33.38,33.38,0,0,0,0,28.5a1.54,1.54,0,0,0,.42,1.07,1.31,1.31,0,0,0,2,0A1.54,1.54,0,0,0,2.8,28.5,28.32,28.32,0,0,1,8.5,10.75C12.32,5.81,17,3.3,22.4,3.3a16.13,16.13,0,0,1,9,2.79,21.77,21.77,0,0,1,7,7.67,1.3,1.3,0,0,0,.84.76,1.35,1.35,0,0,0,1.07-.15A1.53,1.53,0,0,0,41,13.5a1.26,1.26,0,0,0-.11-1.05,24.67,24.67,0,0,0-8-8.88,18.66,18.66,0,0,0-21.64.59A25.83,25.83,0,0,0,3,14.41Z"/>
        <path d="M46.3,85a1.35,1.35,0,0,0,.4-1V46.5a1.34,1.34,0,0,0-.4-1,1.48,1.48,0,0,0-2.06,0,1.27,1.27,0,0,0-.44,1V84a1.29,1.29,0,0,0,.44,1A1.49,1.49,0,0,0,46.3,85Z"/>
        <path d="M43.8,42.4a1.27,1.27,0,0,0,.44,1,1.49,1.49,0,0,0,2.06,0,1.35,1.35,0,0,0,.4-1V1.5A1.53,1.53,0,0,0,46.28.44a1.37,1.37,0,0,0-2,0,1.43,1.43,0,0,0-.45,1Z"/>
      </g>
    </g>
  </g>
</svg>
