<svg xmlns="http://www.w3.org/2000/svg" width="51.53" height="84.26" viewBox="0 0 51.53 84.26">
  <g id="Calque_2" data-name="Calque 2">
    <g id="Calque_1_-_copie" data-name="Calque 1 - copie">
      <g>
        <path d="M26.53,72.16a1.15,1.15,0,0,0-.39-.93,1.34,1.34,0,0,0-1-.37,1.18,1.18,0,0,0-.89.35,1.27,1.27,0,0,0-.36,1v10.7a1.42,1.42,0,0,0,.37,1,1.24,1.24,0,0,0,1.83,0,1.33,1.33,0,0,0,.4-1Z"/>
        <path d="M30,55.29C31.47,54,32.76,52.84,33.87,52s2.72-2.08,4.76-3.6c3.26-2.4,5.69-4.26,7.23-5.54a21.08,21.08,0,0,0,4.25-5,6.74,6.74,0,0,0,1.14-5.55,1.19,1.19,0,0,0-.61-.84,1.25,1.25,0,0,0-.61-.17,1.13,1.13,0,0,0-.36.06,1.19,1.19,0,0,0-.75.6h0A1.68,1.68,0,0,0,48.73,33a4.21,4.21,0,0,1-.45,3.15,13.84,13.84,0,0,1-3,3.59C43.88,41,42.64,42,41.59,42.85s-2.52,1.94-4.46,3.4-3.5,2.59-4.49,3.35-2.26,1.83-3.78,3.18a20.06,20.06,0,0,0-3.21,3.45,13.91,13.91,0,0,0-1.59,3.38,6.9,6.9,0,0,0-.24,3.64,1.22,1.22,0,0,0,1.31,1,.45.45,0,0,0,.18-.05l.15,0a1,1,0,0,0,.75-.52,1.71,1.71,0,0,0,.23-1.12,4.67,4.67,0,0,1,.49-3.39A14.37,14.37,0,0,1,30,55.29Z"/>
        <path d="M11.33,8.36A27,27,0,0,1,23.65,3,21.56,21.56,0,0,1,36,4.3h0c7.68,3.47,12,11.24,12.89,23.12a1.06,1.06,0,0,0,.42.85,1.24,1.24,0,0,0,1.81-.1,1.42,1.42,0,0,0,.37-1C50.55,14.32,45.67,5.81,37,1.91A22.73,22.73,0,0,0,27.75,0a28.29,28.29,0,0,0-4.34.35A30.09,30.09,0,0,0,9.74,6.25a25.88,25.88,0,0,0-7.9,9.86A20.12,20.12,0,0,0,.23,27.48c.15.82.54,1.18,1.3,1.18l.12-.13.12,0a1.12,1.12,0,0,0,.85-.48,1.35,1.35,0,0,0,.22-.95A17.52,17.52,0,0,1,4.23,17,23,23,0,0,1,11.33,8.36Z"/>
      </g>
    </g>
  </g>
</svg>
