<svg xmlns="http://www.w3.org/2000/svg" width="59.44" height="86.4" viewBox="0 0 59.44 86.4">
  <g id="Calque_2" data-name="Calque 2">
    <g id="Calque_1_-_copie" data-name="Calque 1 - copie">
      <g>
        <path d="M59.37,84.45a1.31,1.31,0,0,0-.1-1.1v0L43.15,53.25l.36-.26a29.79,29.79,0,0,0,8.66-9.39A23.59,23.59,0,0,0,55.3,32.19a1.21,1.21,0,0,0-.32-1,1.24,1.24,0,0,0-1-.44,1.41,1.41,0,0,0-1.09.4,1.32,1.32,0,0,0-.41,1,22.39,22.39,0,0,1-3,10.3,26.15,26.15,0,0,1-7.85,8.41.66.66,0,0,0-.27.27l-.11.16-.19,0a2.55,2.55,0,0,0-.5.17,1.51,1.51,0,0,0-.7.86,1.23,1.23,0,0,0,.11,1L56.74,84.66A1.37,1.37,0,0,0,58,85.5a1,1,0,0,0,.6-.2l.1-.06A1.13,1.13,0,0,0,59.37,84.45Z"/>
        <path d="M51,85.48a1.75,1.75,0,0,0-.07-1.18L35.84,55.2a1.16,1.16,0,0,0-.75-.68,1.54,1.54,0,0,0-.42-.07,1.56,1.56,0,0,0-.69.19,1.54,1.54,0,0,0-.76.87,1.23,1.23,0,0,0,.11,1l15,29.12a1.47,1.47,0,0,0,1.36.73,1.28,1.28,0,0,0,.58-.15A1,1,0,0,0,51,85.48Z"/>
        <path d="M1.4,1.2a1.25,1.25,0,0,0-1,.44h0A1.5,1.5,0,0,0,0,2.7V83.5a1.33,1.33,0,0,0,.4,1,1.43,1.43,0,0,0,2,0,1.36,1.36,0,0,0,.4-1V2.7a1.5,1.5,0,0,0-.42-1.06A1.25,1.25,0,0,0,1.4,1.2Z"/>
        <path d="M18.92,2.85a82.48,82.48,0,0,1,9.51.91A32.15,32.15,0,0,1,35.9,5.89a44.8,44.8,0,0,1,5.51,2.73,23.17,23.17,0,0,1,3.73,2.81c5,4.34,7.5,9.45,7.36,15.18v.05a1.16,1.16,0,0,0,.32,1,1.42,1.42,0,0,0,2.48-1c.2-6.63-2.57-12.48-8.23-17.42a25.39,25.39,0,0,0-2.7-2.17A35.58,35.58,0,0,0,40.77,5a47.38,47.38,0,0,0-4.6-2.08,42.09,42.09,0,0,0-5.63-1.67,46.14,46.14,0,0,0-6.73-1A67.52,67.52,0,0,0,15.87.05a84.74,84.74,0,0,0-9.2.84,1.24,1.24,0,0,0-.91.54A1.56,1.56,0,0,0,5.5,2.54a1.38,1.38,0,0,0,.55,1,1.13,1.13,0,0,0,1,.21,56.81,56.81,0,0,1,9.79-.91C17.56,2.8,18.25,2.82,18.92,2.85Z"/>
        <path d="M10.3,15.5a1.24,1.24,0,0,0-.44-1,1.48,1.48,0,0,0-2.06,0,1.35,1.35,0,0,0-.4,1v68a1.31,1.31,0,0,0,.4,1,1.47,1.47,0,0,0,2.06,0,1.25,1.25,0,0,0,.44-1Z"/>
      </g>
    </g>
  </g>
</svg>
