<svg xmlns="http://www.w3.org/2000/svg" width="25.95" height="60.91" viewBox="0 0 25.95 60.91">
  <g id="Calque_2" data-name="Calque 2">
    <g id="Calque_1_-_copie" data-name="Calque 1 - copie">
      <g>
        <path d="M1.4,0a1.25,1.25,0,0,0-1,.44A1.5,1.5,0,0,0,0,1.5V59.4a1.51,1.51,0,0,0,.42,1.06,1.29,1.29,0,0,0,2,0A1.51,1.51,0,0,0,2.8,59.4V1.5A1.51,1.51,0,0,0,2.38.44,1.25,1.25,0,0,0,1.4,0Z"/>
        <path d="M25.88,4.89a1.23,1.23,0,0,0-.11-1,1.8,1.8,0,0,0-.93-.78,13.46,13.46,0,0,0-3.7-.62,10.25,10.25,0,0,0-3.43.47,20.57,20.57,0,0,0-3.07,1.32,12.06,12.06,0,0,0-2.69,2c-.86.83-1.64,1.64-2.32,2.42a25.68,25.68,0,0,0-2,2.55c-.63.93-1.16,1.74-1.58,2.43S5.25,15,4.9,15.72,4.29,17,4.16,17.25a6,6,0,0,0-.28.71l-.18.51.08.3a1.39,1.39,0,0,0,.88,1.06l.12.06A.77.77,0,0,0,5.2,20a1.31,1.31,0,0,0,1.34-.89c.2-.54.48-1.18.81-1.88a39.33,39.33,0,0,1,2.23-3.75A25.94,25.94,0,0,1,13.2,8.94,13.84,13.84,0,0,1,18,6a9.16,9.16,0,0,1,6-.16,1.52,1.52,0,0,0,1.09-.12A1.37,1.37,0,0,0,25.88,4.89Z"/>
      </g>
    </g>
  </g>
</svg>
