<svg xmlns="http://www.w3.org/2000/svg" width="30.1" height="109.2" viewBox="0 0 30.1 109.2">
  <g id="Calque_2" data-name="Calque 2">
    <g id="Calque_1_-_copie" data-name="Calque 1 - copie">
      <path d="M26.27,82.3A95.31,95.31,0,0,0,30.1,54.6a95.93,95.93,0,0,0-3.83-27.76c-2.53-8.35-6.06-15-10.49-19.75S6.53,0,1.3,0A1.31,1.31,0,0,0,.35.35a1.2,1.2,0,0,0-.35.9,1.34,1.34,0,0,0,.37,1,1.15,1.15,0,0,0,.93.39C6.1,2.6,10.56,5,14.58,9.67s7.14,11,9.45,18.94a93.19,93.19,0,0,1,3.47,26,93.19,93.19,0,0,1-3.47,26c-2.31,7.93-5.49,14.3-9.45,18.94S6.1,106.6,1.3,106.6a1.31,1.31,0,0,0-.95.35,1.21,1.21,0,0,0-.35.9,1.34,1.34,0,0,0,.37,1,1.15,1.15,0,0,0,.93.39c5.23,0,10.1-2.4,14.48-7.14S23.74,90.63,26.27,82.3Z"/>
    </g>
  </g>
</svg>
