<svg xmlns="http://www.w3.org/2000/svg" width="34.61" height="99.11" viewBox="0 0 34.61 99.11">
  <g id="Calque_2" data-name="Calque 2">
    <g id="Calque_1_-_copie" data-name="Calque 1 - copie">
      <path d="M10.46,94.49a16.91,16.91,0,0,0,3-3.83,41.11,41.11,0,0,0,2.32-4.35,50.65,50.65,0,0,0,1.88-5.1c.7-2.14,1.2-3.85,1.49-5.07s.76-3,1.36-5.35c.65-2.83,1.23-5.13,1.7-6.81S23.3,60.5,24,58.63a16.61,16.61,0,0,1,2.33-4.33,10.36,10.36,0,0,1,2.89-2.42,7.23,7.23,0,0,1,4-.87,1.72,1.72,0,0,0,.89-.47,1.51,1.51,0,0,0,.5-.9,1.28,1.28,0,0,0-.33-.79,1.25,1.25,0,0,0-.76-.44l-.14,0L33,48.19a12.11,12.11,0,0,1-4.15-1.6,17.92,17.92,0,0,1-3.24-2.52A16.56,16.56,0,0,1,23,40.41c-.83-1.51-1.53-2.85-2.06-4a36.65,36.65,0,0,1-1.73-4.77c-.61-2.05-1-3.59-1.35-4.72s-.72-2.8-1.26-5l-1.24-4.84c-.3-1.14-.73-2.65-1.3-4.48A37.58,37.58,0,0,0,12.5,8.32a28.63,28.63,0,0,0-2-3.43A10.94,10.94,0,0,0,8.05,2.11,11.65,11.65,0,0,0,5,.53,9.88,9.88,0,0,0,1.27,0a3.18,3.18,0,0,0-.55.2A1.75,1.75,0,0,0,.3.52.85.85,0,0,0,.08.9,2.05,2.05,0,0,0,0,1.41a1,1,0,0,0,.37.87,2.1,2.1,0,0,0,1.09.44h.4a6.87,6.87,0,0,1,3.39.87A10.19,10.19,0,0,1,8.14,6a16.87,16.87,0,0,1,2.32,4.28,56.9,56.9,0,0,1,1.87,5.39c.5,1.73,1.09,4,1.76,6.83s1.19,4.86,1.59,6.39,1,3.5,1.89,5.91a38.58,38.58,0,0,0,2.56,5.87,29.82,29.82,0,0,0,3.25,4.57,16.24,16.24,0,0,0,4.36,3.64l.76.42-.74.44a12.16,12.16,0,0,0-3.46,3.18A20.43,20.43,0,0,0,21.57,58c-.8,2.08-1.43,4-1.89,5.61s-1.06,3.86-1.8,6.59c-.53,2.19-.95,3.88-1.25,5.05s-.75,2.76-1.35,4.72a47.23,47.23,0,0,1-1.67,4.71c-.5,1.13-1.18,2.47-2,4A15.85,15.85,0,0,1,8.9,92.37a19.5,19.5,0,0,1-3.29,2.52A12,12,0,0,1,1.49,96.5a1.34,1.34,0,0,0-.76.62,1.48,1.48,0,0,0-.24,1,1.14,1.14,0,0,0,1.31,1h.34a15.35,15.35,0,0,0,4.6-1.87A25.12,25.12,0,0,0,10.46,94.49Z"/>
    </g>
  </g>
</svg>
