<svg xmlns="http://www.w3.org/2000/svg" width="61.56" height="90.25" viewBox="0 0 61.56 90.25">
  <g id="Calque_2" data-name="Calque 2">
    <g id="Calque_1_-_copie" data-name="Calque 1 - copie">
      <g>
        <path d="M15.62,3.55a36,36,0,0,0-8.54,6A23.1,23.1,0,0,0,.14,28.7a1.33,1.33,0,0,0,.47.92,1.57,1.57,0,0,0,1,.33h.2a1.41,1.41,0,0,0,.92-.52,1.27,1.27,0,0,0,.28-1,18.86,18.86,0,0,1,1.19-9.49A21.12,21.12,0,0,1,9.4,11.29a30.72,30.72,0,0,1,7.67-5.24,34.19,34.19,0,0,1,9.09-2.89,50.67,50.67,0,0,1,7.4-.26,21.64,21.64,0,0,1,7.68,1.84A32.05,32.05,0,0,1,48.3,9a25.64,25.64,0,0,1,5.87,7,37.35,37.35,0,0,1,4.06,10.18l.13.53-4.9.76L53.35,27c-3.1-13.4-11-19.92-24.21-19.92A1.64,1.64,0,0,0,28,7.47a1.37,1.37,0,0,0-.44,1.08,1.37,1.37,0,0,0,1.4,1.4c6.16,0,11.12,1.61,14.73,4.78s6.08,8,7.36,14.43a1.26,1.26,0,0,0,1.41,1.19h.1a1,1,0,0,1,.41.1h.29l6.18-1.08.16-.15.28.05a.86.86,0,0,0,.42,0l.1,0a1.16,1.16,0,0,0,.89-.58,1.53,1.53,0,0,0,.27-1.06,46.21,46.21,0,0,0-2.76-9.07,31.91,31.91,0,0,0-4-7,34,34,0,0,0-5-5.22,22.1,22.1,0,0,0-5.67-3.52,43.59,43.59,0,0,0-6.13-2A24.08,24.08,0,0,0,31.75,0c-2.06,0-4.1.16-6.06.35A33,33,0,0,0,15.62,3.55Z"/>
        <path d="M54.5,80.69a22.81,22.81,0,0,0,5.62-8.56,22,22,0,0,0,1.22-10.62v-.06a1.38,1.38,0,0,0,0-.38.24.24,0,0,0-.06-.11l-.3-.3c-.09-.09-.19-.17-.3-.26a.8.8,0,0,0-.23-.11l-.4-.1-.21.06a1.49,1.49,0,0,0-1,.52,1.28,1.28,0,0,0-.28,1A19.41,19.41,0,0,1,56,74a24.73,24.73,0,0,1-8.72,8.82,32.94,32.94,0,0,1-11.83,4.27,22.4,22.4,0,0,1-6.43.3,38.3,38.3,0,0,1-6.53-1.16,22,22,0,0,1-6.34-2.92,31.45,31.45,0,0,1-5.69-4.77,26.15,26.15,0,0,1-4.59-7,40.68,40.68,0,0,1-3-9.41,1.23,1.23,0,0,0-.58-.93,1.5,1.5,0,0,0-.81-.25l-.27,0a1.4,1.4,0,0,0-.89.6A1.47,1.47,0,0,0,0,62.59,42.86,42.86,0,0,0,3.59,73.38,31.25,31.25,0,0,0,9,81.26,29.63,29.63,0,0,0,23,89.37a34,34,0,0,0,12.85.49A36.34,36.34,0,0,0,46,86.61,34.86,34.86,0,0,0,54.5,80.69Z"/>
        <path d="M59.24,59.05h.33a1.33,1.33,0,0,0,.84-.64,1.46,1.46,0,0,0,.14-1.14,10,10,0,0,0-1.81-3.86,18.52,18.52,0,0,0-2.87-3.07A15.72,15.72,0,0,0,51.75,48c-1.78-.73-3.34-1.3-4.65-1.69a47.43,47.43,0,0,0-5.59-1.18q-3.65-.6-5.69-.9c-1.36-.2-3.42-.43-6.13-.7h0c-2.22-.26-4-.48-5.16-.65s-2.77-.42-4.81-.75-3.65-.64-4.79-.91A35.32,35.32,0,0,1,11,40a16.51,16.51,0,0,1-3.56-1.7,10.65,10.65,0,0,1-2.36-2.2,7,7,0,0,1-1.4-3A1.54,1.54,0,0,0,3,32.22,1.14,1.14,0,0,0,2.32,32,1.56,1.56,0,0,0,2,32a1.59,1.59,0,0,0-1,.65,1.23,1.23,0,0,0-.18,1,9.31,9.31,0,0,0,1.53,3.54,15,15,0,0,0,2.52,2.8,13.19,13.19,0,0,0,3.75,2.12A44.59,44.59,0,0,0,13,43.72c1.27.36,3,.74,5.3,1.14s4.06.69,5.32.85,3.27.39,5.74.65,4.24.48,5.51.65,3,.44,5.22.8,3.94.73,5.15,1.06,2.64.79,4.28,1.36a15,15,0,0,1,3.94,1.92,16.47,16.47,0,0,1,2.63,2.48A7.86,7.86,0,0,1,57.83,58,1.28,1.28,0,0,0,59.24,59.05Z"/>
        <polygon points="59.45 29.36 59.45 29.36 59.45 29.36 59.45 29.36"/>
      </g>
    </g>
  </g>
</svg>
