<svg xmlns="http://www.w3.org/2000/svg" width="43.51" height="61" viewBox="0 0 43.51 61">
  <g id="Calque_2" data-name="Calque 2">
    <g id="Calque_1_-_copie" data-name="Calque 1 - copie">
      <g>
        <path d="M40.66,53A12.72,12.72,0,0,0,43.5,45.1a8.59,8.59,0,0,0-.56-3.57A12.67,12.67,0,0,0,41.3,38.6a11.47,11.47,0,0,0-2.78-2.43,32,32,0,0,0-3.34-2,35.32,35.32,0,0,0-4-1.63c-1.71-.59-3.06-1-4-1.29s-2.38-.63-4.24-1.09h0a75,75,0,0,1-8.36-2.62,1.33,1.33,0,0,0-1.09,0,1.52,1.52,0,0,0-.76.8,1.3,1.3,0,0,0,0,1.06,1.33,1.33,0,0,0,.82.77c1.64.66,4.55,1.56,8.65,2.69,1.94.53,3.41.95,4.41,1.25s2.36.74,4.07,1.31a23.65,23.65,0,0,1,4,1.69,29,29,0,0,1,3,2A7.32,7.32,0,0,1,40,41.89a7.48,7.48,0,0,1,.7,3.21c0,3.63-1.89,6.74-5.62,9.26A23.34,23.34,0,0,1,21.75,58.1,23.34,23.34,0,0,1,8.42,54.36C4.69,51.84,2.8,48.73,2.8,45.1A1.51,1.51,0,0,0,2.38,44a1.25,1.25,0,0,0-1-.44,1.24,1.24,0,0,0-1,.44A1.5,1.5,0,0,0,0,45.1c0,4.35,2.12,8.11,6.3,11.2A25.47,25.47,0,0,0,21.8,61a27.75,27.75,0,0,0,11-2.16A19.51,19.51,0,0,0,40.66,53Z"/>
        <path d="M0,15.9a12.64,12.64,0,0,0,2.46,7.41,18.48,18.48,0,0,0,6.87,5.74,1.41,1.41,0,0,0,.67.15,1.37,1.37,0,0,0,1.26-.84,1.51,1.51,0,0,0,0-1.05,1.58,1.58,0,0,0-.73-.88,17.8,17.8,0,0,1-4.09-2.87A12.59,12.59,0,0,1,3.75,20a9.27,9.27,0,0,1-1-4.07A9.8,9.8,0,0,1,5.42,9.32a17.86,17.86,0,0,1,6.94-4.68A25.2,25.2,0,0,1,21.8,2.9a24.79,24.79,0,0,1,9.39,1.74,17.45,17.45,0,0,1,6.89,4.79A10.4,10.4,0,0,1,40.7,16.3,1.22,1.22,0,0,0,41,17.36a1.25,1.25,0,0,0,1,.44,1.18,1.18,0,0,0,1-.35,1.46,1.46,0,0,0,.45-1.05v-.5c0-4.28-2.12-8-6.3-11.15A25.23,25.23,0,0,0,21.75,0,25.38,25.38,0,0,0,6.3,4.7C2.12,7.79,0,11.55,0,15.9Z"/>
      </g>
    </g>
  </g>
</svg>
