<svg xmlns="http://www.w3.org/2000/svg" width="54.05" height="83" viewBox="0 0 54.05 83">
  <g id="Calque_2" data-name="Calque 2">
    <g id="Calque_1_-_copie" data-name="Calque 1 - copie">
      <path d="M15.28,82.22,53.85,2.08A1.05,1.05,0,0,0,53.59.57a.61.61,0,0,1-.3-.21l-.07,0A1.56,1.56,0,0,0,52.4,0H1.4a1.24,1.24,0,0,0-1,.44A1.5,1.5,0,0,0,0,1.5,1.37,1.37,0,0,0,1.4,2.9H50.6L13.21,80.4H6.4L36.15,18.58a1.35,1.35,0,0,0,0-1,1.2,1.2,0,0,0-.64-.72,1.25,1.25,0,0,0-1,0,1.16,1.16,0,0,0-.71.68L3.2,81v.39l-.12,0A2.54,2.54,0,0,0,3,81.8v.12a2,2,0,0,1,.08.31c.13.21.21.34.25.39h0l.25.16a1,1,0,0,1,.22.16,1.85,1.85,0,0,0,.5.06h9.8a1.28,1.28,0,0,0,.58-.15l.12-.06a4,4,0,0,0,.39-.47Z"/>
    </g>
  </g>
</svg>
