<svg xmlns="http://www.w3.org/2000/svg" width="49.14" height="80.35" viewBox="0 0 49.14 80.35">
  <g id="Calque_2" data-name="Calque 2">
    <g id="Calque_1_-_copie" data-name="Calque 1 - copie">
      <g>
        <path d="M43.73,70.77a27.91,27.91,0,0,0,3.93-8.55,1.14,1.14,0,0,0-.14-1,1.39,1.39,0,0,0-.82-.63,1.12,1.12,0,0,0-1,.15,1.4,1.4,0,0,0-.63.81,22.53,22.53,0,0,1-5.73,10.17A19.63,19.63,0,0,1,31,76.93a24,24,0,0,1-9.14.72A23.71,23.71,0,0,1,9.63,72.59,14.17,14.17,0,0,1,3.94,61.88a1.18,1.18,0,0,0-.39-1,1.42,1.42,0,0,0-1-.37,2.4,2.4,0,0,0-.63.28,1.07,1.07,0,0,0-.42.45,1.44,1.44,0,0,0-.15.67A16.78,16.78,0,0,0,7.71,74.37,26,26,0,0,0,21.6,80.26c.88.06,1.84.09,2.84.09a26,26,0,0,0,6.92-.93,24.47,24.47,0,0,0,6.61-3A20.6,20.6,0,0,0,43.73,70.77Z"/>
        <path d="M40.2,36.92a20.64,20.64,0,0,0-5-3.37,22.8,22.8,0,0,0-5.92-1.85,24.66,24.66,0,0,0-6.37-.25,25.23,25.23,0,0,0-9.36,2.8,24.31,24.31,0,0,0-7.4,5.92A22.42,22.42,0,0,0,1.34,57.1a1.45,1.45,0,0,0,.26.61,1.78,1.78,0,0,0,.51.47,1,1,0,0,0,.53.17h.2a1.38,1.38,0,0,0,.82-.52A1.14,1.14,0,0,0,4,56.92,19.62,19.62,0,0,1,8.16,41.84a21.27,21.27,0,0,1,14.93-7.78,23.06,23.06,0,0,1,2.46-.13,18.29,18.29,0,0,1,12.93,5C43,43,45.18,49.05,45,57a1.27,1.27,0,0,0,.36.94,1.64,1.64,0,0,0,1,.46,1.28,1.28,0,0,0,.84-.41,1.24,1.24,0,0,0,.4-.9C47.77,48.37,45.27,41.6,40.2,36.92Z"/>
        <path d="M42,7.3A22.85,22.85,0,0,0,32.1.88,21.58,21.58,0,0,0,26,0a22.24,22.24,0,0,0-4.36.44,22.84,22.84,0,0,0-8.9,4,29.21,29.21,0,0,0-7.28,7.86A34.75,34.75,0,0,0,.88,24.55,56.33,56.33,0,0,0,.34,40.8a1.33,1.33,0,0,0,.44.83,1.21,1.21,0,0,0,.86.32h.2a1.22,1.22,0,0,0,.85-.5A1.23,1.23,0,0,0,3,40.52a55.17,55.17,0,0,1,.4-15A32.35,32.35,0,0,1,7.42,14.09,27.11,27.11,0,0,1,14,6.7,20.56,20.56,0,0,1,22.14,3,19.1,19.1,0,0,1,35.85,5.67c4.45,2.69,7.83,7.2,10.06,13.41l.18.49-4,1.3-.19-.42a23.87,23.87,0,0,0-7.44-9.7,15,15,0,0,0-10-3.3,1.21,1.21,0,0,0-1,.39,1.12,1.12,0,0,0-.27.95c0,.55.17,1.13,1.45,1.27,3-.28,6.09.83,9,3.31A21.84,21.84,0,0,1,40,22.79c.09.11.25.29.45.55l.06.09a.42.42,0,0,0,.08.13,1.33,1.33,0,0,0,1.11.12l6.61-2,.47-.31a.52.52,0,0,0,.18-.19v0l.09-.22a.68.68,0,0,0,.11-.33v-.2a.59.59,0,0,0,0-.28A31.32,31.32,0,0,0,42,7.3Z"/>
      </g>
    </g>
  </g>
</svg>
