<svg xmlns="http://www.w3.org/2000/svg" width="34.7" height="34.8" viewBox="0 0 34.7 34.8">
  <g id="Calque_2" data-name="Calque 2">
    <g id="Calque_1_-_copie" data-name="Calque 1 - copie">
      <path d="M34.35,16.46a1.27,1.27,0,0,0-1-.36H21.32L31,8.71a1.08,1.08,0,0,0,.5-.82,1.3,1.3,0,0,0-.25-1,1.24,1.24,0,0,0-.87-.5,1.15,1.15,0,0,0-1,.29L18.7,14.81V1.3a1.22,1.22,0,0,0-.4-.89,1.3,1.3,0,0,0-1.85,0,1.3,1.3,0,0,0-.35.94V14.8L5.3,6.7a1.19,1.19,0,0,0-1-.3,1.24,1.24,0,0,0-.86.5,1.3,1.3,0,0,0-.25,1,1,1,0,0,0,.48.8l9.81,7.41H1.3a1.27,1.27,0,0,0-.95.36,1.18,1.18,0,0,0-.35.89,1.37,1.37,0,0,0,.37,1,1.17,1.17,0,0,0,.93.38H13.51L3.7,26a1.36,1.36,0,0,0-.51.86,1.14,1.14,0,0,0,.29.91,1.13,1.13,0,0,0,1,.62,1.21,1.21,0,0,0,.79-.29L16.1,20V33.4a1.44,1.44,0,0,0,.37,1,1.17,1.17,0,0,0,.93.38,1.34,1.34,0,0,0,.61-.18,1.23,1.23,0,0,0,.5-.51,1.4,1.4,0,0,0,.19-.71V20l10.7,8.11a1.25,1.25,0,0,0,.8.29,1.09,1.09,0,0,0,1-.56,1.18,1.18,0,0,0,.32-1A1.34,1.34,0,0,0,31,26L21.3,18.7H33.4a1.19,1.19,0,0,0,.93-.38,1.38,1.38,0,0,0,.37-1A1.23,1.23,0,0,0,34.35,16.46Z"/>
    </g>
  </g>
</svg>
