<svg xmlns="http://www.w3.org/2000/svg" width="65.7" height="83.8" viewBox="0 0 65.7 83.8">
  <g id="Calque_2" data-name="Calque 2">
    <g id="Calque_1_-_copie" data-name="Calque 1 - copie">
      <g>
        <path d="M41.5,83.4a1.35,1.35,0,0,0,.4-1V48.5a1.4,1.4,0,1,0-2.8,0V82.4a1.35,1.35,0,0,0,.4,1A1.44,1.44,0,0,0,41.5,83.4Z"/>
        <path d="M65.59.85a1.37,1.37,0,0,0-.3-.45,1.35,1.35,0,0,0-.44-.29A1.42,1.42,0,0,0,64.3,0H1.4A1.37,1.37,0,0,0,0,1.4v9.9a1.37,1.37,0,0,0,1.4,1.4H31.7V82.4a1.35,1.35,0,0,0,.4,1,1.47,1.47,0,0,0,1.1.4,1.4,1.4,0,0,0,.71-.19,1.27,1.27,0,0,0,.5-.5,1.4,1.4,0,0,0,.19-.71V11.3a1.37,1.37,0,0,0-1.4-1.4H2.8v-7H64.3a1.25,1.25,0,0,0,1-.44A1.51,1.51,0,0,0,65.7,1.4,1.42,1.42,0,0,0,65.59.85Z"/>
      </g>
    </g>
  </g>
</svg>
