<svg xmlns="http://www.w3.org/2000/svg" width="26.87" height="78.6" viewBox="0 0 26.87 78.6">
  <g id="Calque_2" data-name="Calque 2">
    <g id="Calque_1_-_copie" data-name="Calque 1 - copie">
      <g>
        <path d="M.4,21.7a1.35,1.35,0,0,0,1,.4h9.7V63.8a1.35,1.35,0,0,0,.4,1,1.49,1.49,0,0,0,2.06,0h0a1.27,1.27,0,0,0,.44-1V22.1H24.9a1.36,1.36,0,0,0,1-.4,1.44,1.44,0,0,0,0-2,1.37,1.37,0,0,0-1-.41H14V1.4a1.27,1.27,0,0,0-.44-1,1.49,1.49,0,0,0-2.06,0,1.33,1.33,0,0,0-.4,1V19.3H1.4a1.34,1.34,0,0,0-1,.41,1.31,1.31,0,0,0-.41,1A1.35,1.35,0,0,0,.4,21.7Z"/>
        <path d="M12.07,73.29A7.66,7.66,0,0,0,14.7,77c2.53,2,6.24,2.14,11.24.43a2.05,2.05,0,0,0,.46-.33,1.35,1.35,0,0,0,.29-.44,2.7,2.7,0,0,0,.17-.58,1.37,1.37,0,0,0,0-.52,1.59,1.59,0,0,0-.45-.63,1.38,1.38,0,0,0-.67-.34,1.25,1.25,0,0,0-.71.08c-3.84,1.39-6.72,1.4-8.58,0-1.54-1.25-2.31-3.5-2.31-6.71a1.68,1.68,0,0,0-.4-1,1.07,1.07,0,0,0-.9-.46h-.21a1.19,1.19,0,0,0-.85.33,1.59,1.59,0,0,0-.54,1,10.59,10.59,0,0,0,0,1.86A14.34,14.34,0,0,0,12.07,73.29Z"/>
      </g>
    </g>
  </g>
</svg>
