<svg xmlns="http://www.w3.org/2000/svg" width="51.6" height="82.7" viewBox="0 0 51.6 82.7">
  <g id="Calque_2" data-name="Calque 2">
    <g id="Calque_1_-_copie" data-name="Calque 1 - copie">
      <g>
        <path d="M47.7,49.55a22.65,22.65,0,0,0-10.18-7.78l-1.19-.47,1.19-.47A22.65,22.65,0,0,0,47.7,33.05,19.63,19.63,0,0,0,51.6,21.2,19.85,19.85,0,0,0,45,6.21,22.69,22.69,0,0,0,29,0a1.31,1.31,0,0,0-.95.35,1.2,1.2,0,0,0-.35.9,1.34,1.34,0,0,0,.37,1A1.15,1.15,0,0,0,29,2.6,20,20,0,0,1,43,8,17.41,17.41,0,0,1,48.9,21.2,17.53,17.53,0,0,1,43,34.41,19.88,19.88,0,0,1,29,39.9a1.48,1.48,0,0,0-.68.15,1,1,0,0,0-.43.44,1.4,1.4,0,0,0-.19.71v.3a1.29,1.29,0,0,0,.37.91,1.15,1.15,0,0,0,.93.39,20.44,20.44,0,0,1,7.69,1.49,21.46,21.46,0,0,1,6.4,3.94A17.89,17.89,0,0,1,43,74.67,20,20,0,0,1,29,80.1a1.16,1.16,0,0,0-.93.39,1.36,1.36,0,0,0-.37,1,1.24,1.24,0,0,0,.35.9,1.31,1.31,0,0,0,.95.35,22.65,22.65,0,0,0,16-6.22A20.23,20.23,0,0,0,47.7,49.55Z"/>
        <path d="M22.6,0a22.64,22.64,0,0,0-16,6.21A19.94,19.94,0,0,0,0,21.2a1.22,1.22,0,0,0,.81,1.24l.09.06a1.57,1.57,0,0,0,.62.31l5.73,1.13.11.11a1.52,1.52,0,0,0,.94-.65l.07-.09.11-.06A1.16,1.16,0,0,0,9.2,22.1a11.63,11.63,0,0,1,3.91-8.77A13.32,13.32,0,0,1,22.5,9.7a1.37,1.37,0,0,0,1.3-1.3,1,1,0,0,0-.1-.48,1.92,1.92,0,0,0-.3-.42A1.63,1.63,0,0,0,23,7.2a1,1,0,0,0-.48-.1A15.69,15.69,0,0,0,11.88,11,14.75,14.75,0,0,0,6.7,20.66l-.07.54-4-.8,0-.44A17.61,17.61,0,0,1,9,7.62a20.13,20.13,0,0,1,13.63-5,1.24,1.24,0,0,0,.9-.4,1.3,1.3,0,0,0,.4-1,1.1,1.1,0,0,0-.39-.88A1.29,1.29,0,0,0,22.6,0Z"/>
        <path d="M23.51,80.47a1.29,1.29,0,0,0-.91-.37A20,20,0,0,1,8.46,74.61,17.53,17.53,0,0,1,2.6,61.4a1.26,1.26,0,0,0-.4-.9,1.32,1.32,0,0,0-1-.4,1.1,1.1,0,0,0-.88.39A1.29,1.29,0,0,0,0,61.4,20.14,20.14,0,0,0,3,72.09a21.67,21.67,0,0,0,8.21,7.77A23.3,23.3,0,0,0,22.6,82.7a1.26,1.26,0,0,0,.9-.4,1.32,1.32,0,0,0,.4-1A1.1,1.1,0,0,0,23.51,80.47Z"/>
      </g>
    </g>
  </g>
</svg>
