<svg xmlns="http://www.w3.org/2000/svg" width="46.8" height="81.78" viewBox="0 0 46.8 81.78">
  <g id="Calque_2" data-name="Calque 2">
    <g id="Calque_1_-_copie" data-name="Calque 1 - copie">
      <g>
        <path d="M46.18,79.58a1.22,1.22,0,0,0-.89-.4H3.39a1.24,1.24,0,0,0-.9.4,1.24,1.24,0,0,0-.4.9,1.1,1.1,0,0,0,.17.63,1.44,1.44,0,0,0,.49.49,1.17,1.17,0,0,0,.64.18h41.9a1.29,1.29,0,0,0,.91-.37,1.13,1.13,0,0,0,.39-.88A1.29,1.29,0,0,0,46.18,79.58Z"/>
        <path d="M2,14.08A24.79,24.79,0,0,0,.18,26.92c0,.28.07.6.65.92L1,28a1.23,1.23,0,0,0,1.47.45l8.67-3.29A1.15,1.15,0,0,0,12,23.88v-.12a2.71,2.71,0,0,0,.09-.68,11.28,11.28,0,0,1,4.8-11A12.24,12.24,0,0,1,22.54,10a10.37,10.37,0,0,1,5.66.95c4.09,1.94,6.38,6.12,6.79,12.42a1,1,0,0,0,.36.89,1.57,1.57,0,0,0,1,.34,1.06,1.06,0,0,0,.83-.39,1.42,1.42,0,0,0,.37-1,24.33,24.33,0,0,0-1.08-6.1,14,14,0,0,0-2.21-4.34,19.81,19.81,0,0,0-2.53-2.68,11,11,0,0,0-2.39-1.53,13.5,13.5,0,0,0-7-1.2A13.78,13.78,0,0,0,15.38,10c-4.23,3-6.15,7.11-5.89,12.57v.37L2.6,25.49v-.7A22.67,22.67,0,0,1,4.74,14.46a20.6,20.6,0,0,1,6.65-7.89,21.67,21.67,0,0,1,10.3-3.84A18.76,18.76,0,0,1,40.63,12.84a32.58,32.58,0,0,1,3.56,14,1.42,1.42,0,0,0,.48.86,1.19,1.19,0,0,0,.93.32,1.34,1.34,0,0,0,.92-.44,1,1,0,0,0,.27-.84,35.64,35.64,0,0,0-4-15.43A21.67,21.67,0,0,0,33.17,2,21.35,21.35,0,0,0,24,0a22.79,22.79,0,0,0-2.46.13A24,24,0,0,0,10,4.39,22.57,22.57,0,0,0,2,14.08Z"/>
        <path d="M46.33,30.53a1.37,1.37,0,0,0-1.86,0,1.17,1.17,0,0,0-.38.93,9.5,9.5,0,0,1-1.32,4.59,23.2,23.2,0,0,1-2.86,4.09,35.41,35.41,0,0,1-4.72,4.21c-2.07,1.6-3.79,2.87-5.12,3.77S26.7,50.37,24.16,52l-3.95,2.59-3.75,2.5a41.25,41.25,0,0,0-3.65,2.67q-1.31,1.1-3.15,2.7a18.5,18.5,0,0,0-2.77,2.87c-.66.88-1.32,1.88-2,3a12.87,12.87,0,0,0-1.39,3.17,12.07,12.07,0,0,0-.43,3.22,1.19,1.19,0,0,0,.38.93,1.36,1.36,0,0,0,1.86,0,1.24,1.24,0,0,0,.36-.94A9.52,9.52,0,0,1,7,70.08,23.11,23.11,0,0,1,9.86,66a35.31,35.31,0,0,1,4.72-4.22c2.06-1.6,3.79-2.86,5.13-3.77s3.27-2.16,5.91-3.85c2.32-1.46,4.09-2.62,5.28-3.44s2.8-2,4.8-3.4a35,35,0,0,0,4.53-3.74c1.05-1.09,2.17-2.34,3.32-3.72a12.81,12.81,0,0,0,3.14-8.38A1.27,1.27,0,0,0,46.33,30.53Z"/>
      </g>
    </g>
  </g>
</svg>
