<svg xmlns="http://www.w3.org/2000/svg" width="54.4" height="84.4" viewBox="0 0 54.4 84.4">
  <g id="Calque_2" data-name="Calque 2">
    <g id="Calque_1_-_copie" data-name="Calque 1 - copie">
      <g>
        <path d="M.1,52.1a1.35,1.35,0,0,0,.4,1,1.48,1.48,0,0,0,2.06,0h0a1.24,1.24,0,0,0,.44-1V2.8H5.9v33a1.25,1.25,0,0,0,.44,1,1.48,1.48,0,0,0,2.06,0,1.36,1.36,0,0,0,.4-1V1.4A1.37,1.37,0,0,0,7.4,0H1.5A1.36,1.36,0,0,0,.5.4a1.35,1.35,0,0,0-.4,1Z"/>
        <path d="M53.9,55.1a1.44,1.44,0,0,0-2,0,1.36,1.36,0,0,0-.4,1,25.1,25.1,0,0,1-7.14,17.95A23.16,23.16,0,0,1,27.1,81.5a23.07,23.07,0,0,1-12.16-3.42,25,25,0,0,1-8.88-9.24A25.72,25.72,0,0,1,2.8,56.1a1.37,1.37,0,0,0-1.4-1.4A1.37,1.37,0,0,0,0,56.1a28,28,0,0,0,8,20,25.71,25.71,0,0,0,19.19,8.3,25.71,25.71,0,0,0,19.19-8.3,28,28,0,0,0,8-20A1.36,1.36,0,0,0,53.9,55.1Z"/>
        <path d="M54.4,1.4a1.25,1.25,0,0,0-.44-1A1.51,1.51,0,0,0,52.9,0a1.37,1.37,0,0,0-1.4,1.4V52.1a1.35,1.35,0,0,0,.4,1,1.48,1.48,0,0,0,2.06,0,1.24,1.24,0,0,0,.44-1Z"/>
      </g>
    </g>
  </g>
</svg>
