<svg xmlns="http://www.w3.org/2000/svg" width="44.2" height="63.4" viewBox="0 0 44.2 63.4">
  <g id="Calque_2" data-name="Calque 2">
    <g id="Calque_1_-_copie" data-name="Calque 1 - copie">
      <g>
        <path d="M44.2,45.9a1.46,1.46,0,0,0-.45-1,1.37,1.37,0,0,0-2,0h0a1.51,1.51,0,0,0-.42,1.06c0,4-1.92,7.5-5.7,10.35A21.87,21.87,0,0,1,22.1,60.5,21.64,21.64,0,0,1,8.65,56.25C4.9,53.4,3,49.92,3,45.9a1.46,1.46,0,0,0-.45-1,1.46,1.46,0,0,0-1-.45,1.24,1.24,0,0,0-1,.44A1.51,1.51,0,0,0,.1,45.9c0,4.75,2.16,8.89,6.41,12.31A24.24,24.24,0,0,0,22.1,63.4a24.46,24.46,0,0,0,15.64-5.19C42,54.79,44.2,50.65,44.2,45.9Z"/>
        <path d="M40.8,40.5a1.25,1.25,0,0,0,.44,1,1.48,1.48,0,0,0,2.06,0,1.35,1.35,0,0,0,.4-1V1.5A1.51,1.51,0,0,0,43.28.44a1.25,1.25,0,0,0-1-.44,1.46,1.46,0,0,0-1,.45A1.46,1.46,0,0,0,40.8,1.5Z"/>
        <path d="M1.4,0a1.25,1.25,0,0,0-1,.44A1.5,1.5,0,0,0,0,1.5v39a1.35,1.35,0,0,0,.4,1,1.44,1.44,0,0,0,2,0,1.35,1.35,0,0,0,.4-1V1.5A1.51,1.51,0,0,0,2.38.44,1.25,1.25,0,0,0,1.4,0Z"/>
      </g>
    </g>
  </g>
</svg>
