<svg xmlns="http://www.w3.org/2000/svg" width="62.34" height="83.71" viewBox="0 0 62.34 83.71">
  <g id="Calque_2" data-name="Calque 2">
    <g id="Calque_1_-_copie" data-name="Calque 1 - copie">
      <path d="M31.3,82.51h.09L62.27,2l.07-.28V1.42s0-.14-.08-.26l0-.15a.5.5,0,0,0,0-.12L62.09.73,61.91.45a5.33,5.33,0,0,0-.5-.3l-.12,0A.82.82,0,0,1,60.91,0H53.64a.74.74,0,0,0-.24,0l-.16.16H53l-.17.11-.18.19a.75.75,0,0,1-.27.31l0,.08L42.8,25.79a1.35,1.35,0,0,0,0,1.08,1.32,1.32,0,0,0,.81.77,1.89,1.89,0,0,0,.53.07,1.31,1.31,0,0,0,1.34-.9l9.11-23.9h4.28L29.92,78.15,2.77,1A1.18,1.18,0,0,0,2.08.21,1.51,1.51,0,0,0,.94.13a1.35,1.35,0,0,0-.8.74,1.19,1.19,0,0,0,0,1L28.49,82.65l.11.17a1.32,1.32,0,0,0,.44.59l.32.21h0a1.64,1.64,0,0,0,.94,0V83.6l.47-.24a1.4,1.4,0,0,0,.36-.54Z"/>
    </g>
  </g>
</svg>
