<svg xmlns="http://www.w3.org/2000/svg" width="45.42" height="61.24" viewBox="0 0 45.42 61.24">
  <g id="Calque_2" data-name="Calque 2">
    <g id="Calque_1_-_copie" data-name="Calque 1 - copie">
      <g>
        <path d="M30.13,42a1.3,1.3,0,0,0-.8-.74,1.44,1.44,0,0,0-1.13.08,1.15,1.15,0,0,0-.68.82L22.44,56.32,2.77,1.11A1.17,1.17,0,0,0,2.08.34,1.68,1.68,0,0,0,1.41.18,1.6,1.6,0,0,0,.94.26a1.32,1.32,0,0,0-.8.7,1.31,1.31,0,0,0,0,1.1l20.7,58.31a1.38,1.38,0,0,0,1.43.87h.5a1.31,1.31,0,0,0,1.34-.9l6.09-17.17A1.44,1.44,0,0,0,30.13,42Z"/>
        <path d="M45.27.87A1.3,1.3,0,0,0,44.5.1a1.32,1.32,0,0,0-1.1,0,1.53,1.53,0,0,0-.8.87L29.11,37.71a1.34,1.34,0,0,0,0,1.09,1.32,1.32,0,0,0,.81.77,1.89,1.89,0,0,0,.53.07,1.31,1.31,0,0,0,1.33-1L45.37,2A1.69,1.69,0,0,0,45.27.87Z"/>
      </g>
    </g>
  </g>
</svg>
