<svg xmlns="http://www.w3.org/2000/svg" width="96.03" height="83.5" viewBox="0 0 96.03 83.5">
  <g id="Calque_2" data-name="Calque 2">
    <g id="Calque_1_-_copie" data-name="Calque 1 - copie">
      <path d="M75.16,83.1h.08a2.07,2.07,0,0,0,.35-.66l0-.11.08-.08L96,1.78A1.33,1.33,0,0,0,95.84.72a1.39,1.39,0,0,0-.9-.63,1.48,1.48,0,0,0-1.13.15,1,1,0,0,0-.55.82L74.12,76.91,49.65,1.14a.57.57,0,0,1-.17-.28L49.31.52a.36.36,0,0,0-.05-.09A1.67,1.67,0,0,1,49,.22L48.56,0l-.87.05a5.06,5.06,0,0,0-.53.35A.44.44,0,0,0,47,.52a2,2,0,0,1-.15.26l0,.18L22,76.8,3.32,2.9H8l6.9,27.58a1.3,1.3,0,0,0,1.41,1.12.69.69,0,0,0,.28,0l.1,0a1.39,1.39,0,0,0,.9-.63,1.35,1.35,0,0,0,.14-1.07L10.48,1.13a1.39,1.39,0,0,0-.63-.9A1.36,1.36,0,0,0,8.78.09l-.17,0L8.44.05,8.32,0H1.76a2.71,2.71,0,0,0-.68.09A1.58,1.58,0,0,0,.22.74a1.19,1.19,0,0,0-.17,1l20.4,80.6a1.18,1.18,0,0,0,1.31,1.12.69.69,0,0,0,.28,0l.12,0a1.22,1.22,0,0,0,1.1-1.24V82l0-.07L48.17,6,72.78,82.36a.67.67,0,0,1,.17.31,1.39,1.39,0,0,0,.34.48.6.6,0,0,1,.27.2.39.39,0,0,0,.2.05h.12l.11.06a1.34,1.34,0,0,0,.71,0l.15,0,.16-.15Z"/>
    </g>
  </g>
</svg>
