<svg xmlns="http://www.w3.org/2000/svg" width="74.93" height="61.27" viewBox="0 0 74.93 61.27">
  <g id="Calque_2" data-name="Calque 2">
    <g id="Calque_1_-_copie" data-name="Calque 1 - copie">
      <g>
        <path d="M25.88,43a1.23,1.23,0,0,0-.05-1.11,1.59,1.59,0,0,0-.92-.72,1.32,1.32,0,0,0-1.1.11,1.33,1.33,0,0,0-.67.88l-4,13.33L2.88,1.12A1.48,1.48,0,0,0,2.14.27a1.37,1.37,0,0,0-1-.12A1.34,1.34,0,0,0,.58.41,1.76,1.76,0,0,0,.19.87,1.41,1.41,0,0,0,0,1.39a.76.76,0,0,0,.1.46L17.54,60.23a1.34,1.34,0,0,0,1.22,1l.09-.09h.62l.09.09a1.26,1.26,0,0,0,1.22-1Z"/>
        <path d="M62.18,43A1.41,1.41,0,0,0,62,41.92a1.47,1.47,0,0,0-.87-.72,1.2,1.2,0,0,0-1,.11,1.36,1.36,0,0,0-.67.88l-4.09,13.3L39.08,1.12a1.42,1.42,0,0,0-1.2-1h-.14a1.59,1.59,0,0,0-1.16.11,1.2,1.2,0,0,0-.64.82L24.44,37.72a1.52,1.52,0,0,0,.12,1.09,1.15,1.15,0,0,0,.82.68,1.5,1.5,0,0,0,.48.08,1.24,1.24,0,0,0,1.32-1L37.47,5.67,53.84,60.23a1.23,1.23,0,0,0,1.21,1l.19-.1h.12a.73.73,0,0,1,.36.1,1.26,1.26,0,0,0,1.26-1Z"/>
        <path d="M74.88,1.82A1.59,1.59,0,0,0,74.76.69,1.17,1.17,0,0,0,74,.06a2.58,2.58,0,0,0-.39,0,2.71,2.71,0,0,0-.4,0,1.14,1.14,0,0,0-.6.32,2,2,0,0,0-.44.68L60.74,37.72a1.13,1.13,0,0,0,.06,1.07,1.34,1.34,0,0,0,.88.7,1.46,1.46,0,0,0,.38.08,1.3,1.3,0,0,0,1.42-1Z"/>
      </g>
    </g>
  </g>
</svg>
