<svg xmlns="http://www.w3.org/2000/svg" width="62.61" height="83.42" viewBox="0 0 62.61 83.42">
  <g id="Calque_2" data-name="Calque 2">
    <g id="Calque_1_-_copie" data-name="Calque 1 - copie">
      <path d="M62.39,81.17,35.31,41.72,62.41,2.23a1.49,1.49,0,0,0,.17-1.06A1.32,1.32,0,0,0,62,.28,1.51,1.51,0,0,0,60.88,0a1,1,0,0,0-.82.56L33.52,39.2,7,.6A1.1,1.1,0,0,0,6.16,0,1.56,1.56,0,0,0,5.05.28a1.37,1.37,0,0,0-.59.89,1.54,1.54,0,0,0,.19,1.1L31.83,41.72l-.2.28L5.3,80.28l-2.14-2L13.51,63.73a1.44,1.44,0,0,0-.32-2,1.37,1.37,0,0,0-1.08-.22,1.62,1.62,0,0,0-1,.58L.23,77.41A1.77,1.77,0,0,0,0,78.56v.11a1.24,1.24,0,0,0,.43,1.17L4.24,83a1.16,1.16,0,0,0,.88.38l.24-.08.2-.06.28.14A1.41,1.41,0,0,0,7,82.82l26.5-38.59L60,82.83a1.39,1.39,0,0,0,1.19.59,1.6,1.6,0,0,0,.84-.23,1.65,1.65,0,0,0,.52-.92A1.54,1.54,0,0,0,62.39,81.17Z"/>
    </g>
  </g>
</svg>
