<svg xmlns="http://www.w3.org/2000/svg" width="44.38" height="63.39" viewBox="0 0 44.38 63.39">
  <g id="Calque_2" data-name="Calque 2">
    <g id="Calque_1_-_copie" data-name="Calque 1 - copie">
      <g>
        <path d="M43.72.26A1.39,1.39,0,0,0,42.64,0a1.46,1.46,0,0,0-.94.65l-18.49,28A1.57,1.57,0,0,0,23,29.74a1.68,1.68,0,0,0,.55.94,1.6,1.6,0,0,0,.81.21,1.33,1.33,0,0,0,1.18-.68L44.18,2.31a1.66,1.66,0,0,0,.17-1.13A1.34,1.34,0,0,0,43.72.26Z"/>
        <path d="M43.88,61.08,25.56,33.24a1.16,1.16,0,0,0-.86-.61,1.53,1.53,0,0,0-.3,0,1.29,1.29,0,0,0-.77.25,1.58,1.58,0,0,0-.66.92,1.15,1.15,0,0,0,.23,1L41.51,62.61a1.34,1.34,0,0,0,1.18.68,1.6,1.6,0,0,0,.84-.23,1.48,1.48,0,0,0,.62-.92A1.3,1.3,0,0,0,43.88,61.08Z"/>
        <path d="M21.35,33.73a1.3,1.3,0,0,0-.63-.87,1.39,1.39,0,0,0-1.08-.23,1.5,1.5,0,0,0-.94.65L.21,61.16A1.62,1.62,0,0,0,0,62.29a1.28,1.28,0,0,0,.54.88,1.57,1.57,0,0,0,.82.22,1.25,1.25,0,0,0,1.18-.57l18.61-28A1.55,1.55,0,0,0,21.35,33.73Z"/>
        <path d="M.23,1.34a1.54,1.54,0,0,0,.19,1.1L18.71,30.21a1.42,1.42,0,0,0,1.28.68,1.45,1.45,0,0,0,.74-.23,1.17,1.17,0,0,0,.62-.87,1.68,1.68,0,0,0-.19-1.16L2.76.84A1.16,1.16,0,0,0,1.9.23a1.53,1.53,0,0,0-.3,0A1.29,1.29,0,0,0,.83.45,1.35,1.35,0,0,0,.23,1.34Z"/>
      </g>
    </g>
  </g>
</svg>
