<svg xmlns="http://www.w3.org/2000/svg" width="70.23" height="83.8" viewBox="0 0 70.23 83.8">
  <g id="Calque_2" data-name="Calque 2">
    <g id="Calque_1_-_copie" data-name="Calque 1 - copie">
      <path d="M40.17,48,70,2.23a1.24,1.24,0,0,0,.24-1.11,1.37,1.37,0,0,0-.63-.89A1.49,1.49,0,0,0,68.46,0a1.17,1.17,0,0,0-.85.61l-30,45.9v.16l-.14.24a.73.73,0,0,0-.09.19,1.18,1.18,0,0,0-.07.19V80.9h-4.1V47.5a2,2,0,0,0-.16-.72,1.76,1.76,0,0,0-.1-.24L3.84,2.9h4.7L30.59,36a1.34,1.34,0,0,0,1.18.68,1.67,1.67,0,0,0,.85-.23,1.44,1.44,0,0,0,.61-.92A1.29,1.29,0,0,0,33,34.49L10.76,1.08A2,2,0,0,0,10.27.6L10.19.53a1.28,1.28,0,0,0-1-.53H1.77A1.45,1.45,0,0,0,.41.84,1.31,1.31,0,0,0,.28,2.6L30.37,47.85V82.4a1.38,1.38,0,0,0,1.4,1.4h6.29l.09,0,.72-.36v.4a1.45,1.45,0,0,0,.86-.41,1.24,1.24,0,0,0,.44-1Z"/>
    </g>
  </g>
</svg>
