<svg xmlns="http://www.w3.org/2000/svg" width="44.89" height="80.96" viewBox="0 0 44.89 80.96">
  <g id="Calque_2" data-name="Calque 2">
    <g id="Calque_1_-_copie" data-name="Calque 1 - copie">
      <g>
        <path d="M16.34,73a77.45,77.45,0,0,0,8.24-14.3c2.58-5.66,5-11.35,7.29-16.93s4.39-11.5,6.34-17.62,3.4-10.76,4.3-13.79,1.68-5.71,2.35-8a2.43,2.43,0,0,0,0-.81,1.45,1.45,0,0,0-.34-.63,1,1,0,0,0-.65-.33h0a1.84,1.84,0,0,0-.74,0,1.4,1.4,0,0,0-.63.34,1,1,0,0,0-.34.57c-1,3.68-2.22,7.75-3.61,12.15s-3.08,9.47-5,15S29.63,39.69,27.5,44.9s-4.35,10.21-6.61,14.83a75.08,75.08,0,0,1-7,11.78C11.48,74.74,9.16,76.8,7,77.63a4.48,4.48,0,0,1-4.13-.24,1.5,1.5,0,0,0-.73-.19,1.41,1.41,0,0,0-.4,0,1.38,1.38,0,0,0-.9.62,1.45,1.45,0,0,0,.53,2,6.94,6.94,0,0,0,6.75.47C10.72,79.27,13.48,76.82,16.34,73Z"/>
        <path d="M.14.82a1.21,1.21,0,0,0,0,1.05L18.51,53.09a1.31,1.31,0,0,0,1.33,1,1.73,1.73,0,0,0,.54-.07,1.54,1.54,0,0,0,.76-.75,1.31,1.31,0,0,0,0-1.1L2.77.93A1.06,1.06,0,0,0,2.1.13,1.58,1.58,0,0,0,1.47,0,1.69,1.69,0,0,0,.94.09,1.33,1.33,0,0,0,.14.82Z"/>
      </g>
    </g>
  </g>
</svg>
