<svg xmlns="http://www.w3.org/2000/svg" width="64.82" height="83.8" viewBox="0 0 64.82 83.8">
  <g id="Calque_2" data-name="Calque 2">
    <g id="Calque_1_-_copie" data-name="Calque 1 - copie">
      <g>
        <path d="M64.4,81.34a1.27,1.27,0,0,0-1-.44H6.92a1.24,1.24,0,0,0-1,.44,1.47,1.47,0,0,0-.42,1.06,1.37,1.37,0,0,0,1.4,1.4h56.5a1.38,1.38,0,0,0,1.4-1.4A1.51,1.51,0,0,0,64.4,81.34Z"/>
        <path d="M64.63,1.9v0a2.06,2.06,0,0,0,.09-.48,1.34,1.34,0,0,0-.41-1,1.33,1.33,0,0,0-1-.4H4.12L3.87.07l-.13,0L3.26,0a1.37,1.37,0,0,0-.94.4,1.35,1.35,0,0,0-.4,1v8.9a1.46,1.46,0,0,0,.42,1.06,1.2,1.2,0,0,0,1,.44l.09-.05.11-.05h.34l.34.09H29.12a1.56,1.56,0,0,0,1.5-1.5,1.28,1.28,0,0,0-.44-1,1.53,1.53,0,0,0-1.06-.42H4.82v-6H60.53L.31,81.3a1.28,1.28,0,0,0-.3,1,1.46,1.46,0,0,0,.53,1,1.61,1.61,0,0,0,.88.28A1.15,1.15,0,0,0,2.49,83L64.42,2.5A1.93,1.93,0,0,0,64.63,1.9Z"/>
      </g>
    </g>
  </g>
</svg>
