<svg xmlns="http://www.w3.org/2000/svg" width="45.32" height="56.6" viewBox="0 0 45.32 56.6">
  <g id="Calque_2" data-name="Calque 2">
    <g id="Calque_1_-_copie" data-name="Calque 1 - copie">
      <g>
        <path d="M.64,2.46a1.25,1.25,0,0,0,1,.44h42.2a1.42,1.42,0,0,0,1-.45,1.43,1.43,0,0,0,.46-1.05,1.28,1.28,0,0,0-.44-1A1.53,1.53,0,0,0,43.82,0H1.62A1.37,1.37,0,0,0,.22,1.4,1.46,1.46,0,0,0,.64,2.46Z"/>
        <path d="M44.88,54.12a1.53,1.53,0,0,0-1.06-.42H5.42a1.5,1.5,0,0,0-1.06.42,1.25,1.25,0,0,0-.44,1,1.54,1.54,0,0,0,1.5,1.5h38.4a1.56,1.56,0,0,0,1.5-1.5A1.28,1.28,0,0,0,44.88,54.12Z"/>
        <path d="M1.42,54.4a1.42,1.42,0,0,0,1.12-.52L41.83,6.58a1.45,1.45,0,0,0,.34-1,1.21,1.21,0,0,0-.51-.93,1.62,1.62,0,0,0-1.11-.35,1.25,1.25,0,0,0-.95.47L.3,52.12a1.25,1.25,0,0,0-.29,1,1.46,1.46,0,0,0,.53,1A1.33,1.33,0,0,0,1.42,54.4Z"/>
      </g>
    </g>
  </g>
</svg>
