<svg xmlns="http://www.w3.org/2000/svg" width="49.6" height="82" viewBox="0 0 49.6 82">
  <g id="Calque_2" data-name="Calque 2">
    <g id="Calque_1_-_copie" data-name="Calque 1 - copie">
      <path d="M49.6,41a61.44,61.44,0,0,0-3.37-20.68C44,14.06,41,9,37.15,5.41S29.25,0,24.8,0,16.2,1.82,12.45,5.41,5.6,14.05,3.37,20.32A61.44,61.44,0,0,0,0,41C0,53.26,2,63.29,6,70.82S15.13,82,21.5,82a1.16,1.16,0,0,0,.93-.39,1.43,1.43,0,0,0,0-1.92,1.16,1.16,0,0,0-.93-.39c-5.58,0-10.19-3.64-13.7-10.83S2.6,52.16,2.6,41A60.77,60.77,0,0,1,5.53,21.79a35.34,35.34,0,0,1,8-14C17,4.35,20.75,2.6,24.8,2.6s7.84,1.75,11.25,5.2,6.07,8.11,8,14A60.77,60.77,0,0,1,47,41a86.21,86.21,0,0,1-1.06,13.68,58.39,58.39,0,0,1-3.17,11.95,24.87,24.87,0,0,1-5.67,8.88,12.77,12.77,0,0,1-8.17,3.79l-.52,0-.12-5.59.47,0c4.26-.38,7.76-3.07,10.4-8S43.27,54,43.4,45.89a1.41,1.41,0,0,0-.37-1,1.16,1.16,0,0,0-.93-.39c-1.14.13-1.3.73-1.3,1.3a64.94,64.94,0,0,1-.61,7.42,44.17,44.17,0,0,1-1.51,6.88,26.42,26.42,0,0,1-2.5,5.76,12.66,12.66,0,0,1-3.65,4,8.2,8.2,0,0,1-4.67,1.49l-.48.12-.14,0A1.34,1.34,0,0,0,27,71.3a1.23,1.23,0,0,0-.62.17,1.64,1.64,0,0,0-.49.49,1.25,1.25,0,0,0-.17.64l.1,8.09A1.39,1.39,0,0,0,27.1,82a1.25,1.25,0,0,0,.34-.07l.14-.05.14,0c.2,0,.33.08.39.08,6.36,0,11.58-3.76,15.5-11.18S49.6,53.26,49.6,41Z"/>
    </g>
  </g>
</svg>
